<svg xmlns="http://www.w3.org/2000/svg" xmlns:xlink="http://www.w3.org/1999/xlink" width="190" height="91" viewBox="0 0 190 91">
  <defs>
    <clipPath id="clip-path">
      <rect id="Rectángulo_401573" data-name="Rectángulo 401573" width="28.836" height="87" fill="none"/>
    </clipPath>
    <clipPath id="clip-path-2">
      <rect id="Rectángulo_401572" data-name="Rectángulo 401572" width="72.283" height="205.455" fill="none"/>
    </clipPath>
    <clipPath id="clip-path-3">
      <rect id="Rectángulo_403255" data-name="Rectángulo 403255" width="73" height="73" fill="#fff" stroke="#707070" stroke-width="1"/>
    </clipPath>
  </defs>
  <g id="Grupo_1102209" data-name="Grupo 1102209" transform="translate(-180.051 -401)">
    <g id="Grupo_1101503" data-name="Grupo 1101503" transform="translate(180.051 401)">
      <g id="Grupo_1099687" data-name="Grupo 1099687" transform="translate(0 0.333)" clip-path="url(#clip-path)">
        <g id="Grupo_1099686" data-name="Grupo 1099686" transform="translate(-6.669 -43.137)" opacity="0.45" style="mix-blend-mode: multiply;isolation: isolate">
          <g id="Grupo_1099685" data-name="Grupo 1099685">
            <g id="Grupo_1099684" data-name="Grupo 1099684" clip-path="url(#clip-path-2)">
              <path id="Trazado_873516" data-name="Trazado 873516" d="M3.011,19.235,87.333,7.789,86.8,12.52,2.48,23.966Z" transform="matrix(0.898, -0.44, 0.44, 0.898, -11.17, 159.431)" fill="#2d0464"/>
              <path id="Trazado_873517" data-name="Trazado 873517" d="M3.011,19.235,87.333,7.789,86.8,12.52,2.48,23.966Z" transform="matrix(0.898, -0.44, 0.44, 0.898, -11.17, 146.632)" fill="#2d0464"/>
              <path id="Trazado_873518" data-name="Trazado 873518" d="M3.011,19.235,87.333,7.789,86.8,12.52,2.48,23.966Z" transform="matrix(0.898, -0.44, 0.44, 0.898, -11.17, 133.833)" fill="#2d0464"/>
              <path id="Trazado_873519" data-name="Trazado 873519" d="M3.011,19.235,87.333,7.789,86.8,12.52,2.48,23.966Z" transform="matrix(0.898, -0.44, 0.44, 0.898, -11.17, 121.035)" fill="#2d0464"/>
              <path id="Trazado_873520" data-name="Trazado 873520" d="M3.011,19.235,87.333,7.789,86.8,12.52,2.48,23.966Z" transform="matrix(0.898, -0.44, 0.44, 0.898, -11.17, 108.236)" fill="#2d0464"/>
              <path id="Trazado_873521" data-name="Trazado 873521" d="M3.011,19.235,87.333,7.789,86.8,12.52,2.48,23.966Z" transform="matrix(0.898, -0.44, 0.44, 0.898, -11.17, 95.438)" fill="#2d0464"/>
              <path id="Trazado_873522" data-name="Trazado 873522" d="M3.011,19.235,87.333,7.789,86.8,12.52,2.48,23.966Z" transform="matrix(0.898, -0.44, 0.44, 0.898, -11.17, 82.639)" fill="#2d0464"/>
              <path id="Trazado_873523" data-name="Trazado 873523" d="M3.011,19.235,87.333,7.789,86.8,12.52,2.48,23.966Z" transform="matrix(0.898, -0.44, 0.44, 0.898, -11.17, 69.841)" fill="#2d0464"/>
              <path id="Trazado_873524" data-name="Trazado 873524" d="M3.011,19.235,87.333,7.789,86.8,12.52,2.48,23.966Z" transform="matrix(0.898, -0.44, 0.44, 0.898, -11.17, 57.043)" fill="#2d0464"/>
              <path id="Trazado_873525" data-name="Trazado 873525" d="M3.011,19.235,87.333,7.789,86.8,12.52,2.48,23.966Z" transform="matrix(0.898, -0.44, 0.44, 0.898, -11.17, 44.244)" fill="#2d0464"/>
              <path id="Trazado_873526" data-name="Trazado 873526" d="M3.011,19.235,87.333,7.789,86.8,12.52,2.48,23.966Z" transform="translate(-11.17 31.445) rotate(-26.114)" fill="#2d0464"/>
            </g>
          </g>
        </g>
      </g>
      <rect id="Rectángulo_401574" data-name="Rectángulo 401574" width="161" height="91" transform="translate(29)" fill="#efe8f7"/>
    </g>
    <g id="Enmascarar_grupo_1098716" data-name="Enmascarar grupo 1098716" transform="translate(253.051 410)" clip-path="url(#clip-path-3)">
      <g id="gestion-de-proyectos2" transform="translate(2.697 1.069)">
        <g id="Grupo_1101909" data-name="Grupo 1101909" transform="translate(11.629 6.047)">
          <path id="Trazado_913008" data-name="Trazado 913008" d="M25.861,12.8V6.922H15.36a1.426,1.426,0,0,0-1.426,1.426V12.8Z" transform="translate(-13.934 -6.922)" fill="#8ac9fe"/>
          <rect id="Rectángulo_403384" data-name="Rectángulo 403384" width="4.774" height="5.88" transform="translate(7.153)" fill="#60b7ff"/>
          <path id="Trazado_913009" data-name="Trazado 913009" d="M45.466,58.36v6.19H55.812a1.426,1.426,0,0,0,1.426-1.426V58.36Z" transform="translate(-13.046 -5.473)" fill="#8ac9fe"/>
          <path id="Trazado_913010" data-name="Trazado 913010" d="M52.258,58.36v4.764a1.426,1.426,0,0,1-1.426,1.426h4.828a1.426,1.426,0,0,0,1.426-1.426V58.36Z" transform="translate(-12.895 -5.473)" fill="#60b7ff"/>
        </g>
        <g id="Grupo_1101910" data-name="Grupo 1101910" transform="translate(11.629 6.047)">
          <path id="Trazado_913011" data-name="Trazado 913011" d="M25.861,12.8V6.922H15.36a1.426,1.426,0,0,0-1.426,1.426V12.8Z" transform="translate(-13.934 -6.922)" fill="none" stroke="#000" stroke-linecap="round" stroke-linejoin="round" stroke-miterlimit="10" stroke-width="2.08"/>
          <path id="Trazado_913012" data-name="Trazado 913012" d="M45.466,58.36v6.19H55.812a1.426,1.426,0,0,0,1.426-1.426V58.36Z" transform="translate(-13.046 -5.473)" fill="none" stroke="#000" stroke-linecap="round" stroke-linejoin="round" stroke-miterlimit="10" stroke-width="2.08"/>
        </g>
        <path id="Trazado_913013" data-name="Trazado 913013" d="M68.161,1.04H26.822A1.426,1.426,0,0,0,25.4,2.466v10.5H44.748a1.285,1.285,0,0,1,1.283,1.283V60.117H68.162a1.426,1.426,0,0,0,1.426-1.426V2.466A1.426,1.426,0,0,0,68.161,1.04Z" transform="translate(-1.982 -1.04)" fill="#f2fbff"/>
        <path id="Trazado_913014" data-name="Trazado 913014" d="M67.154,1.04h-6A1.426,1.426,0,0,1,62.58,2.466V58.691a1.426,1.426,0,0,1-1.426,1.426h6a1.426,1.426,0,0,0,1.426-1.426V2.466A1.426,1.426,0,0,0,67.154,1.04Z" transform="translate(-0.975 -1.04)" fill="#dff6fd"/>
        <path id="Trazado_913015" data-name="Trazado 913015" d="M46.031,60.117H68.161a1.426,1.426,0,0,0,1.426-1.426V2.466A1.426,1.426,0,0,0,68.161,1.04H26.822A1.426,1.426,0,0,0,25.4,2.466v10.5" transform="translate(-1.982 -1.04)" fill="none" stroke="#000" stroke-linecap="round" stroke-linejoin="round" stroke-miterlimit="10" stroke-width="2.08"/>
        <path id="Trazado_913016" data-name="Trazado 913016" d="M45.389,71.579H4.049a1.426,1.426,0,0,1-1.426-1.426V13.927A1.426,1.426,0,0,1,4.049,12.5h41.34a1.426,1.426,0,0,1,1.426,1.426V70.153A1.426,1.426,0,0,1,45.389,71.579Z" transform="translate(-2.624 -0.717)" fill="#fef0ae"/>
        <path id="Trazado_913017" data-name="Trazado 913017" d="M44.393,12.5H38a1.426,1.426,0,0,1,1.426,1.426V70.153A1.426,1.426,0,0,1,38,71.579h6.4a1.426,1.426,0,0,0,1.426-1.426V13.927A1.426,1.426,0,0,0,44.393,12.5Z" transform="translate(-1.627 -0.717)" fill="#fee97d"/>
        <path id="Trazado_913018" data-name="Trazado 913018" d="M2.624,61.1v9.054a1.426,1.426,0,0,0,1.426,1.426h41.34a1.426,1.426,0,0,0,1.426-1.426V13.927A1.426,1.426,0,0,0,45.389,12.5H37" transform="translate(-2.624 -0.717)" fill="none" stroke="#000" stroke-linecap="round" stroke-linejoin="round" stroke-miterlimit="10" stroke-width="2.08"/>
        <path id="Trazado_913019" data-name="Trazado 913019" d="M32.006,12.5H4.049a1.426,1.426,0,0,0-1.426,1.426V56.109" transform="translate(-2.624 -0.717)" fill="none" stroke="#000" stroke-linecap="round" stroke-linejoin="round" stroke-miterlimit="10" stroke-width="2.08"/>
        <g id="Grupo_1101912" data-name="Grupo 1101912" transform="translate(17.173 25.451)">
          <g id="Grupo_1101911" data-name="Grupo 1101911">
            <line id="Línea_675" data-name="Línea 675" x2="19.847" fill="#fff" stroke="#000" stroke-linecap="round" stroke-linejoin="round" stroke-miterlimit="10" stroke-width="2.08"/>
            <line id="Línea_676" data-name="Línea 676" x2="12.366" transform="translate(0 4.497)" fill="#fff" stroke="#000" stroke-linecap="round" stroke-linejoin="round" stroke-miterlimit="10" stroke-width="2.08"/>
            <line id="Línea_677" data-name="Línea 677" x2="3.605" transform="translate(16.242 4.497)" fill="#fff" stroke="#000" stroke-linecap="round" stroke-linejoin="round" stroke-miterlimit="10" stroke-width="2.08"/>
          </g>
        </g>
        <g id="Grupo_1101914" data-name="Grupo 1101914" transform="translate(7.171 35.878)">
          <path id="Trazado_913020" data-name="Trazado 913020" d="M14.6,41.362H10.026a.428.428,0,0,1-.428-.428V36.363a.428.428,0,0,1,.428-.428H14.6a.428.428,0,0,1,.428.428v4.572A.427.427,0,0,1,14.6,41.362Z" transform="translate(-9.598 -35.935)" fill="#fff" stroke="#000" stroke-linecap="round" stroke-linejoin="round" stroke-miterlimit="10" stroke-width="2.08"/>
          <g id="Grupo_1101913" data-name="Grupo 1101913" transform="translate(10.001 0.465)">
            <line id="Línea_678" data-name="Línea 678" x2="19.847" fill="#fff" stroke="#000" stroke-linecap="round" stroke-linejoin="round" stroke-miterlimit="10" stroke-width="2.08"/>
            <line id="Línea_679" data-name="Línea 679" x2="3.683" transform="translate(0 4.497)" fill="#fff" stroke="#000" stroke-linecap="round" stroke-linejoin="round" stroke-miterlimit="10" stroke-width="2.08"/>
            <line id="Línea_680" data-name="Línea 680" x2="12.288" transform="translate(7.559 4.497)" fill="#fff" stroke="#000" stroke-linecap="round" stroke-linejoin="round" stroke-miterlimit="10" stroke-width="2.08"/>
          </g>
        </g>
        <g id="Grupo_1101916" data-name="Grupo 1101916" transform="translate(7.171 46.771)">
          <path id="Trazado_913021" data-name="Trazado 913021" d="M14.6,51.957H10.026a.428.428,0,0,1-.428-.428V46.957a.428.428,0,0,1,.428-.428H14.6a.428.428,0,0,1,.428.428v4.572A.427.427,0,0,1,14.6,51.957Z" transform="translate(-9.598 -46.53)" fill="#fff" stroke="#000" stroke-linecap="round" stroke-linejoin="round" stroke-miterlimit="10" stroke-width="2.08"/>
          <g id="Grupo_1101915" data-name="Grupo 1101915" transform="translate(10.001 0.465)">
            <line id="Línea_681" data-name="Línea 681" x2="19.847" fill="#fff" stroke="#000" stroke-linecap="round" stroke-linejoin="round" stroke-miterlimit="10" stroke-width="2.08"/>
            <line id="Línea_682" data-name="Línea 682" x2="19.847" transform="translate(0 4.497)" fill="#fff" stroke="#000" stroke-linecap="round" stroke-linejoin="round" stroke-miterlimit="10" stroke-width="2.08"/>
          </g>
        </g>
        <g id="Grupo_1101918" data-name="Grupo 1101918" transform="translate(7.171 57.664)">
          <path id="Trazado_913022" data-name="Trazado 913022" d="M14.6,62.551H10.026a.428.428,0,0,1-.428-.428V57.552a.428.428,0,0,1,.428-.428H14.6a.428.428,0,0,1,.428.428v4.572A.427.427,0,0,1,14.6,62.551Z" transform="translate(-9.598 -57.124)" fill="#fff" stroke="#000" stroke-linecap="round" stroke-linejoin="round" stroke-miterlimit="10" stroke-width="2.08"/>
          <g id="Grupo_1101917" data-name="Grupo 1101917" transform="translate(10.001 0.465)">
            <line id="Línea_683" data-name="Línea 683" x2="19.847" fill="#fff" stroke="#000" stroke-linecap="round" stroke-linejoin="round" stroke-miterlimit="10" stroke-width="2.08"/>
            <line id="Línea_684" data-name="Línea 684" x2="7.404" transform="translate(0 4.497)" fill="#fff" stroke="#000" stroke-linecap="round" stroke-linejoin="round" stroke-miterlimit="10" stroke-width="2.08"/>
            <line id="Línea_685" data-name="Línea 685" x1="8.567" transform="translate(11.28 4.497)" fill="#fff" stroke="#000" stroke-linecap="round" stroke-linejoin="round" stroke-miterlimit="10" stroke-width="2.08"/>
          </g>
        </g>
        <path id="Trazado_913023" data-name="Trazado 913023" d="M9.184,26.967,11.82,29.6l4.187-5.582" transform="translate(-2.439 -0.393)" fill="none" stroke="#000" stroke-linecap="round" stroke-linejoin="round" stroke-miterlimit="10" stroke-width="2.08"/>
        <line id="Línea_686" data-name="Línea 686" x2="5.988" transform="translate(49.523 26.205)" fill="none" stroke="#000" stroke-linecap="round" stroke-linejoin="round" stroke-miterlimit="10" stroke-width="2.08"/>
        <line id="Línea_687" data-name="Línea 687" x2="12.405" transform="translate(49.523 31.167)" fill="none" stroke="#000" stroke-linecap="round" stroke-linejoin="round" stroke-miterlimit="10" stroke-width="2.08"/>
        <line id="Línea_688" data-name="Línea 688" x2="12.405" transform="translate(49.523 36.128)" fill="none" stroke="#000" stroke-linecap="round" stroke-linejoin="round" stroke-miterlimit="10" stroke-width="2.08"/>
        <line id="Línea_689" data-name="Línea 689" x2="12.405" transform="translate(49.523 41.09)" fill="none" stroke="#000" stroke-linecap="round" stroke-linejoin="round" stroke-miterlimit="10" stroke-width="2.08"/>
        <line id="Línea_690" data-name="Línea 690" x2="2.387" transform="translate(49.523 46.052)" fill="none" stroke="#000" stroke-linecap="round" stroke-linejoin="round" stroke-miterlimit="10" stroke-width="2.08"/>
        <line id="Línea_691" data-name="Línea 691" x2="6.451" transform="translate(55.476 46.052)" fill="none" stroke="#000" stroke-linecap="round" stroke-linejoin="round" stroke-miterlimit="10" stroke-width="2.08"/>
        <line id="Línea_692" data-name="Línea 692" x2="12.405" transform="translate(49.523 51.014)" fill="none" stroke="#000" stroke-linecap="round" stroke-linejoin="round" stroke-miterlimit="10" stroke-width="2.08"/>
        <circle id="Elipse_11558" data-name="Elipse 11558" cx="7.168" cy="7.168" r="7.168" transform="translate(48.557 6.131)" fill="#ffd15b"/>
        <path id="Trazado_913024" data-name="Trazado 913024" d="M50.1,16.057a7.166,7.166,0,1,0,.453-4.99" transform="translate(-1.286 -0.872)" fill="none" stroke="#000" stroke-linecap="round" stroke-linejoin="round" stroke-miterlimit="10" stroke-width="2.08"/>
        <path id="Trazado_913025" data-name="Trazado 913025" d="M56.822,13.975v7.168a7.168,7.168,0,0,0,7.168-7.168H56.822Z" transform="translate(-1.097 -0.676)" fill="#fd6930"/>
        <path id="Trazado_913026" data-name="Trazado 913026" d="M56.822,13.975v7.168a7.168,7.168,0,0,0,7.168-7.168H56.822Z" transform="translate(-1.097 -0.676)" fill="none" stroke="#000" stroke-linecap="round" stroke-linejoin="round" stroke-miterlimit="10" stroke-width="2.08"/>
        <line id="Línea_693" data-name="Línea 693" x1="15.041" transform="translate(29.151 6.131)" fill="none" stroke="#000" stroke-linecap="round" stroke-linejoin="round" stroke-miterlimit="10" stroke-width="2.08"/>
        <line id="Línea_694" data-name="Línea 694" x2="2.851" transform="translate(59.077 26.205)" fill="none" stroke="#000" stroke-linecap="round" stroke-linejoin="round" stroke-miterlimit="10" stroke-width="2.08"/>
        <line id="Línea_695" data-name="Línea 695" x2="20.073" transform="translate(7.171 18.749)" fill="none" stroke="#000" stroke-linecap="round" stroke-linejoin="round" stroke-miterlimit="10" stroke-width="2.08"/>
        <line id="Línea_696" data-name="Línea 696" x2="1.079" transform="translate(35.941 18.749)" fill="none" stroke="#000" stroke-linecap="round" stroke-linejoin="round" stroke-miterlimit="10" stroke-width="2.08"/>
        <line id="Línea_697" data-name="Línea 697" x2="1.079" transform="translate(31.155 18.749)" fill="none" stroke="#000" stroke-linecap="round" stroke-linejoin="round" stroke-miterlimit="10" stroke-width="2.08"/>
      </g>
    </g>
  </g>
</svg>
