<svg xmlns="http://www.w3.org/2000/svg" width="74" height="74" viewBox="0 0 74 74">
  <g id="Grupo_1113794" data-name="Grupo 1113794" transform="translate(-252.018 -2432.369)">
    <circle id="Elipse_11581" data-name="Elipse 11581" cx="37" cy="37" r="37" transform="translate(252.018 2432.369)" fill="#fbfbf9"/>
    <g id="Grupo_1113739" data-name="Grupo 1113739" transform="translate(-245.051 451.257)">
      <g id="escudo-seguro" transform="translate(515.051 1993.427)">
        <g id="Grupo_1113740" data-name="Grupo 1113740" transform="translate(0 0)">
          <g id="Grupo_1113739-2" data-name="Grupo 1113739" transform="translate(0 0)">
            <path id="Trazado_920610" data-name="Trazado 920610" d="M79.019,8.525A82.123,82.123,0,0,1,59.26.144a1.038,1.038,0,0,0-1.056,0,79.874,79.874,0,0,1-19.76,8.381,1.038,1.038,0,0,0-.764,1V20.138a30.527,30.527,0,0,0,9.27,22.3c4.553,4.461,9.856,6.928,11.782,6.928s7.229-2.467,11.781-6.928a30.527,30.527,0,0,0,9.27-22.3V9.526A1.038,1.038,0,0,0,79.019,8.525ZM77.707,20.137a28.49,28.49,0,0,1-8.646,20.82c-4.477,4.387-9.264,6.335-10.328,6.335S52.882,45.344,48.4,40.957a28.491,28.491,0,0,1-8.646-20.82V10.315A81.788,81.788,0,0,0,58.733,2.242a84.377,84.377,0,0,0,18.974,8.073Z" transform="translate(-37.681 0)" fill="#692cb7"/>
            <path id="Trazado_920611" data-name="Trazado 920611" d="M88.061,99.6a1.038,1.038,0,0,0-1.347-.586c-1.855.731-3.759,1.4-5.66,2a1.039,1.039,0,0,0-.728.991v4.01a1.038,1.038,0,1,0,2.077,0v-3.251c1.7-.552,3.408-1.162,5.072-1.817A1.038,1.038,0,0,0,88.061,99.6Z" transform="translate(-76.215 -89.403)" fill="#692cb7"/>
            <path id="Trazado_920612" data-name="Trazado 920612" d="M171.243,88.288a1.039,1.039,0,0,0,.416-.087l.019-.008a1.038,1.038,0,1,0-.839-1.9l-.017.007a1.038,1.038,0,0,0,.42,1.988Z" transform="translate(-157.424 -77.893)" fill="#692cb7"/>
            <path id="Trazado_920613" data-name="Trazado 920613" d="M311.14,345.7a1.039,1.039,0,0,0-1.437.3,25.276,25.276,0,0,1-2.984,3.728,26.524,26.524,0,0,1-2.979,2.65A1.039,1.039,0,1,0,305,354.028a28.624,28.624,0,0,0,3.213-2.858,27.328,27.328,0,0,0,3.23-4.035A1.038,1.038,0,0,0,311.14,345.7Z" transform="translate(-277.716 -312.211)" fill="#692cb7"/>
            <path id="Trazado_920614" data-name="Trazado 920614" d="M277.142,432.108l-.06.035a1.038,1.038,0,1,0,1.04,1.8l.069-.04a1.038,1.038,0,1,0-1.05-1.792Z" transform="translate(-253.529 -390.314)" fill="#692cb7"/>
            <path id="Trazado_920615" data-name="Trazado 920615" d="M128.584,162.257a3.377,3.377,0,0,0-4.776,4.776l6.132,6.132a3.378,3.378,0,0,0,4.776,0l12.8-12.8a3.377,3.377,0,0,0-4.776-4.776L132.329,166Zm15.626-5.2a1.3,1.3,0,1,1,1.839,1.838l-12.8,12.8a1.3,1.3,0,0,1-1.839,0l-6.132-6.132a1.3,1.3,0,0,1,1.839-1.839l4.478,4.479a1.038,1.038,0,0,0,1.469,0Z" transform="translate(-114.612 -139.692)" fill="#692cb7"/>
          </g>
        </g>
      </g>
    </g>
  </g>
</svg>
