<svg xmlns="http://www.w3.org/2000/svg" xmlns:xlink="http://www.w3.org/1999/xlink" width="505" height="163" viewBox="0 0 505 163">
  <defs>
    <clipPath id="clip-path">
      <rect id="Rectángulo_403530" data-name="Rectángulo 403530" width="505" height="163" rx="20" transform="translate(915 3132)" fill="#ebf6ea"/>
    </clipPath>
    <clipPath id="clip-path-2">
      <rect id="Rectángulo_403529" data-name="Rectángulo 403529" width="408.949" height="261.601" fill="none"/>
    </clipPath>
  </defs>
  <g id="Enmascarar_grupo_1098734" data-name="Enmascarar grupo 1098734" transform="translate(-915 -3132)" clip-path="url(#clip-path)">
    <rect id="Rectángulo_403516" data-name="Rectángulo 403516" width="505" height="163" rx="20" transform="translate(914.975 3132)" fill="#e2f4f9"/>
    <g id="Grupo_1106376" data-name="Grupo 1106376" transform="translate(915 3146)">
      <g id="Grupo_1106375" data-name="Grupo 1106375" clip-path="url(#clip-path-2)">
        <path id="Trazado_913643" data-name="Trazado 913643" d="M165,76.069a49.745,49.745,0,0,0,19.69,42.478H92.942a49.761,49.761,0,0,0,19.695-42.478Z" transform="translate(131.821 107.89)" fill="#73c8e2" fill-rule="evenodd"/>
        <path id="Trazado_913644" data-name="Trazado 913644" d="M156.159,76.069a49.953,49.953,0,0,0,.351,9.274L99.174,99.95A49.912,49.912,0,0,0,103.8,76.069Z" transform="translate(140.66 107.89)" fill="#3c191e" fill-rule="evenodd"/>
        <path id="Trazado_913645" data-name="Trazado 913645" d="M65.906,0h252.55a9.727,9.727,0,0,1,9.777,9.173c2.677,43.479,1.468,135.181,0,172.629a9.721,9.721,0,0,1-9.777,9.173c-78.617,1.478-173.935,1.6-252.55,0a9.711,9.711,0,0,1-9.777-9.173c-1.6-45.206-1.086-142.236,0-172.629A9.635,9.635,0,0,1,65.906,0" transform="translate(78.17)" fill="#fff" fill-rule="evenodd"/>
        <path id="Trazado_913646" data-name="Trazado 913646" d="M61.63,5.308c71.531-1.819,173.949-1.744,245.483,0,1.405,46.323,1.253,100.15,0,146.473-71.534,1.971-173.952,1.952-245.483,0-1.035-45.191-1.248-98.786,0-146.473" transform="translate(86.194 5.633)" fill="#c6e9f3" fill-rule="evenodd"/>
        <path id="Trazado_913647" data-name="Trazado 913647" d="M61.63,5.308c71.531-1.819,173.949-1.744,245.483,0C246.094,30.318,127.251,105.225,61.63,151.78c-1.035-45.191-1.248-98.786,0-146.473" transform="translate(86.194 5.633)" fill="#73c8e2" fill-rule="evenodd"/>
        <path id="Trazado_913648" data-name="Trazado 913648" d="M63.154,152.327a.96.96,0,1,1-1.92.036c-.542-23.75-.858-49.713-.858-75.807,0-23.789.264-47.866.858-70.707a.963.963,0,0,1,.938-.936c35.484-.9,78.424-1.34,121.363-1.34,43.868,0,87.911.457,124.166,1.34a.96.96,0,0,1-.046,1.92C271.608,5.956,227.575,5.5,183.535,5.5c-42.729,0-85.3.43-120.4,1.313-.576,22.365-.832,46.12-.832,69.744,0,26.3.317,52.231.854,75.771" transform="translate(85.631 5.069)" fill="#3c191e" fill-rule="evenodd"/>
        <path id="Trazado_913649" data-name="Trazado 913649" d="M319.045,2.48a.96.96,0,1,1,1.362-1.354,10.025,10.025,0,0,1,2.43,3.734,10.616,10.616,0,0,1,.59,3.064c.648,10.52,1.069,23.9,1.313,38.666.281,16.923.329,35.66.22,54-.089,15.2-.283,30.115-.542,43.505-.276,14.517-.624,27.23-.992,36.55v.024a10.285,10.285,0,0,1-3.27,7.1,11.141,11.141,0,0,1-7.453,2.97c-40.207.757-84.627,1.158-128.829,1.158-42.526,0-85.081-.37-123.755-1.158a.959.959,0,1,1,.039-1.918c38.413.779,80.972,1.149,123.716,1.149,44.453,0,88.861-.4,128.8-1.149a9.218,9.218,0,0,0,6.164-2.452,8.351,8.351,0,0,0,2.667-5.787v-.012c.368-9.347.716-22.045.994-36.5.256-13.4.45-28.309.539-43.484.109-18.324.06-37.046-.22-53.96-.244-14.7-.663-28.045-1.313-38.587a8.774,8.774,0,0,0-.476-2.53,8.2,8.2,0,0,0-1.985-3.028" transform="translate(83.936 1.193)" fill="#3c191e" fill-rule="evenodd"/>
        <path id="Trazado_913650" data-name="Trazado 913650" d="M76.856,28.908s-5.649-.9-6.048,1.959,3.492,4.244.9,5.465a2.352,2.352,0,0,0,1.34,4.459c2.5-.51,3.886-2.363,7.54-1.383s5.968,1.8,8.491,4.631,4.8,6.706,4.59,10.249-.118,6.914,6.907,13.359,1.366,5.961,7.412,8.234,7.4,3,10.07,5.678-1.238,6.808.863,10.853,1.988,4.926,3.311,6.887,4.684,4.189.687,19.671,3.173,12.111,4.375,11.378.626-2.152-.938-4.479.082-3.562,2.346-6.084.634-4.242,3.4-5.5,4.619-4.44,7.925-10.815,6.172-7.2,5.635-9.93-6.38-2.863-9.3-7.17-5.083-7.4-11.567-7.806-8.215.355-12.2-4.621-2.895-7.383.975-8.2,4.931.977,7-3.42-.22-3.238,3.207-6.024,4.646-4.737,3.388-5.966-.967-1.265,1.6-3.441.849-4.979-3.074-6.2-4.389.738-5.419,4.053-3.548.752-6.841-1.458-2.991-4.2-.029-6.4,4.263-4.648.242-5.146-10.273,1.7-13.1.532S93.291,29.3,89.485,30.015s-2.779,1.236-12.628-1.108M115.5,55.13c-.283.95-1.748-.7-1.313-1.852s-.713-1.424-1.359-1.8.793-2.029,3.057-1.415,1.185,1.983,3.449,2.164.592,2.469-.462,2.469c-1.238,0-2.568-2.264-3.371.438m26.21-17.777s.189,2.723-1.6,2.827-3.654-3.589-4.779-5.756,2.706-4.936.121-6.51-3.151-5.127-6.135-6.1-5.968-3.139-.667-5.25,5.618-.31,9.318-1.132,6.529-2.776,11.625-1.644.9,1.85,6.933,2.341-1.478,4.295-2.508,6.147.358,3.944-.542,6.217-1.792,2.438-6.723,4.208-4.675,2.75-5.042,4.655m26.282,10.832c-2.52,1.954-3.9,2.264-3.175,4.721s-4.22.508-4.423,3.231,2.5,4.283.917,6.924-6.805,5.49-5.262,11.572,1.62,8.084,3.937,9.407,6.827-1.806,8.43.068,3.146-.854,2.994,3.828,2.031,3.715,2.713,6.9-2.312,1.183-.186,8.372.452,10.193,5.625,9.606,3.734-4.293,5.175-9.028,3.973-2.578,4.433-8.321.66-5.265,2.152-9.33,2.266-5.61-1.028-7.2-4.462-3.756.29-3.475,7.325.285,7.789-2.133-3.473-5.216.09-5.182,4.118,1.088,6,1.156,2.621.44,3.606,4.365,1.265,8.232,3.63,7.884.249-3.644,1.952-5.753,3.175-2.085,4.189-3.744,2.08.1,2.81,2.285,1.939,7.342,4.29,8.541,2.592-2.66,2.97-4.868-2.472-4.324-.053-5.661,5.146-.259,7-3.294,1.337-4.22-.256-7.821,2.426-2.738,4.372-2.883.716-2.82,3.4-3.006,7.99-5.947,5.105-8.077-2.365-3.11-.133-4.684,1.108-1.894,4.926-1.947,3.574.725,4.82,3.717,3.047.385,4.735-2.058,5.311-2.462,7.185-4.4,6.024-3.77,1.562-6.051-4.8-.73-7.949-1.274-9.7-4-14-3.523.851,2.74-5.838,2.638-12.295-1.528-11.676-3.635-.031-3.545-4-4.239-7.357,2.29-9.676,3.011-11.294.592-11.448,4.193-3.272,3.149-7.77,3.449-6.542.907-8.691,2.355-5.306.834-3.918-2.048-9.6-.742-13.651,3.412-2.6,4.955.068,7.136c1.567,1.284,1.826,1.765,1.773,1.949a23.5,23.5,0,0,0-5.8,2.916m9.511-7.052c-.261-1.287,3.5-3.591,2.8-1.867-1.236,3.013,1.1.941,3.25.607,2.285-.355-.206,2.472-3.086,3.216s-3.473,3.308-4.118,1.981c-.689-1.415,1.519-2.162,1.158-3.937M163.991,61.292c-.559-1.042,2.058-1.838,2.53-2.837a7.885,7.885,0,0,1,1.253-2.7c1.333-1.521,5.042-1.453,7.461,1.586s4.394,2.409,8.256,3.316,2.346,5.378-1.55,4.517-1.2-.271-4.684-.179-5.313-2.638-6.266-3.41-6.561.513-7-.3m23.745-9.383c1.27-.808,1.56-.22,1.045.989a1.947,1.947,0,0,0-.082,1.971c1.062,1.41.1,2.16-2.143,1.446s-2.126.285-3.654.024-.515-4.476,2.109-4.063a3.852,3.852,0,0,0,2.725-.368m8.982.706c.858.138,1.236.578,1.168,1.047-.16,1.086-1.7,1.025-1.761,1.436-.068.467.914,1.492.96,2.2.06.875,1.407,3.335-.264,3.441s-2.2-2.464-2.237-3.39-1.881-2.684-.929-3.971c.747-1.008,2.387-.873,3.062-.767M246.806,100.9c2.738.755-.3-3.91,1.833-3.265,1.7.513,2.109,4.341,3.013,4.914s3.369,3.884,2.7,6.341-.829,7.013-3.555,7.731-3.4-2.573-4.89-2.418-2-1.449-3.294-2.213-5.163.619-8.4,1.681-1.3-2.556-1.927-4.568-1.352-3.852.859-4.728a9.09,9.09,0,0,0,4.22-3.937A3.412,3.412,0,0,1,240.33,99c.977,0,2.053-2.048,3.267-1.9s.462.667,1.26,2.29a2.986,2.986,0,0,0,1.949,1.516M221.552,84.686a2.241,2.241,0,0,1,2.355.8c.834,1.216,2.14,1.777,2.3,2.484s1.175,1.274,1.354,1.947.276,2.1-1.173,1.838-1.088-2.38-2.131-3.149-1.456-2.469-1.944-2.75-1.287-.825-.767-1.166m12.15-1.291c.375-.2,1.649.786,1.516,1.137-.16.414-1.359.7-.989,1.538.438.977.131,1.093.007,1.787s-.559,2.189-1.163,2.1-2.481.1-2.945-.489a2.646,2.646,0,0,1-.914-1.983c.024-1.016.849-1.081,1.62-1.332s.709-.982,1.533-1.492.859-1.011,1.335-1.265m5.011,3.236c.837.926.348,1.016-.385,1.221s-2.046.152-2.072.489,1.415.488,1.214.769-.757.3-.955.638,1.272,1.526,1.267,1.978-.225.808-1-.065-.786-.694-.8-.015-.912.372-.95-.179-.515-.977-.232-1.417a10.683,10.683,0,0,0,.542-2.179,1.711,1.711,0,0,1,1.838-.88,2.228,2.228,0,0,0,1.531-.36m2.612,2.508c-.068-.481,1.838-.955,2.123-.232.167.426,1.132,1.557,1.328,1.071s1.025-.825,2.517-.416a7.48,7.48,0,0,1,3.79,2.7c.5.9-.636,1.19.8,2.4s.941,1.378.077,1.17-2.312-2.213-2.713-1.956-.709,1.313-1.84.759-1.852-.447-1.354-.929.131-1.076-.164-1.589-1.478-.428-2.019-.917-1.582.039-1.686-.912-.8-.684-.861-1.146" transform="translate(99.751 19.062)" fill="#4f8b9d" fill-rule="evenodd"/>
        <path id="Trazado_913651" data-name="Trazado 913651" d="M105.809,100.644,0,186.374V95.885L82.085,52.227Z" transform="translate(0 74.075)" fill="#e7baa8" fill-rule="evenodd"/>
        <path id="Trazado_913652" data-name="Trazado 913652" d="M107,13.625S78.881,25.673,65.827,39.733,37.457,82.16,33.692,95.717s-9.54,41.172-.252,53.725,46.7,15.816,59.249-7.03S110.261,92.7,110.261,92.7C112.278,64.48,111.675,37.83,107,13.625" transform="translate(40.325 19.325)" fill="#e7baa8" fill-rule="evenodd"/>
        <path id="Trazado_913653" data-name="Trazado 913653" d="M78.579,98.863c8.084-14.713,13.047-31.1,15.552-40.891A34.289,34.289,0,0,0,77.416,46.11c-31.005-10.609-44.19,28.7-34.4,52.105a10.922,10.922,0,0,1-3.236,11.545c-7.294,5.983,15.509,6.43,29.767-.9,4.37-2.244,7.165-6.607,9.03-10" transform="translate(54.433 62.874)" fill="#dc998d" fill-rule="evenodd"/>
        <path id="Trazado_913654" data-name="Trazado 913654" d="M46.523,28.139S38.646,51.452,38.3,73.117,74.13,63.5,74.13,63.5Z" transform="translate(54.319 39.91)" fill="#dc998d" fill-rule="evenodd"/>
        <path id="Trazado_913655" data-name="Trazado 913655" d="M61.817,46.068c9.066-1.32,49,6.043,41.685,16.991-1.722,2.573-7.045,3.717-14.1,2.041-5.922-1.412-12.418-3.744-16.164-3.5-6.653.435-8.425,1.7-11.746,7.163-7.335-3.678-7.083-16.162.322-22.693" transform="translate(79.606 65.122)" fill="#d68982" fill-rule="evenodd"/>
        <path id="Trazado_913656" data-name="Trazado 913656" d="M66.993,40.738s20.72-1.93,30.807-2.072c4.4-.06,10.5,1.054,10.95,5.729,1.062,11.023-21.276,10.832-28.289,11.139-10.45.457-21.591,1.952-21.591,1.952Z" transform="translate(83.496 54.836)" fill="#d68982" fill-rule="evenodd"/>
        <path id="Trazado_913657" data-name="Trazado 913657" d="M84.347,28.461s19.3-3.253,19.758,6.51S91.353,45.114,82.968,45.916,61.15,47.179,61.15,47.179l-.689-16.536Z" transform="translate(85.753 39.629)" fill="#d68982" fill-rule="evenodd"/>
        <path id="Trazado_913658" data-name="Trazado 913658" d="M78.982,79.391,0,136.122v20.556L96.06,78.847l5.013-4.063a48.483,48.483,0,0,1-13.424-1.62Z" transform="translate(0 103.77)" fill="#dc998d" fill-rule="evenodd"/>
        <path id="Trazado_913659" data-name="Trazado 913659" d="M36.245,82.074A48.568,48.568,0,0,0,49.667,83.7c12.413-.21,25.472-5.052,31.939-16.815-7.4,13.453-21.791,13.992-30.338,6.58-.45-.392-.888-.808-1.3-1.241Z" transform="translate(51.407 94.86)" fill="#dc998d" fill-rule="evenodd"/>
        <path id="Trazado_913660" data-name="Trazado 913660" d="M0,154.746C100.539,74.1,99.985,74.081,99.985,74.078a.962.962,0,0,1,1.664.965s.38.326-101.649,82.17Z" transform="translate(0 104.389)" fill="#a16762" fill-rule="evenodd"/>
        <path id="Trazado_913661" data-name="Trazado 913661" d="M105.342,6.088H52.981A12,12,0,0,0,41.015,18.056V140.733A12,12,0,0,0,52.981,152.7h52.361a12,12,0,0,0,11.966-11.966V18.056A12,12,0,0,0,105.342,6.088" transform="translate(58.172 8.635)" fill="#fff" fill-rule="evenodd"/>
        <path id="Trazado_913662" data-name="Trazado 913662" d="M102.783,10.082h-48.7L42.451,17.458V137.268h58.381c6.413,0,10.965,1.076,10.965-5.76V21.339Z" transform="translate(60.209 14.299)" fill="#c6e9f3" fill-rule="evenodd"/>
        <path id="Trazado_913663" data-name="Trazado 913663" d="M96.239,10.135H54.083c-7.47,0-11.632-1.359-11.632,6.474V88.757C70.034,66.308,93.03,49.312,111.8,36.5V19.225c0-10.595-5.734-9.09-15.557-9.09" transform="translate(60.209 14.247)" fill="#73c8e2" fill-rule="evenodd"/>
        <path id="Trazado_913664" data-name="Trazado 913664" d="M98.727,7.4A.64.64,0,0,1,98.6,6.121c13.651-1.349,16.292,5.045,16.96,6.665l.087.2a12.7,12.7,0,0,1,.871,2.58,12.444,12.444,0,0,1,.3,2.709V140.949a12.641,12.641,0,0,1-12.609,12.609H51.845a12.478,12.478,0,0,1-5.33-1.192A12.7,12.7,0,0,1,42.162,149a.64.64,0,0,1,.984-.817,11.369,11.369,0,0,0,3.91,3.025,11.243,11.243,0,0,0,4.788,1.064h52.361a11.353,11.353,0,0,0,11.323-11.323V18.273a11.116,11.116,0,0,0-1.047-4.747l-.106-.252c-.595-1.441-2.943-7.136-15.649-5.879" transform="translate(59.591 8.418)" fill="#3c191e" fill-rule="evenodd"/>
        <path id="Trazado_913665" data-name="Trazado 913665" d="M54.581,7.287H71.427a2.175,2.175,0,0,1,0,4.351H54.581a2.175,2.175,0,0,1,0-4.351" transform="translate(74.33 10.335)" fill="#3c191e" fill-rule="evenodd"/>
        <path id="Trazado_913666" data-name="Trazado 913666" d="M100.4,41.418c7.743,11.615-14.159,17.721-21.716,18.328,0,0-8.034,25.605-17.071,38.911-9.441,13.9-20.969,16.287-27.184,10.716-6.3-5.649-7.146-19.487,5.19-37.808,9.294-13.8,23.027-26.6,32.11-30.4,5.415-2.261,25.472-4.549,28.672.249" transform="translate(42.465 54.737)" fill="#e7baa8" fill-rule="evenodd"/>
        <path id="Trazado_913667" data-name="Trazado 913667" d="M54.133,49.77a.642.642,0,0,1-1.27.186c0-.017-.837-5.768-4.97-8.273a.639.639,0,0,1,.663-1.093c4.655,2.82,5.574,9.161,5.577,9.18" transform="translate(67.493 57.439)" fill="#a16762" fill-rule="evenodd"/>
        <path id="Trazado_913668" data-name="Trazado 913668" d="M39.147,59.095a.641.641,0,1,1-.943-.868,102.808,102.808,0,0,1,11.5-10.8,46.252,46.252,0,0,1,10.307-6.474c3.2-1.337,11.385-2.682,18.311-2.621,5.146.044,9.659.885,11.139,3.108a9.515,9.515,0,0,1,1.717,4.532A7.456,7.456,0,0,1,89.8,50.844a14.585,14.585,0,0,1-4.034,3.794c-5.432,3.62-13.709,5.647-18.077,6.082C66.626,64.035,59.1,86.968,50.665,99.389a45.928,45.928,0,0,1-3.253,4.264,37.12,37.12,0,0,1-3.48,3.552.64.64,0,1,1-.849-.958,36.339,36.339,0,0,0,3.361-3.432,46.086,46.086,0,0,0,3.161-4.143C58.585,85.45,66.573,60,66.595,59.924l.133-.411.43-.034c4.1-.329,12.483-2.3,17.9-5.91a13.4,13.4,0,0,0,3.686-3.444A6.225,6.225,0,0,0,89.9,46.07a8.322,8.322,0,0,0-1.5-3.923l0,0c-1.2-1.806-5.32-2.493-10.082-2.534-6.769-.058-14.725,1.238-17.808,2.527a44.972,44.972,0,0,0-10,6.292A101.767,101.767,0,0,0,39.147,59.095" transform="translate(53.944 54.363)" fill="#a16762" fill-rule="evenodd"/>
        <path id="Trazado_913669" data-name="Trazado 913669" d="M62.2,39.162c1.591.568,3.6,2.6,3.255,6.2C56.9,47.51,53.381,44.137,53.436,41.834c.044-1.773,2.435-3.081,8.766-2.672" transform="translate(75.789 55.438)" fill="#eecfbd" fill-rule="evenodd"/>
      </g>
    </g>
  </g>
</svg>
