<svg id="engranajes" xmlns="http://www.w3.org/2000/svg" width="100" height="100" viewBox="0 0 100 100">
  <g id="Grupo_1113646" data-name="Grupo 1113646">
    <g id="Grupo_1113645" data-name="Grupo 1113645">
      <path id="Trazado_919192" data-name="Trazado 919192" d="M51.325,61.954a1.579,1.579,0,0,0-2.1-.749A25.142,25.142,0,0,1,45.228,62.7a1.578,1.578,0,0,0-1.123,1.211l-1.67,8.351A1.775,1.775,0,0,1,40.7,73.684H36.143a1.775,1.775,0,0,1-1.736-1.423l-1.67-8.351A1.579,1.579,0,0,0,31.614,62.7a25.088,25.088,0,0,1-5.545-2.3,1.579,1.579,0,0,0-1.651.062l-7.087,4.725a1.776,1.776,0,0,1-2.234-.221l-3.222-3.222a1.776,1.776,0,0,1-.221-2.234l4.725-7.087a1.578,1.578,0,0,0,.062-1.651,25.08,25.08,0,0,1-2.3-5.545A1.578,1.578,0,0,0,12.932,44.1L4.58,42.434A1.775,1.775,0,0,1,3.157,40.7V36.142A1.775,1.775,0,0,1,4.58,34.406l8.351-1.67a1.579,1.579,0,0,0,1.211-1.123,25.087,25.087,0,0,1,2.3-5.545,1.579,1.579,0,0,0-.062-1.651l-4.724-7.086a1.775,1.775,0,0,1,.221-2.234L15.1,11.875a1.776,1.776,0,0,1,2.234-.221l7.087,4.725a1.579,1.579,0,0,0,1.651.062,25.087,25.087,0,0,1,5.545-2.3,1.578,1.578,0,0,0,1.123-1.211l1.67-8.351a1.775,1.775,0,0,1,1.736-1.423H40.7A1.775,1.775,0,0,1,42.436,4.58l1.67,8.351a1.579,1.579,0,0,0,1.123,1.211,25.087,25.087,0,0,1,5.545,2.3,1.579,1.579,0,0,0,1.651-.062l7.087-4.725a1.776,1.776,0,0,1,2.234.221L64.967,15.1a1.776,1.776,0,0,1,.221,2.234l-4.725,7.087a1.578,1.578,0,0,0-.062,1.651,25.087,25.087,0,0,1,2.3,5.545,1.578,1.578,0,0,0,1.211,1.123l8.351,1.67a1.775,1.775,0,0,1,1.423,1.736V40.7a1.775,1.775,0,0,1-1.423,1.736l-8.351,1.67A1.579,1.579,0,0,0,62.7,45.229a25.131,25.131,0,0,1-1.539,4.089,1.579,1.579,0,1,0,2.847,1.366,28.319,28.319,0,0,0,1.454-3.667l7.42-1.484A4.942,4.942,0,0,0,76.842,40.7V36.143A4.942,4.942,0,0,0,72.88,31.31l-7.42-1.484a28.254,28.254,0,0,0-1.843-4.447l4.2-6.3a4.942,4.942,0,0,0-.616-6.219L63.978,9.642a4.942,4.942,0,0,0-6.219-.616l-6.3,4.2a28.272,28.272,0,0,0-4.447-1.843l-1.484-7.42A4.941,4.941,0,0,0,40.7,0H36.143A4.942,4.942,0,0,0,31.31,3.962l-1.484,7.42a28.254,28.254,0,0,0-4.447,1.843l-6.3-4.2a4.941,4.941,0,0,0-6.219.616L9.642,12.864a4.942,4.942,0,0,0-.616,6.219l4.2,6.3a28.265,28.265,0,0,0-1.843,4.447l-7.42,1.484A4.941,4.941,0,0,0,0,36.143V40.7a4.942,4.942,0,0,0,3.962,4.833l7.42,1.484a28.251,28.251,0,0,0,1.843,4.447l-4.2,6.3a4.942,4.942,0,0,0,.616,6.219L12.864,67.2a4.942,4.942,0,0,0,6.219.616l6.3-4.2a28.265,28.265,0,0,0,4.447,1.843l1.484,7.42a4.941,4.941,0,0,0,4.832,3.961H40.7a4.942,4.942,0,0,0,4.833-3.962l1.484-7.42a28.286,28.286,0,0,0,3.56-1.4A1.579,1.579,0,0,0,51.325,61.954Z" fill="#73c8e2"/>
      <path id="Trazado_919193" data-name="Trazado 919193" d="M157.386,132.366a1.578,1.578,0,0,0,2.125-.684,17.75,17.75,0,0,0-28.191-20.8,1.579,1.579,0,1,0,2.2,2.261,14.594,14.594,0,0,1,23.176,17.1A1.579,1.579,0,0,0,157.386,132.366Z" transform="translate(-105.289 -85.171)" fill="#73c8e2"/>
      <path id="Trazado_919194" data-name="Trazado 919194" d="M108.813,161.769a1.579,1.579,0,0,0-2.007.979,17.752,17.752,0,0,0,27.187,20.161,1.579,1.579,0,1,0-1.852-2.558,14.6,14.6,0,0,1-22.349-16.576A1.578,1.578,0,0,0,108.813,161.769Z" transform="translate(-85.172 -130.104)" fill="#73c8e2"/>
      <path id="Trazado_919195" data-name="Trazado 919195" d="M296.455,268.5l-4.566-.913a19.1,19.1,0,0,0-1-2.417l2.583-3.875a3.79,3.79,0,0,0-.472-4.77l-2.117-2.117a3.79,3.79,0,0,0-4.77-.472l-3.875,2.583a19.072,19.072,0,0,0-2.417-1l-.913-4.566a3.79,3.79,0,0,0-3.706-3.039h-2.994a3.79,3.79,0,0,0-3.706,3.039l-.913,4.566a19.125,19.125,0,0,0-2.417,1l-3.875-2.583a3.79,3.79,0,0,0-4.77.472l-2.117,2.117a3.79,3.79,0,0,0-.472,4.77l2.583,3.875a19.082,19.082,0,0,0-1.29,3.355,1.579,1.579,0,0,0,3.041.851,15.934,15.934,0,0,1,1.46-3.524,1.579,1.579,0,0,0-.062-1.651l-3.1-4.657a.624.624,0,0,1,.078-.785l2.117-2.117a.625.625,0,0,1,.785-.078l4.657,3.1a1.579,1.579,0,0,0,1.651.062,15.937,15.937,0,0,1,3.524-1.46,1.578,1.578,0,0,0,1.123-1.211l1.1-5.488a.624.624,0,0,1,.61-.5H275.2a.624.624,0,0,1,.61.5l1.1,5.488a1.579,1.579,0,0,0,1.123,1.211,15.933,15.933,0,0,1,3.524,1.46,1.579,1.579,0,0,0,1.651-.062l4.657-3.1a.624.624,0,0,1,.785.078l2.117,2.117a.624.624,0,0,1,.078.785l-3.1,4.657a1.578,1.578,0,0,0-.062,1.651,15.937,15.937,0,0,1,1.46,3.524,1.578,1.578,0,0,0,1.211,1.123l5.488,1.1a.624.624,0,0,1,.5.61V275.2a.624.624,0,0,1-.5.61l-5.488,1.1a1.579,1.579,0,0,0-1.211,1.123,15.931,15.931,0,0,1-1.46,3.524,1.579,1.579,0,0,0,.062,1.651l3.1,4.657a.624.624,0,0,1-.078.785l-2.117,2.117a.624.624,0,0,1-.785.078l-4.657-3.1a1.579,1.579,0,0,0-1.651-.062,15.936,15.936,0,0,1-3.524,1.46,1.578,1.578,0,0,0-1.123,1.211l-1.1,5.488a.624.624,0,0,1-.61.5h-2.994a.624.624,0,0,1-.61-.5l-1.1-5.488a1.579,1.579,0,0,0-1.123-1.211,15.933,15.933,0,0,1-3.524-1.46,1.579,1.579,0,0,0-1.651.062l-4.657,3.1a.624.624,0,0,1-.785-.078l-2.117-2.117a.624.624,0,0,1-.078-.785l3.1-4.657a1.578,1.578,0,0,0,.062-1.651,15.937,15.937,0,0,1-1.46-3.524,1.578,1.578,0,0,0-1.211-1.123l-5.488-1.1a.624.624,0,0,1-.5-.61v-2.994a.624.624,0,0,1,.5-.61l.336-.067a1.579,1.579,0,1,0-.62-3.1l-.336.067a3.79,3.79,0,0,0-3.038,3.707V275.2a3.79,3.79,0,0,0,3.039,3.706l4.566.913a19.135,19.135,0,0,0,1,2.417l-2.583,3.875a3.79,3.79,0,0,0,.472,4.77L256.527,293a3.79,3.79,0,0,0,4.77.472l3.875-2.583a19.071,19.071,0,0,0,2.417,1l.913,4.566a3.791,3.791,0,0,0,3.707,3.039H275.2a3.79,3.79,0,0,0,3.706-3.039l.913-4.566a19.092,19.092,0,0,0,2.417-1l3.875,2.583a3.79,3.79,0,0,0,4.77-.472L293,290.884a3.79,3.79,0,0,0,.472-4.77l-2.583-3.875a19.077,19.077,0,0,0,1-2.417l4.566-.913a3.79,3.79,0,0,0,3.038-3.706v-2.994A3.79,3.79,0,0,0,296.455,268.5Z" transform="translate(-199.494 -199.496)" fill="#73c8e2"/>
      <path id="Trazado_919196" data-name="Trazado 919196" d="M343.527,337.844a5.69,5.69,0,0,1,5.684,5.684,1.579,1.579,0,1,0,3.158,0,8.842,8.842,0,1,0-8.842,8.842,8.76,8.76,0,0,0,5.4-1.842,1.579,1.579,0,0,0-1.931-2.5,5.629,5.629,0,0,1-3.471,1.183,5.684,5.684,0,1,1,0-11.368Z" transform="translate(-269.317 -269.318)" fill="#73c8e2"/>
      <path id="Trazado_919197" data-name="Trazado 919197" d="M166.7,157.083a9.62,9.62,0,1,0-9.62,9.62A9.631,9.631,0,0,0,166.7,157.083Zm-16.082,0a6.462,6.462,0,1,1,6.462,6.462A6.47,6.47,0,0,1,150.621,157.083Z" transform="translate(-118.662 -118.662)" fill="#73c8e2"/>
    </g>
  </g>
</svg>
