<svg xmlns="http://www.w3.org/2000/svg" xmlns:xlink="http://www.w3.org/1999/xlink" width="295" height="401" viewBox="0 0 295 401">
  <defs>
    <clipPath id="clip-path">
      <rect id="Rectángulo_409753" data-name="Rectángulo 409753" width="295" height="401" rx="10" transform="translate(1125.051 2699)" fill="#f3f0ea"/>
    </clipPath>
    <clipPath id="clip-path-2">
      <rect id="Rectángulo_409752" data-name="Rectángulo 409752" width="386.673" height="351.989" fill="none"/>
    </clipPath>
  </defs>
  <g id="Enmascarar_grupo_1099014" data-name="Enmascarar grupo 1099014" transform="translate(-1125.051 -2699)" clip-path="url(#clip-path)">
    <rect id="Rectángulo_409751" data-name="Rectángulo 409751" width="295" height="401" rx="10" transform="translate(1125.051 2699)" fill="#f3f0ea"/>
    <g id="Grupo_1113654" data-name="Grupo 1113654" transform="translate(1077.378 2723.306)">
      <g id="Grupo_1113653" data-name="Grupo 1113653" clip-path="url(#clip-path-2)">
        <path id="Trazado_919217" data-name="Trazado 919217" d="M17.581,256.2C-4.056,223.7-5.889,179.062,13.009,144.892c4.473-8.088,10-15.616,13.679-24.094,10.027-23.109,5.289-50.6,15.446-73.65,7.571-17.184,22.942-30.159,40.2-37.553S118.671-.048,137.449,0a239.962,239.962,0,0,1,88.96,17.4c19.16,7.736,37.329,17.958,57,24.273,18.409,5.909,38.143,8.411,55.06,17.772,19.561,10.825,33.555,30.157,40.868,51.284s8.407,43.981,6.52,66.257c-2.559,30.231-10.984,60.927-30.237,84.375-21.378,26.036-54.189,40.63-87.379,46.4s-67.189,3.587-100.8,1.307c-13.281-.963-26.572-1.8-39.854-2.737-4.538-.319-8.634-1.645-13.074-2.235-5.073-.673-10.351-.063-15.472-.487C66.7,300.94,35.627,283.315,17.581,256.2" transform="translate(0 0)" fill="#f9f7f4"/>
        <path id="Trazado_919218" data-name="Trazado 919218" d="M31.408,239.773c-.886-.865-1.047-2.54-.035-3.253,1.254-.884,3.627-.051,4.113-1.506-1.572-1.423-3.99-1.162-6.022-1.77-2.885-.865-4.9-3.492-6.176-6.22-1.291-2.76-2.032-5.94-1.17-8.863s3.692-5.393,6.723-5.072c2.894.307,5,2.864,6.448,5.386s2.71,5.343,5.135,6.952c1.441-1.891-1-4.942.371-6.888a2.759,2.759,0,0,1,3.183-.766,6.191,6.191,0,0,1,2.642,2.258c2.767,3.722,4.638,9.778,2.908,14.338-1.3,3.417-5.465,4.768-8.64,5.763-2.569.805-7.277,1.789-9.479-.36" transform="translate(-3.032 -29.709)" fill="#7ccea6"/>
        <path id="Trazado_919219" data-name="Trazado 919219" d="M110,273.423a.489.489,0,0,1-.567-.256,67.207,67.207,0,0,0-50.344-36.2c-1.572-.218-3.184-.382-4.743-.541a66.9,66.9,0,0,1-9.591-1.451c-3.895-.978-9.162-3.132-12.138-7.831a.49.49,0,0,1,.827-.525c2.8,4.424,7.828,6.469,11.551,7.406a66.415,66.415,0,0,0,9.449,1.426c1.569.158,3.191.324,4.78.543a68.21,68.21,0,0,1,51.088,36.736.49.49,0,0,1-.221.657.511.511,0,0,1-.09.034" transform="translate(-4.538 -31.569)" fill="#211919"/>
        <path id="Trazado_919220" data-name="Trazado 919220" d="M56.75,190.46a3.712,3.712,0,0,0-2.613-.228,1.631,1.631,0,0,0-1,2.142c.43.77,1.58.916,1.977,1.7a2.084,2.084,0,0,1-2.492.5,13.49,13.49,0,0,1-2.293-1.514,7.569,7.569,0,0,0-9.063.709,4.352,4.352,0,0,0-1.512,2.719,2.435,2.435,0,0,0,1.505,2.535,15.179,15.179,0,0,0,1.567.213c.517.1,1.06.465,1.082.994.064,1.623-3.2,1.87-.843,3.709a7.216,7.216,0,0,0,8.373.2,4.8,4.8,0,0,1,1.869-1.059c.714-.115,1.585.475,1.4,1.175-.156.589-.9.8-1.226,1.317a1.379,1.379,0,0,0,.26,1.642,2.622,2.622,0,0,0,1.62.682c2.424.262,4.647-1.272,6.526-2.825s3.781-3.907,2.576-6.5c-.415-.891-1.136-1.627-1.622-2.482a13.825,13.825,0,0,0-2.387-3.256,11.225,11.225,0,0,0-3.7-2.382" transform="translate(-5.542 -26.504)" fill="#7ccea6"/>
        <path id="Trazado_919221" data-name="Trazado 919221" d="M111.846,245.115a.491.491,0,0,1-.534-.2c-6.169-9.092-12.793-18.035-19.69-26.579-3.4-4.217-6.815-8.246-11.149-11.19-8.124-5.52-18.3-6.5-28.023-7.038a.491.491,0,0,1-.463-.516.484.484,0,0,1,.516-.462c9.863.54,20.19,1.543,28.521,7.2,4.444,3.021,7.909,7.11,11.36,11.387,6.915,8.564,13.556,17.528,19.739,26.642a.491.491,0,0,1-.13.682.46.46,0,0,1-.148.068" transform="translate(-7.249 -27.767)" fill="#211919"/>
        <path id="Trazado_919222" data-name="Trazado 919222" d="M71.156,155.257c-2.342-4.249-2.8-9.754-.251-13.886a5.291,5.291,0,0,1,3.409-2.682c1.473-.237,3.185.868,3.116,2.36-.047,1-.543,2.476.442,2.65.519.091.936-.4,1.224-.846,2.063-3.175,3.879-6.636,6.838-9s7.533-3.266,10.458-.861a8.891,8.891,0,0,1,2.382,3.428c.972,2.261,1.4,4.954.256,7.132-2.189,4.161-8.6,4.18-11.315,8.017-.844,1.192-.816,3.405.637,3.562.307.034.617-.046.925-.02a1.824,1.824,0,0,1,1.475,1.858,4.279,4.279,0,0,1-.938,2.385,14.388,14.388,0,0,1-3.674,3.627,8.433,8.433,0,0,1-4.046,1.781c-1.213.03-2.339-.9-3.287-1.54A28.589,28.589,0,0,1,74.72,159.9a20.512,20.512,0,0,1-3.564-4.645" transform="translate(-9.648 -18.347)" fill="#7ccea6"/>
        <path id="Trazado_919223" data-name="Trazado 919223" d="M122.083,245.806a.492.492,0,0,1-.562-.245c-12.184-23.226-23.973-47.09-35.034-70.929-2.034-4.383-4.342-9.349-4.635-14.679-.324-5.891,2.208-11.222,6.452-13.576a.473.473,0,0,1,.666.189.487.487,0,0,1-.189.666c-3.918,2.175-6.255,7.15-5.952,12.667.286,5.14,2.549,10.017,4.546,14.319,11.058,23.826,22.837,47.677,35.014,70.886a.492.492,0,0,1-.207.663.536.536,0,0,1-.1.039" transform="translate(-11.409 -20.401)" fill="#211919"/>
        <path id="Trazado_919224" data-name="Trazado 919224" d="M100.741,67.5a182.6,182.6,0,0,1-31.381-.405l.309.177c-.787-1.08,1.768-1.766,2.4-1.918a19.325,19.325,0,0,1,3.429-.442,46.862,46.862,0,0,0,6.405-.475,9.487,9.487,0,0,0,5.333-2.941c1.614-1.77,2.847-3.823,4.574-5.5,3.213-3.126,8.473-6.545,12.992-4.041a4.661,4.661,0,0,1,2.566,4.987c-.348,1.649-2.236,3.932-4.126,2.781-1.374-.836.358-2.356,1.024-3.034q1.357-1.382,2.815-2.658a33.189,33.189,0,0,1,6.131-4.464,8.781,8.781,0,0,1,6.975-.941,7.665,7.665,0,0,1,4.524,4.245,7.214,7.214,0,0,1-.388,6.057,7.54,7.54,0,0,1-2.021,2.436c-.8.626-2.333,1.614-3.238.681a2.213,2.213,0,0,1-.011-2.76,8.921,8.921,0,0,1,2.871-2.218,16.251,16.251,0,0,1,7.034-2.733,6.506,6.506,0,0,1,5.787,2.571,4.13,4.13,0,0,1,.8,2.995,16.142,16.142,0,0,1-1.11,3.048c-.657,1.762-.343,3.506,1.571,4.211a15.084,15.084,0,0,0,3.336.607q1.993.248,4,.357c1.383.075,2.768.1,4.152.077a.358.358,0,0,0,0-.715c-1.939.029-3.878-.03-5.811-.191a25.5,25.5,0,0,1-5.2-.729,2.176,2.176,0,0,1-1.654-1.5,3.905,3.905,0,0,1,.417-2.231,8.181,8.181,0,0,0,1.025-4c-.3-2.536-2.638-4.472-5.008-5.049-3.064-.745-6.224.659-8.831,2.152-1.99,1.139-5.524,2.963-4.359,5.836,1.155,2.851,4.6.5,5.862-.995a8.219,8.219,0,0,0,1.756-7.242,8.316,8.316,0,0,0-5.025-5.5c-2.9-1.128-5.99-.2-8.558,1.331a41.919,41.919,0,0,0-7.977,6.446c-.837.836-2.341,2-2.089,3.366a2.147,2.147,0,0,0,2.269,1.516c2.343-.036,3.853-2.5,3.876-4.629.028-2.592-2.052-4.583-4.4-5.323-2.955-.932-6.07.119-8.6,1.694a25.525,25.525,0,0,0-6.917,6.632,12.681,12.681,0,0,1-3.543,3.6,10.733,10.733,0,0,1-4.309,1.273c-2.978.324-6.044.022-8.958.833-1.006.281-2.442.787-2.632,2a.959.959,0,0,0,.439,1.027,4.516,4.516,0,0,0,1.222.122q.775.072,1.551.139a181.083,181.083,0,0,0,23.051.487q2.828-.121,5.652-.33c.456-.034.46-.749,0-.715" transform="translate(-9.595 -6.628)" fill="#442a3a"/>
        <path id="Trazado_919225" data-name="Trazado 919225" d="M380.288,183.649l-10.516.613-5.354.312a31.7,31.7,0,0,1-4.783.085c-2.78-.259-6.672-2.408-5.462-5.8.771-2.163,3.469-2.924,5.44-3.5a26.608,26.608,0,0,0,6.455-2.465,33.325,33.325,0,0,0,5.643-4.527c1.814-1.724,3.564-3.521,5.5-5.111a22.811,22.811,0,0,1,3.19-2.223c1.165-.662,2.874-1.687,4.243-1.237,1.471.484,2.107,2.484,2.456,3.813a7.49,7.49,0,0,1-.17,4.956c-.55,1.216-1.928,2.757-3.4,2.726-1.424-.029-.56-2.567-.209-3.313a28.794,28.794,0,0,1,4.984-7.461c2.111-2.209,5.074-3.916,8.223-3.649a7.044,7.044,0,0,1,3.725,12.55c-.592.484-1.947,1.478-2.706.873a2.394,2.394,0,0,1-.515-1.943,8.4,8.4,0,0,1,1.363-3.9,9.106,9.106,0,0,1,2.867-2.815c1.136-.7,2.889-1.5,4.229-.993,2.011.755,1.307,4.09,1.346,5.722.046,1.936.559,3.891,2.4,4.854,2.036,1.063,4.522.758,6.734.922a9.483,9.483,0,0,1,6.905,3.756,9.256,9.256,0,0,1,1.643,3.594c.136.614,1.077.354.941-.259a10.479,10.479,0,0,0-5.322-6.921c-2.8-1.48-5.73-.912-8.724-1.42a3.851,3.851,0,0,1-3.27-2.313,11.055,11.055,0,0,1-.317-3.981c.036-2.1-.182-4.806-2.823-5.053-2.95-.276-5.948,2.08-7.455,4.416-1.058,1.639-2.828,6.158-.219,7.348,1.273.581,2.786-.489,3.717-1.285a8.373,8.373,0,0,0,2.46-3.7,7.9,7.9,0,0,0-1.928-8.033A8.3,8.3,0,0,0,393,156.325c-3.369,1.077-5.862,3.674-7.792,6.535a38.294,38.294,0,0,0-2.678,4.5,4.975,4.975,0,0,0-.587,3.756,1.984,1.984,0,0,0,.9,1.132,3.183,3.183,0,0,0,2-.315A5.805,5.805,0,0,0,387.8,169a8.113,8.113,0,0,0,.4-4.976,8.582,8.582,0,0,0-1.978-4.34c-2.288-2.28-5.919.112-8,1.578-4.919,3.463-8.45,8.788-13.92,11.485-2.571,1.268-5.5,1.55-8.072,2.811-2.277,1.116-3.916,3.383-2.949,5.984,1.2,3.24,4.806,4.166,7.917,4.154,4.189-.016,8.409-.447,12.591-.69l6.5-.379c.625-.036.629-1.012,0-.976" transform="translate(-49.222 -21.736)" fill="#442a3a"/>
        <path id="Trazado_919226" data-name="Trazado 919226" d="M59.947,345.651c-4.058,2.207-9.243,1.129-13.163-.9-1.618-.839-4.143-2.922-2.4-4.861,1.565-1.743,4.258-1.031,6.272-.929,8.755.443,9.252-10.877,14.306-15.457a6.506,6.506,0,0,1,5.515-1.727,6.158,6.158,0,0,1,4.69,3.755,6.252,6.252,0,0,1-.858,6.09,2.708,2.708,0,0,1-2.648,1.143c-1.642-.417-1.243-2.089-.965-3.344a23.695,23.695,0,0,1,4.1-8.995,6,6,0,0,1,2.686-2.37c2.172-.719,4.514.708,5.954,2.243a10.359,10.359,0,0,1,2.546,5.051,10.035,10.035,0,0,1-.854,6.434c-.914,1.864-2.323,4.132-.989,6.156.575.873,1.516,1.452,2.034,2.364a4,4,0,0,1-.046,3.664c-1.14,2.368-3.848,3.273-6.247,3.755-.523.1-.3.906.221.8,2.313-.466,4.806-1.311,6.245-3.31a4.928,4.928,0,0,0,.247-5.769c-.766-1.019-2.048-1.739-2.17-3.126-.12-1.37.707-2.691,1.3-3.866a11.066,11.066,0,0,0,1.219-6.31c-.463-4.078-3.458-8.715-7.905-9.078-2.555-.208-4.126,1.707-5.443,3.622a24.372,24.372,0,0,0-3.354,7.155c-.517,1.829-1.476,4.721.9,5.621,2.11.8,3.965-1.055,4.726-2.854a7.039,7.039,0,0,0-5.513-9.688c-4.7-.645-7.7,3.421-9.547,7.143-1.864,3.749-3.745,9.255-8.523,10.01-2.5.4-5.068-.8-7.451.454a3.139,3.139,0,0,0-1.22,4.674c1.3,1.906,3.756,2.845,5.86,3.539a16.13,16.13,0,0,0,7.384.819,10.59,10.59,0,0,0,3.513-1.188c.47-.255.051-.972-.419-.717" transform="translate(-5.998 -44.209)" fill="#442a3a"/>
        <path id="Trazado_919227" data-name="Trazado 919227" d="M271.242,343.494H148.767a34.037,34.037,0,0,1-34.037-34.037V118.094a34.037,34.037,0,0,1,34.037-34.037H271.242a34.037,34.037,0,0,1,34.037,34.037V309.458a34.037,34.037,0,0,1-34.037,34.037" transform="translate(-15.998 -11.721)" fill="#ebf9ff"/>
        <path id="Trazado_919228" data-name="Trazado 919228" d="M290.475,344.651H129.088a15.98,15.98,0,0,1-15.962-15.962V98.415a15.98,15.98,0,0,1,15.962-15.962H290.475a15.98,15.98,0,0,1,15.962,15.962V328.689a15.98,15.98,0,0,1-15.962,15.962M129.088,85.214a13.215,13.215,0,0,0-13.2,13.2V328.689a13.215,13.215,0,0,0,13.2,13.2H290.475a13.216,13.216,0,0,0,13.2-13.2V98.415a13.216,13.216,0,0,0-13.2-13.2Z" transform="translate(-15.774 -11.497)" fill="#211919"/>
        <path id="Trazado_919229" data-name="Trazado 919229" d="M246.531,99.649H190.949a13.574,13.574,0,0,1-13.573-13.574V81.242a13.574,13.574,0,0,1,13.573-13.574h55.582A13.573,13.573,0,0,1,260.1,81.242v4.834a13.573,13.573,0,0,1-13.573,13.574" transform="translate(-24.733 -9.436)" fill="#ffca5f"/>
        <path id="Trazado_919230" data-name="Trazado 919230" d="M239.781,71.649H202.337a8.336,8.336,0,0,1-8.326-8.326V51.782a8.336,8.336,0,0,1,8.326-8.326h37.444a8.335,8.335,0,0,1,8.325,8.326V63.323a8.335,8.335,0,0,1-8.325,8.326M202.337,47.6a4.189,4.189,0,0,0-4.184,4.185V63.323a4.189,4.189,0,0,0,4.184,4.185h37.444a4.189,4.189,0,0,0,4.184-4.185V51.782a4.189,4.189,0,0,0-4.184-4.185Z" transform="translate(-27.053 -6.059)" fill="#ffca5f"/>
        <path id="Trazado_919231" data-name="Trazado 919231" d="M191.944,157.635a20.312,20.312,0,1,1-20.313-20.313,20.313,20.313,0,0,1,20.313,20.313" transform="translate(-21.1 -19.148)" fill="#fff"/>
        <path id="Trazado_919232" data-name="Trazado 919232" d="M191.944,214.089a20.312,20.312,0,1,1-20.313-20.313,20.313,20.313,0,0,1,20.313,20.313" transform="translate(-21.1 -27.02)" fill="#fff"/>
        <path id="Trazado_919233" data-name="Trazado 919233" d="M191.944,267.268a20.312,20.312,0,1,1-20.313-20.313,20.313,20.313,0,0,1,20.313,20.313" transform="translate(-21.1 -34.435)" fill="#fff"/>
        <path id="Trazado_919234" data-name="Trazado 919234" d="M191.944,323.316A20.312,20.312,0,1,1,171.632,303a20.313,20.313,0,0,1,20.313,20.313" transform="translate(-21.1 -42.251)" fill="#fff"/>
        <path id="Trazado_919235" data-name="Trazado 919235" d="M172.291,173.8a16.586,16.586,0,1,1,16.586-16.586A16.6,16.6,0,0,1,172.291,173.8m0-32.252a15.666,15.666,0,1,0,15.666,15.666,15.684,15.684,0,0,0-15.666-15.666" transform="translate(-21.711 -19.609)" fill="#422038"/>
        <path id="Trazado_919236" data-name="Trazado 919236" d="M173.051,163.373a1.5,1.5,0,0,1-.984-.367l-10.614-9.184a.46.46,0,1,1,.6-.7l10.614,9.184a.581.581,0,0,0,.775-.011l20.169-18.446a.46.46,0,0,1,.62.679l-20.168,18.447a1.5,1.5,0,0,1-1.015.393" transform="translate(-22.491 -20.042)" fill="#422038"/>
        <path id="Trazado_919237" data-name="Trazado 919237" d="M172.291,229.85a16.586,16.586,0,1,1,16.586-16.586,16.6,16.6,0,0,1-16.586,16.586m0-32.252a15.666,15.666,0,1,0,15.666,15.666A15.684,15.684,0,0,0,172.291,197.6" transform="translate(-21.711 -27.425)" fill="#422038"/>
        <path id="Trazado_919238" data-name="Trazado 919238" d="M181.554,224.141a.461.461,0,0,1-.318-.128L165.364,208.8a.46.46,0,1,1,.637-.664l15.871,15.215a.46.46,0,0,1-.318.793" transform="translate(-23.038 -29.004)" fill="#422038"/>
        <path id="Trazado_919239" data-name="Trazado 919239" d="M165.682,224.141a.46.46,0,0,1-.318-.793l15.871-15.215a.46.46,0,1,1,.637.664L166,224.012a.461.461,0,0,1-.318.128" transform="translate(-23.039 -29.004)" fill="#422038"/>
        <path id="Trazado_919240" data-name="Trazado 919240" d="M172.291,284.458a16.586,16.586,0,1,1,16.586-16.586,16.6,16.6,0,0,1-16.586,16.586m0-32.252a15.666,15.666,0,1,0,15.666,15.666,15.684,15.684,0,0,0-15.666-15.666" transform="translate(-21.711 -35.039)" fill="#422038"/>
        <path id="Trazado_919241" data-name="Trazado 919241" d="M173.051,274.028a1.5,1.5,0,0,1-.984-.367l-10.614-9.183a.46.46,0,0,1,.6-.7l10.614,9.183a.582.582,0,0,0,.775-.011l20.169-18.446a.46.46,0,0,1,.62.679l-20.168,18.447a1.5,1.5,0,0,1-1.015.393" transform="translate(-22.491 -35.472)" fill="#422038"/>
        <path id="Trazado_919242" data-name="Trazado 919242" d="M172.291,340.506a16.586,16.586,0,1,1,16.586-16.586,16.6,16.6,0,0,1-16.586,16.586m0-32.252a15.666,15.666,0,1,0,15.666,15.666,15.684,15.684,0,0,0-15.666-15.666" transform="translate(-21.711 -42.855)" fill="#422038"/>
        <path id="Trazado_919243" data-name="Trazado 919243" d="M181.554,334.8a.461.461,0,0,1-.318-.128l-15.871-15.215a.46.46,0,1,1,.637-.663L181.872,334a.46.46,0,0,1-.318.793" transform="translate(-23.038 -44.434)" fill="#422038"/>
        <path id="Trazado_919244" data-name="Trazado 919244" d="M165.682,334.8a.46.46,0,0,1-.318-.793l15.871-15.214a.46.46,0,1,1,.637.663L166,334.667a.461.461,0,0,1-.318.128" transform="translate(-23.039 -44.434)" fill="#422038"/>
        <path id="Trazado_919245" data-name="Trazado 919245" d="M236.913,156.226H209.449a.46.46,0,0,1,0-.92h27.465a.46.46,0,1,1,0,.92" transform="translate(-29.141 -21.656)" fill="#422038"/>
        <path id="Trazado_919246" data-name="Trazado 919246" d="M280.784,164.353H209.449a.46.46,0,1,1,0-.92h71.334a.46.46,0,1,1,0,.92" transform="translate(-29.141 -22.789)" fill="#422038"/>
        <path id="Trazado_919247" data-name="Trazado 919247" d="M236.913,213.7H209.449a.46.46,0,0,1,0-.92h27.465a.46.46,0,1,1,0,.92" transform="translate(-29.141 -29.67)" fill="#422038"/>
        <path id="Trazado_919248" data-name="Trazado 919248" d="M280.784,221.829H209.449a.46.46,0,1,1,0-.92h71.334a.46.46,0,1,1,0,.92" transform="translate(-29.141 -30.803)" fill="#422038"/>
        <path id="Trazado_919249" data-name="Trazado 919249" d="M236.913,266.882H209.449a.46.46,0,0,1,0-.92h27.465a.46.46,0,1,1,0,.92" transform="translate(-29.141 -37.086)" fill="#422038"/>
        <path id="Trazado_919250" data-name="Trazado 919250" d="M280.784,275.008H209.449a.46.46,0,1,1,0-.92h71.334a.46.46,0,1,1,0,.92" transform="translate(-29.141 -38.219)" fill="#422038"/>
        <path id="Trazado_919251" data-name="Trazado 919251" d="M236.913,324.358H209.449a.46.46,0,0,1,0-.92h27.465a.46.46,0,1,1,0,.92" transform="translate(-29.141 -45.1)" fill="#422038"/>
        <path id="Trazado_919252" data-name="Trazado 919252" d="M280.784,332.485H209.449a.46.46,0,1,1,0-.92h71.334a.46.46,0,1,1,0,.92" transform="translate(-29.141 -46.233)" fill="#422038"/>
        <path id="Trazado_919253" data-name="Trazado 919253" d="M302.248,199.605c-7.156.159-14.168,1.926-21.108,3.683l-29.264,7.41c-3.625.917-7.454,1.952-10.027,4.665a6.661,6.661,0,0,0-1.823,3.337c-.663,3.747,2.945,6.8,6.315,8.564,16.659,8.74,36.707,7.962,54.374,14.426,9.661,3.535,18.427,9.173,27.993,12.957,3.418,1.352,7.621,2.361,10.508.087,1.945-1.532,2.677-4.16,2.787-6.633.235-5.255-1.782-10.242-3.716-15.021a72.87,72.87,0,0,1-4.157-13.722,18.239,18.239,0,0,0-4.728-9.009,30.8,30.8,0,0,0-11.494-7.9,39.379,39.379,0,0,0-14.027-2.845q-.817-.015-1.633,0" transform="translate(-33.458 -27.832)" fill="#ed6969"/>
        <path id="Trazado_919254" data-name="Trazado 919254" d="M371.391,291.61c-6.255-8.693-13.832-16.353-20.336-24.862s-12.032-18.2-13.235-28.839c-.323-2.855.194-6.518,2.946-7.347,1.793-.54,3.706.466,5.57.277,1.375-.139,2.746-.923,4.065-.511a4.624,4.624,0,0,1,2.138,1.867c11.564,15.667,16.107,35.274,20.379,54.273Z" transform="translate(-47.094 -32.1)" fill="#f9acac"/>
        <path id="Trazado_919255" data-name="Trazado 919255" d="M379.517,351.846c-6.334-27.006-12.679-54.052-21.283-80.422-2.694-8.255-5.733-16.66-11.456-23.191-11.64-13.285-31.091-15.65-48.693-17.123-7.211-.6-14.1.49-21.307-.114-3.756,2.9-7.593,5.895-10.118,9.916s-2.9,10.872-.647,15.052c-6.149,6.021-4.724,19.859,1.889,25.367,0,2.317.779,6.335.45,8.628-1.7,11.893,9.476,26.279,21.391,27.828a56.773,56.773,0,0,0,18.683,24.807c3.629,9.209,8.032,18.147,11.661,27.356,12.282-2.738,28.206-2.062,40.487-4.8,6.219-1.386,12.846-3,17.161-7.689,1.24-1.347.779-7.145,1.783-5.614" transform="translate(-36.546 -32.2)" fill="#f9acac"/>
        <path id="Trazado_919256" data-name="Trazado 919256" d="M389.169,220.4h0a9.845,9.845,0,0,1-8.905,10.7l-3.27.3-1.8-19.606,3.27-.3a9.844,9.844,0,0,1,10.7,8.905" transform="translate(-52.317 -29.485)" fill="#ed6b48"/>
        <path id="Trazado_919257" data-name="Trazado 919257" d="M375.985,211.8l1.713,18.717a2.087,2.087,0,0,1-1.887,2.268l-6.8.622a2.085,2.085,0,0,1-2.268-1.887L365.028,212.8a2.087,2.087,0,0,1,1.888-2.268l6.8-.623a2.087,2.087,0,0,1,2.268,1.887" transform="translate(-50.898 -29.269)" fill="#ffca5f"/>
        <path id="Trazado_919258" data-name="Trazado 919258" d="M232.405,245.817,213.928,237.4l16.682-11.191,9.114,3.261-1.87,13.1Z" transform="translate(-29.83 -31.543)" fill="#ffe9d2"/>
        <path id="Trazado_919259" data-name="Trazado 919259" d="M235.952,229.007a6.558,6.558,0,0,1-1.821,5.143,6.523,6.523,0,0,1,.977,9.8L348.42,232.391l-1.8-19.606L233.312,224.34a6.553,6.553,0,0,1,2.64,4.668" transform="translate(-32.533 -29.671)" fill="#6589d1"/>
        <path id="Trazado_919260" data-name="Trazado 919260" d="M213.928,238.551l7.537,2.936-.645-7.034Z" transform="translate(-29.83 -32.692)" fill="#422038"/>
        <path id="Trazado_919261" data-name="Trazado 919261" d="M232.33,248.016a.454.454,0,0,1-.19-.041l-18.477-8.415a.46.46,0,0,1,.381-.837l18.477,8.415a.46.46,0,0,1-.191.879" transform="translate(-29.755 -33.282)" fill="#422038"/>
        <path id="Trazado_919262" data-name="Trazado 919262" d="M234.189,237.584a.46.46,0,0,1-.041-.918l27.815-2.547a.46.46,0,0,1,.083.917l-27.815,2.547-.042,0" transform="translate(-32.591 -32.645)" fill="#422038"/>
        <path id="Trazado_919263" data-name="Trazado 919263" d="M274.389,232.955a.46.46,0,0,1-.048-.917l78.8-8.394a.46.46,0,0,1,.1.915l-78.8,8.394-.049,0" transform="translate(-38.197 -31.184)" fill="#422038"/>
        <path id="Trazado_919264" data-name="Trazado 919264" d="M298.377,305.764a18.292,18.292,0,0,1-3.568-.417,46.222,46.222,0,0,1-34.381-31.252.69.69,0,1,1,1.322-.4,44.809,44.809,0,0,0,33.329,30.3,12.1,12.1,0,0,0,5.385.135c2.971-.8,5.294-3.821,5.648-7.344.382-3.808-1.342-7.32-2.856-9.6a.69.69,0,0,1,1.15-.764c1.639,2.463,3.5,6.284,3.08,10.5-.41,4.082-3.15,7.593-6.662,8.539a9.368,9.368,0,0,1-2.446.3" transform="translate(-36.31 -38.096)" fill="#a0180a"/>
        <path id="Trazado_919265" data-name="Trazado 919265" d="M293.7,327.2a17.444,17.444,0,0,1-5.951-1.121,29.948,29.948,0,0,1-19.03-29.172.69.69,0,1,1,1.378.08c-.677,11.737,7.119,23.689,18.135,27.8,3.741,1.4,9.033,1.831,11.636-1.534a7.97,7.97,0,0,0,1.4-3.219,12.471,12.471,0,0,0-3.365-11.287.69.69,0,0,1,.969-.984,13.885,13.885,0,0,1,3.745,12.564,9.351,9.351,0,0,1-1.655,3.77,8.8,8.8,0,0,1-7.261,3.1" transform="translate(-37.464 -41.31)" fill="#a0180a"/>
        <path id="Trazado_919266" data-name="Trazado 919266" d="M335.108,252.386c-4.473-11.881,11.931-2.513,5.45-13.429-3.979-6.7-31.2-34.076-38.057-37.779a32.365,32.365,0,0,0-9.382-3.074,63.622,63.622,0,0,0-21.821-.34c-6.564,1.04-13.381,3.405-17.379,8.716-1.494,1.984-2.547,4.512-2,6.934.852,3.769,4.971,5.654,8.557,7.094q9.533,3.832,18.656,8.594a37.36,37.36,0,0,1,8.152,5.293c6.131,5.622,8.264,14.3,12.813,21.263Z" transform="translate(-35.107 -27.467)" fill="#f9acac"/>
        <path id="Trazado_919267" data-name="Trazado 919267" d="M304.276,282.764a20.712,20.712,0,0,1-8.6-2.329,104.99,104.99,0,0,1-23.115-14.92c-2.879-2.447-5.787-5.2-7.553-8.745-1.963-3.938-2.02-8.364-.147-11.55a.69.69,0,0,1,1.19.7c-1.638,2.789-1.565,6.711.192,10.236,1.656,3.322,4.445,5.956,7.212,8.309a103.578,103.578,0,0,0,22.811,14.723c5.6,2.65,9.805,2.905,12.49.76a8.481,8.481,0,0,0,2.762-6.775c-.01-4.939-2.634-9.442-5.2-13.2a89.145,89.145,0,0,0-13.965-15.964.69.69,0,1,1,.923-1.026,90.551,90.551,0,0,1,14.183,16.21c2.527,3.7,5.428,8.629,5.44,13.973a9.839,9.839,0,0,1-3.28,7.856,8.309,8.309,0,0,1-5.347,1.739" transform="translate(-36.742 -33.857)" fill="#a0180a"/>
        <path id="Trazado_919268" data-name="Trazado 919268" d="M348.408,336.8a.69.69,0,0,1-.676-.558c-.9-4.606-6.2-6.8-10.474-7.281-1.6-.179-3.268-.225-4.881-.268-3.228-.088-6.566-.177-9.677-1.338-7.538-2.813-11.476-10.864-14.333-18.368a.69.69,0,0,1,1.29-.491c2.747,7.216,6.5,14.945,13.525,17.566,2.9,1.081,5.973,1.163,9.231,1.251,1.642.045,3.339.09,5,.277,4.736.533,10.634,3.048,11.674,8.387a.69.69,0,0,1-.545.81.707.707,0,0,1-.133.013" transform="translate(-42.992 -42.955)" fill="#a0180a"/>
        <path id="Trazado_919269" data-name="Trazado 919269" d="M294.367,241.968a.686.686,0,0,1-.427-.148c-6.73-5.309-19.857-14.871-32.151-19.272l-.182-.065c-3.775-1.35-8.053-2.88-9.917-6.629a8.294,8.294,0,0,1,5.552-11.337.69.69,0,1,1,.272,1.354,6.92,6.92,0,0,0-4.589,9.368c1.616,3.251,5.617,4.682,9.146,5.945l.183.065c12.478,4.466,25.744,14.127,32.54,19.487a.69.69,0,0,1-.428,1.232" transform="translate(-34.994 -28.516)" fill="#a0180a"/>
        <path id="Trazado_919270" data-name="Trazado 919270" d="M356.246,247.616a.686.686,0,0,1-.516-.232c-11.766-13.268-24.2-26.244-36.941-38.569a.69.69,0,1,1,.96-.992c12.771,12.349,25.225,25.35,37.014,38.645a.69.69,0,0,1-.516,1.148" transform="translate(-44.422 -28.952)" fill="#a0180a"/>
        <path id="Trazado_919271" data-name="Trazado 919271" d="M295.936,280.776a.691.691,0,0,1-.675-.548c-.957-4.543,2.2-9.536,7.028-11.13,4.158-1.373,9.12-.381,13.272,2.652a.69.69,0,1,1-.814,1.114c-3.737-2.729-8.344-3.672-12.025-2.455-4.115,1.357-6.913,5.724-6.11,9.534a.691.691,0,0,1-.533.818.748.748,0,0,1-.144.015" transform="translate(-41.147 -37.438)" fill="#a0180a"/>
        <path id="Trazado_919272" data-name="Trazado 919272" d="M262.566,215.342q-.358,0-.719-.015a32.6,32.6,0,0,1-9.557-2.255.69.69,0,1,1,.467-1.3,31.423,31.423,0,0,0,9.146,2.174,11.828,11.828,0,0,0,8.486-2.651,9.309,9.309,0,0,0,.222-13.062.69.69,0,0,1,.955-1,10.684,10.684,0,0,1-.256,15.087,12.959,12.959,0,0,1-8.744,3.017" transform="translate(-35.115 -27.476)" fill="#a0180a"/>
        <path id="Trazado_919273" data-name="Trazado 919273" d="M286.456,303.174a.691.691,0,0,1-.642-.944c1.406-3.563,3.163-7.109,6.472-8.921a11.871,11.871,0,0,1,9.166-.565,34.108,34.108,0,0,1,8.059,4.089.69.69,0,0,1-.732,1.17,33.086,33.086,0,0,0-7.727-3.939c-1.749-.528-5.128-1.174-8.1.454-2.923,1.6-4.539,4.9-5.851,8.217a.69.69,0,0,1-.642.437" transform="translate(-39.847 -40.73)" fill="#a0180a"/>
        <path id="Trazado_919274" data-name="Trazado 919274" d="M286.268,326.362a.69.69,0,0,1-.689-.669c-.124-4.039,3.482-7.222,7.039-7.967,3.108-.651,6.691.033,10.649,2.033a.69.69,0,1,1-.623,1.232c-3.67-1.855-6.949-2.5-9.742-1.914-3,.628-6.045,3.259-5.943,6.573a.689.689,0,0,1-.669.711h-.022" transform="translate(-39.821 -44.27)" fill="#a0180a"/>
        <path id="Trazado_919275" data-name="Trazado 919275" d="M412.91,376.375a99.132,99.132,0,0,0-14.485-26.748c-2.437-3.2-5.49-6.485-9.5-6.859-2.742-.256-5.391.922-7.889,2.078q-26,12.036-51.609,24.9c-3.138,1.576-6.353,3.224-8.667,5.865-5.543,6.328-4.213,15.924-2.555,24.171,31.419-1.733,66.189-10.094,94.7-23.4" transform="translate(-44.17 -47.791)" fill="#2f9342"/>
        <path id="Trazado_919276" data-name="Trazado 919276" d="M335.374,381.108a.46.46,0,0,1-.172-.887,243.58,243.58,0,0,0,43.668-23.029.46.46,0,1,1,.509.767,244.552,244.552,0,0,1-43.833,23.116.464.464,0,0,1-.172.034" transform="translate(-46.7 -49.796)" fill="#fff"/>
        <path id="Trazado_919277" data-name="Trazado 919277" d="M355.971,388.124a.46.46,0,0,1-.2-.877A328.172,328.172,0,0,0,402.389,360.5a.46.46,0,0,1,.522.757,328.985,328.985,0,0,1-46.746,26.824.454.454,0,0,1-.194.044" transform="translate(-49.572 -50.256)" fill="#fff"/>
        <path id="Trazado_919278" data-name="Trazado 919278" d="M395.784,381.225a.46.46,0,0,1-.369-.184A184.473,184.473,0,0,0,375.466,358.5a.46.46,0,1,1,.637-.664,185.572,185.572,0,0,1,20.049,22.655.46.46,0,0,1-.093.644.453.453,0,0,1-.275.092" transform="translate(-52.335 -49.878)" fill="#fff"/>
        <path id="Trazado_919279" data-name="Trazado 919279" d="M370.1,391.451a.459.459,0,0,1-.361-.174,149.963,149.963,0,0,0-17.434-18.435.46.46,0,0,1,.614-.687A151.046,151.046,0,0,1,370.46,390.7a.46.46,0,0,1-.36.747" transform="translate(-49.104 -51.877)" fill="#fff"/>
      </g>
    </g>
  </g>
</svg>
