<svg xmlns="http://www.w3.org/2000/svg" width="51" height="51" viewBox="0 0 51 51">
  <g id="Grupo_1102583" data-name="Grupo 1102583" transform="translate(-179.396 -1089.506)">
    <path id="Trazado_872996" data-name="Trazado 872996" d="M25.5,0A25.5,25.5,0,1,1,0,25.5,25.5,25.5,0,0,1,25.5,0Z" transform="translate(179.396 1089.506)" fill="#b0dcad"/>
    <g id="enchufe" transform="translate(185.393 1092.826)">
      <g id="Grupo_1102212" data-name="Grupo 1102212" transform="translate(0 9.814)">
        <g id="Grupo_1102211" data-name="Grupo 1102211" transform="translate(0)">
          <path id="Trazado_913460" data-name="Trazado 913460" d="M8.533,127.459a3.23,3.23,0,0,0-3.725-.606,18.092,18.092,0,0,1,.037-20.78.762.762,0,0,0-1.241-.884,19.516,19.516,0,0,0,.038,22.652,3.228,3.228,0,1,0,4.892-.382Zm-1.077,3.487a1.7,1.7,0,1,1,0-2.41A1.706,1.706,0,0,1,7.456,130.946Z" transform="translate(0 -104.869)" fill="#12263f"/>
        </g>
      </g>
      <g id="Grupo_1102214" data-name="Grupo 1102214" transform="translate(10.513 5.894)">
        <g id="Grupo_1102213" data-name="Grupo 1102213" transform="translate(0 0)">
          <path id="Trazado_913461" data-name="Trazado 913461" d="M158.566,83.7a.762.762,0,0,0-1.064-.171,17.756,17.756,0,0,1-7.277,3.1,2.085,2.085,0,0,1-2.465-2.047V79h.066a1.6,1.6,0,0,0,1.6-1.6V76.115a6.868,6.868,0,0,0,4.419-6.408V66.1a2.894,2.894,0,0,0-.381-5.662V55.689a2.285,2.285,0,0,0-4.571,0v4.723h-3.809V55.689a2.285,2.285,0,0,0-4.571,0v4.749a2.894,2.894,0,0,0-.381,5.662v3.607a6.868,6.868,0,0,0,4.419,6.408V77.4a1.6,1.6,0,0,0,1.6,1.6h.086v5.584a3.608,3.608,0,0,0,3.608,3.605,3.645,3.645,0,0,0,.653-.059,19.269,19.269,0,0,0,7.9-3.363A.762.762,0,0,0,158.566,83.7Zm-8.148-28.015a.762.762,0,0,1,1.524,0v4.723h-1.524Zm-8.38,0a.762.762,0,0,1,1.524,0v4.723h-1.524Zm-2.514,7.618a1.373,1.373,0,0,1,1.371-1.371h12.189a1.371,1.371,0,1,1,0,2.743H140.895A1.373,1.373,0,0,1,139.524,63.308Zm2.133,6.4V66.2h10.665v3.5a5.333,5.333,0,0,1-10.665,0Zm5.362,7.771h-.867a.076.076,0,0,1-.076-.076v-.9a6.871,6.871,0,0,0,1.828,0v.9a.076.076,0,0,1-.076.076Z" transform="translate(-138 -53.404)" fill="#12263f"/>
        </g>
      </g>
      <g id="Grupo_1102216" data-name="Grupo 1102216" transform="translate(31.991 33.925)">
        <g id="Grupo_1102215" data-name="Grupo 1102215">
          <path id="Trazado_913462" data-name="Trazado 913462" d="M421.211,421.557a.762.762,0,0,0-1.061.021l-.017.018a.762.762,0,0,0,1.1,1.056l.017-.018A.762.762,0,0,0,421.211,421.557Z" transform="translate(-419.927 -421.352)" fill="#12263f"/>
        </g>
      </g>
      <g id="Grupo_1102218" data-name="Grupo 1102218" transform="translate(7.889 1.976)">
        <g id="Grupo_1102217" data-name="Grupo 1102217" transform="translate(0 0)">
          <path id="Trazado_913463" data-name="Trazado 913463" d="M134.627,20.011A19.545,19.545,0,0,0,103.885,5.537a.762.762,0,0,0,.88,1.244,18.187,18.187,0,0,1,23.125,1.941A17.874,17.874,0,0,1,129.7,32.031a.762.762,0,1,0,1.23.9A19.5,19.5,0,0,0,134.627,20.011Z" transform="translate(-103.563 -1.976)" fill="#12263f"/>
        </g>
      </g>
      <g id="Grupo_1102220" data-name="Grupo 1102220" transform="translate(5.386 7.512)">
        <g id="Grupo_1102219" data-name="Grupo 1102219" transform="translate(0 0)">
          <path id="Trazado_913464" data-name="Trazado 913464" d="M72.016,74.868a.762.762,0,0,0-1.077,0l-.012.013a.762.762,0,0,0,1.082,1.073l.012-.013A.762.762,0,0,0,72.016,74.868Z" transform="translate(-70.706 -74.647)" fill="#12263f"/>
        </g>
      </g>
      <g id="Grupo_1102222" data-name="Grupo 1102222" transform="translate(17.681 19.035)">
        <g id="Grupo_1102221" data-name="Grupo 1102221">
          <path id="Trazado_913465" data-name="Trazado 913465" d="M235.63,228.783a.762.762,0,0,0-.658-.378h-.544l1-1.267a.762.762,0,0,0-1.195-.946l-1.98,2.5a.762.762,0,0,0,.6,1.235h.812l-.933,1.647a.762.762,0,1,0,1.326.751l1.577-2.784A.762.762,0,0,0,235.63,228.783Z" transform="translate(-232.091 -225.904)" fill="#12263f"/>
        </g>
      </g>
    </g>
  </g>
</svg>
