<svg xmlns="http://www.w3.org/2000/svg" xmlns:xlink="http://www.w3.org/1999/xlink" width="400" height="99" viewBox="0 0 400 99">
  <defs>
    <clipPath id="clip-path">
      <rect id="Rectángulo_409750" data-name="Rectángulo 409750" width="400" height="99" rx="10" transform="translate(1020.051 404)" fill="#c6e9f3"/>
    </clipPath>
    <clipPath id="clip-path-2">
      <rect id="Rectángulo_409749" data-name="Rectángulo 409749" width="348.384" height="152.119" fill="none"/>
    </clipPath>
    <clipPath id="clip-path-4">
      <rect id="Rectángulo_409717" data-name="Rectángulo 409717" width="343.229" height="5.947" fill="none"/>
    </clipPath>
    <clipPath id="clip-path-5">
      <rect id="Rectángulo_409718" data-name="Rectángulo 409718" width="12.058" height="14.716" fill="none"/>
    </clipPath>
    <clipPath id="clip-path-6">
      <rect id="Rectángulo_409725" data-name="Rectángulo 409725" width="36.916" height="61.006" fill="none"/>
    </clipPath>
    <clipPath id="clip-path-7">
      <rect id="Rectángulo_409726" data-name="Rectángulo 409726" width="60.816" height="67.759" fill="none"/>
    </clipPath>
    <clipPath id="clip-path-8">
      <rect id="Rectángulo_409727" data-name="Rectángulo 409727" width="15.499" height="11.523" fill="none"/>
    </clipPath>
    <clipPath id="clip-path-9">
      <rect id="Rectángulo_409728" data-name="Rectángulo 409728" width="16.586" height="10.819" fill="none"/>
    </clipPath>
    <clipPath id="clip-path-10">
      <rect id="Rectángulo_409729" data-name="Rectángulo 409729" width="15.393" height="11.71" fill="none"/>
    </clipPath>
    <clipPath id="clip-path-11">
      <rect id="Rectángulo_409730" data-name="Rectángulo 409730" width="62.617" height="60.413" fill="none"/>
    </clipPath>
    <clipPath id="clip-path-12">
      <rect id="Rectángulo_409731" data-name="Rectángulo 409731" width="29.733" height="13.768" fill="none"/>
    </clipPath>
    <clipPath id="clip-path-13">
      <rect id="Rectángulo_409732" data-name="Rectángulo 409732" width="5.319" height="3.673" fill="none"/>
    </clipPath>
    <clipPath id="clip-path-14">
      <rect id="Rectángulo_409733" data-name="Rectángulo 409733" width="5.37" height="4.693" fill="none"/>
    </clipPath>
    <clipPath id="clip-path-16">
      <rect id="Rectángulo_409735" data-name="Rectángulo 409735" width="5.345" height="4.183" fill="none"/>
    </clipPath>
    <clipPath id="clip-path-17">
      <rect id="Rectángulo_409739" data-name="Rectángulo 409739" width="29.882" height="17.158" fill="none"/>
    </clipPath>
    <clipPath id="clip-path-19">
      <rect id="Rectángulo_409745" data-name="Rectángulo 409745" width="12.392" height="66.65" fill="none"/>
    </clipPath>
    <clipPath id="clip-path-20">
      <rect id="Rectángulo_409746" data-name="Rectángulo 409746" width="5.375" height="2.183" fill="none"/>
    </clipPath>
    <clipPath id="clip-path-21">
      <rect id="Rectángulo_409747" data-name="Rectángulo 409747" width="5.332" height="18.204" fill="none"/>
    </clipPath>
  </defs>
  <g id="Grupo_1113794" data-name="Grupo 1113794" transform="translate(-1020.051 -404)">
    <path id="Trazado_920601" data-name="Trazado 920601" d="M10,0H390a10,10,0,0,1,10,10V89a10,10,0,0,1-10,10H10A10,10,0,0,1,0,89V10A10,10,0,0,1,10,0Z" transform="translate(1020.051 404)" fill="#e0d4f0"/>
    <g id="Enmascarar_grupo_1099013" data-name="Enmascarar grupo 1099013" clip-path="url(#clip-path)">
      <g id="Grupo_1113644" data-name="Grupo 1113644" transform="translate(1045.859 391.717)">
        <g id="Grupo_1113643" data-name="Grupo 1113643" clip-path="url(#clip-path-2)">
          <g id="Grupo_1113642" data-name="Grupo 1113642" transform="translate(0 0)">
            <g id="Grupo_1113641" data-name="Grupo 1113641" clip-path="url(#clip-path-2)">
              <g id="Grupo_1113589" data-name="Grupo 1113589" transform="translate(5.155 146.172)" opacity="0.15">
                <g id="Grupo_1113588" data-name="Grupo 1113588">
                  <g id="Grupo_1113587" data-name="Grupo 1113587" clip-path="url(#clip-path-4)">
                    <path id="Trazado_919091" data-name="Trazado 919091" d="M406.021,1783.525c0,1.642-76.835,2.973-171.615,2.973-53.479,0-101.243-.424-132.717-1.088-7.249-.153-13.634-.319-19.024-.5-3.551-.116-6.671-.237-9.323-.362-6.824-.32-10.55-.666-10.55-1.028,0-.461,6.049-.9,16.845-1.286,4.421-.16,9.638-.312,15.562-.453,31.17-.748,81.91-1.235,139.208-1.235,50.4,0,95.727.376,127.124.976,27.645.528,44.491,1.229,44.491,2" transform="translate(-62.792 -1780.552)" fill="#040c2b"/>
                  </g>
                </g>
              </g>
              <path id="Trazado_919092" data-name="Trazado 919092" d="M1590.009,537.771V618.3H1477.537V516.145a3.728,3.728,0,0,1,3.417-3.976h35.7a3.728,3.728,0,0,1,3.417,3.976v10.169a3.9,3.9,0,0,0,3.57,4.154h60.093c3.466,0,6.276,3.27,6.276,7.3" transform="translate(-1356.24 -470.123)" fill="#829cf8"/>
              <path id="Trazado_919093" data-name="Trazado 919093" d="M2009.656,337.947l-7.311,38.157-2.2,11.47a3.466,3.466,0,0,1-4.056,2.752l-43.883-8.408a3.466,3.466,0,0,1-2.752-4.056l11.258-58.761a3.466,3.466,0,0,1,4.056-2.752l7.969,1.527,26.552,5.087.186.268Z" transform="translate(-1789.361 -290.321)" fill="#e3e9f7"/>
              <g id="Grupo_1113592" data-name="Grupo 1113592" transform="translate(208.237 32.91)" opacity="0.1">
                <g id="Grupo_1113591" data-name="Grupo 1113591">
                  <g id="Grupo_1113590" data-name="Grupo 1113590" clip-path="url(#clip-path-5)">
                    <path id="Trazado_919094" data-name="Trazado 919094" d="M2548.635,415.6l-9.767-1.872a2.821,2.821,0,0,1-2.24-3.3l1.829-9.543Z" transform="translate(-2536.578 -400.879)"/>
                  </g>
                </g>
              </g>
              <path id="Trazado_919095" data-name="Trazado 919095" d="M2097.59,900.473l-37.675-7.218a.359.359,0,0,1-.285-.42l.215-1.12a.358.358,0,0,1,.419-.285l37.675,7.218a.359.359,0,0,1,.285.42l-.215,1.12a.359.359,0,0,1-.419.285" transform="translate(-1890.542 -818.243)" fill="#acbcf8"/>
              <path id="Trazado_919096" data-name="Trazado 919096" d="M2083.488,951.814l-37.675-7.218a.358.358,0,0,1-.285-.42l.215-1.12a.359.359,0,0,1,.42-.285l37.675,7.218a.359.359,0,0,1,.285.42l-.215,1.12a.359.359,0,0,1-.42.285" transform="translate(-1877.598 -865.369)" fill="#acbcf8"/>
              <rect id="Rectángulo_409719" data-name="Rectángulo 409719" width="9.878" height="4.067" transform="matrix(0.188, -0.982, 0.982, 0.188, 174.454, 63.763)" fill="#acbcf8"/>
              <rect id="Rectángulo_409720" data-name="Rectángulo 409720" width="7.253" height="4.067" transform="matrix(0.188, -0.982, 0.982, 0.188, 180.13, 64.851)" fill="#acbcf8"/>
              <rect id="Rectángulo_409721" data-name="Rectángulo 409721" width="11.775" height="4.067" transform="matrix(0.188, -0.982, 0.982, 0.188, 185.907, 65.958)" fill="#acbcf8"/>
              <rect id="Rectángulo_409722" data-name="Rectángulo 409722" width="14.036" height="4.067" transform="matrix(0.188, -0.982, 0.982, 0.188, 191.364, 67.003)" fill="#acbcf8"/>
              <rect id="Rectángulo_409723" data-name="Rectángulo 409723" width="11.775" height="4.067" transform="translate(196.784 68.042) rotate(-79.153)" fill="#acbcf8"/>
              <rect id="Rectángulo_409724" data-name="Rectángulo 409724" width="17.275" height="4.067" transform="translate(202.24 69.087) rotate(-79.153)" fill="#acbcf8"/>
              <g id="Grupo_1113595" data-name="Grupo 1113595" transform="translate(183.379 27.555)" opacity="0.1">
                <g id="Grupo_1113594" data-name="Grupo 1113594">
                  <g id="Grupo_1113593" data-name="Grupo 1113593" clip-path="url(#clip-path-6)">
                    <path id="Trazado_919097" data-name="Trazado 919097" d="M2270.693,355.72l-7.311,38.157-10.309,2.666a3.466,3.466,0,0,1-4.224-2.487l-.256-.992-.516-1.991-.692-2.677-.515-1.991-2.812-10.868-1.368-5.288-.872-3.368-1.024-3.957-6.929-26.79a3.429,3.429,0,0,1-.09-.484l26.552,5.087.186.268Z" transform="translate(-2233.777 -335.649)"/>
                  </g>
                </g>
              </g>
              <g id="Grupo_1113598" data-name="Grupo 1113598" transform="translate(121.297 46.321)" opacity="0.1">
                <g id="Grupo_1113597" data-name="Grupo 1113597">
                  <g id="Grupo_1113596" data-name="Grupo 1113596" clip-path="url(#clip-path-7)">
                    <path id="Trazado_919098" data-name="Trazado 919098" d="M1538.065,588.93l-17.8,40.982a3.465,3.465,0,0,1-4.559,1.8l-38.167-16.579v-45.88l12.384-5.013,46.346,20.131a3.467,3.467,0,0,1,1.8,4.56" transform="translate(-1477.537 -564.239)"/>
                  </g>
                </g>
              </g>
              <path id="Trazado_919099" data-name="Trazado 919099" d="M2318.925,191.982l12.654,48.92a3.466,3.466,0,0,1-2.487,4.223l-43.258,11.19a3.466,3.466,0,0,1-4.223-2.487L2266.627,195.9a3.466,3.466,0,0,1,2.487-4.223l34.03-8.8.282.162Z" transform="translate(-2080.449 -167.865)" fill="#fff"/>
              <g id="Grupo_1113601" data-name="Grupo 1113601" transform="translate(222.976 15.176)" opacity="0.1">
                <g id="Grupo_1113600" data-name="Grupo 1113600">
                  <g id="Grupo_1113599" data-name="Grupo 1113599" clip-path="url(#clip-path-8)">
                    <path id="Trazado_919100" data-name="Trazado 919100" d="M2731.623,193.8l-9.627,2.49a2.822,2.822,0,0,1-3.438-2.025l-2.433-9.407Z" transform="translate(-2716.124 -184.857)"/>
                  </g>
                </g>
              </g>
              <path id="Trazado_919101" data-name="Trazado 919101" d="M2416.012,339.459l-36.494,9.44a.691.691,0,0,1-.842-.5l-.119-.461a.691.691,0,0,1,.5-.842l36.494-9.44a.691.691,0,0,1,.842.5l.119.461a.691.691,0,0,1-.5.842" transform="translate(-2183.272 -309.92)" fill="#acbcf8"/>
              <path id="Trazado_919102" data-name="Trazado 919102" d="M2430.9,394.294l-36.494,9.44a.691.691,0,0,1-.842-.5l-.119-.461a.691.691,0,0,1,.5-.842l36.494-9.44a.691.691,0,0,1,.842.5l.119.461a.691.691,0,0,1-.5.842" transform="translate(-2196.937 -360.253)" fill="#acbcf8"/>
              <path id="Trazado_919103" data-name="Trazado 919103" d="M2445.786,449.13l-36.494,9.44a.691.691,0,0,1-.842-.5l-.119-.461a.691.691,0,0,1,.5-.842l36.494-9.44a.691.691,0,0,1,.842.5l.119.461a.691.691,0,0,1-.5.842" transform="translate(-2210.602 -410.588)" fill="#acbcf8"/>
              <path id="Trazado_919104" data-name="Trazado 919104" d="M2460.672,503.965l-36.494,9.44a.691.691,0,0,1-.842-.5l-.119-.461a.691.691,0,0,1,.5-.842l36.494-9.44a.691.691,0,0,1,.842.5l.119.461a.691.691,0,0,1-.5.842" transform="translate(-2224.266 -460.921)" fill="#acbcf8"/>
              <path id="Trazado_919105" data-name="Trazado 919105" d="M2471.936,559.946l-36.494,9.44a.691.691,0,0,1-.842-.5l-.119-.461a.691.691,0,0,1,.5-.842l36.494-9.44a.691.691,0,0,1,.842.5l.119.461a.691.691,0,0,1-.5.842" transform="translate(-2234.605 -512.306)" fill="#acbcf8"/>
              <path id="Trazado_919106" data-name="Trazado 919106" d="M2486.822,614.781l-36.494,9.44a.691.691,0,0,1-.842-.5l-.119-.461a.691.691,0,0,1,.5-.842l36.494-9.44a.691.691,0,0,1,.842.5l.119.461a.691.691,0,0,1-.5.842" transform="translate(-2248.269 -562.64)" fill="#acbcf8"/>
              <path id="Trazado_919107" data-name="Trazado 919107" d="M2501.709,669.616l-36.494,9.44a.691.691,0,0,1-.842-.5l-.119-.461a.691.691,0,0,1,.5-.842l36.494-9.44a.691.691,0,0,1,.842.5l.119.461a.691.691,0,0,1-.5.842" transform="translate(-2261.934 -612.973)" fill="#acbcf8"/>
              <path id="Trazado_919108" data-name="Trazado 919108" d="M2516.6,724.452l-36.494,9.44a.691.691,0,0,1-.842-.5l-.119-.461a.691.691,0,0,1,.5-.842l36.494-9.44a.691.691,0,0,1,.842.5l.119.461a.691.691,0,0,1-.5.842" transform="translate(-2275.598 -663.307)" fill="#acbcf8"/>
              <path id="Trazado_919109" data-name="Trazado 919109" d="M2525.831,776.887l-36.494,9.44a.691.691,0,0,1-.842-.5l-.119-.46a.691.691,0,0,1,.5-.842l36.494-9.44a.691.691,0,0,1,.842.5l.119.461a.691.691,0,0,1-.5.842" transform="translate(-2284.075 -711.438)" fill="#acbcf8"/>
              <path id="Trazado_919110" data-name="Trazado 919110" d="M1590.268,858.868H1477.826l3.378-84.618h112.442Z" transform="translate(-1356.506 -710.689)" fill="#d3dcef"/>
              <path id="Trazado_919111" data-name="Trazado 919111" d="M1590.268,888.548H1477.826l6.736-81.964H1597Z" transform="translate(-1356.506 -740.369)" fill="#eef2fa"/>
              <path id="Trazado_919112" data-name="Trazado 919112" d="M1279.764,585.235l46.346,20.132a3.466,3.466,0,0,1,1.8,4.56l-17.8,40.982a3.466,3.466,0,0,1-4.56,1.8L1250.67,628.87a3.466,3.466,0,0,1-1.8-4.56l14-32.239.3-.122Z" transform="translate(-1146.084 -537.191)" fill="#fff"/>
              <g id="Grupo_1113604" data-name="Grupo 1113604" transform="translate(117.094 48.045)" opacity="0.1">
                <g id="Grupo_1113603" data-name="Grupo 1113603">
                  <g id="Grupo_1113602" data-name="Grupo 1113602" clip-path="url(#clip-path-9)">
                    <path id="Trazado_919113" data-name="Trazado 919113" d="M1442.934,585.235l-3.962,9.121a2.821,2.821,0,0,1-3.712,1.464l-8.912-3.871Z" transform="translate(-1426.348 -585.235)"/>
                  </g>
                </g>
              </g>
              <path id="Trazado_919114" data-name="Trazado 919114" d="M1708.125,780.063l-15.018,34.574a.691.691,0,0,1-.909.359l-.436-.19a.691.691,0,0,1-.359-.909l15.018-34.574a.691.691,0,0,1,.909-.359l.436.19a.691.691,0,0,1,.358.909" transform="translate(-1552.497 -714.964)" fill="#acbcf8"/>
              <path id="Trazado_919115" data-name="Trazado 919115" d="M1760.507,802.075l-15.018,34.574a.691.691,0,0,1-.909.359l-.436-.19a.691.691,0,0,1-.359-.909l15.018-34.574a.691.691,0,0,1,.909-.358l.436.19a.691.691,0,0,1,.359.909" transform="translate(-1600.579 -735.169)" fill="#acbcf8"/>
              <path id="Trazado_919116" data-name="Trazado 919116" d="M1812.891,824.088l-15.018,34.574a.691.691,0,0,1-.909.359l-.436-.19a.691.691,0,0,1-.359-.909l15.018-34.574a.691.691,0,0,1,.909-.359l.436.19a.691.691,0,0,1,.359.909" transform="translate(-1648.662 -755.374)" fill="#acbcf8"/>
              <path id="Trazado_919117" data-name="Trazado 919117" d="M1859.9,849.077l-15.018,34.574a.691.691,0,0,1-.909.359l-.436-.19a.691.691,0,0,1-.359-.909l15.018-34.574a.691.691,0,0,1,.909-.359l.436.19a.691.691,0,0,1,.359.909" transform="translate(-1691.816 -778.312)" fill="#acbcf8"/>
              <path id="Trazado_919118" data-name="Trazado 919118" d="M1604.809,802.566c-.97-.915-2.015-2.208-1.811-3.557.239-1.58,1.959-1.71,2.564-3.574.7-2.166-1.158-3.41-.341-5.1.8-1.665,2.88-1.027,3.67-2.561,1.119-2.175-2.335-4.858-1.23-6.98.813-1.56,3.109-.933,3.983-2.425.451-.77.549-2.146-1.063-4.831" transform="translate(-1471.379 -710.034)" fill="none" stroke="#acbcf8" stroke-linecap="round" stroke-miterlimit="10" stroke-width="4"/>
              <path id="Trazado_919119" data-name="Trazado 919119" d="M1682.561,751.185l-2.928-1.466.194,3.269Z" transform="translate(-1541.745 -688.172)" fill="#acbcf8"/>
              <path id="Trazado_919120" data-name="Trazado 919120" d="M1590.268,920.925H1477.826l9.873-79.068h112.442Z" transform="translate(-1356.506 -772.746)" fill="#d3dcef"/>
              <path id="Trazado_919121" data-name="Trazado 919121" d="M1590.268,937.873H1477.826l12.612-77.552H1602.88Z" transform="translate(-1356.506 -789.694)" fill="#f4f6fc"/>
              <path id="Trazado_919122" data-name="Trazado 919122" d="M2358.326,917.56l-11.462,43.187a3.466,3.466,0,0,1-4.239,2.46l-9.176-2.436L2284.8,947.859a3.465,3.465,0,0,1-2.46-4.239l9.016-33.973.28-.166,15.393-9.122,37.81,10.035,11.029,2.927a3.466,3.466,0,0,1,2.46,4.238" transform="translate(-2094.865 -826.445)" fill="#e3e9f7"/>
              <g id="Grupo_1113607" data-name="Grupo 1113607" transform="translate(196.769 73.914)" opacity="0.1">
                <g id="Grupo_1113606" data-name="Grupo 1113606">
                  <g id="Grupo_1113605" data-name="Grupo 1113605" clip-path="url(#clip-path-10)">
                    <path id="Trazado_919123" data-name="Trazado 919123" d="M2412.28,900.359l-2.551,9.612a2.822,2.822,0,0,1-3.451,2l-9.392-2.492Z" transform="translate(-2396.887 -900.359)"/>
                  </g>
                </g>
              </g>
              <path id="Trazado_919124" data-name="Trazado 919124" d="M2468.748,1066.268a13.906,13.906,0,0,1,9.873,17.008l-.008.031a13.906,13.906,0,1,1-9.865-17.04" transform="translate(-2250.038 -978.304)" fill="#0f31ac"/>
              <path id="Trazado_919125" data-name="Trazado 919125" d="M2473.991,1066.268a13.906,13.906,0,0,1,9.873,17.008l-26.881-7.135a13.906,13.906,0,0,1,17.008-9.873" transform="translate(-2255.28 -978.304)" fill="#829cf8"/>
              <path id="Trazado_919126" data-name="Trazado 919126" d="M2506.838,1235.515l13.472,3.576a13.909,13.909,0,0,1-23.612,5.877Z" transform="translate(-2291.735 -1134.087)" fill="#acbcf8"/>
              <path id="Trazado_919127" data-name="Trazado 919127" d="M2818.942,1221.59l-5.13,19.33a.164.164,0,0,1-.2.117l-.51-.135a.165.165,0,0,1-.117-.2l5.131-19.33a.165.165,0,0,1,.2-.117l.51.135a.164.164,0,0,1,.116.2" transform="translate(-2582.05 -1120.991)" fill="#acbcf8"/>
              <path id="Trazado_919128" data-name="Trazado 919128" d="M2846.361,1097.934l-7.969,30.024a.16.16,0,0,1-.2.113l-.5-.132a.16.16,0,0,1-.113-.2l7.969-30.024a.16.16,0,0,1,.2-.113l.5.132a.16.16,0,0,1,.113.2" transform="translate(-2604.634 -1007.495)" fill="#acbcf8"/>
              <path id="Trazado_919129" data-name="Trazado 919129" d="M2868.486,1324.266l-3.179,11.977a.191.191,0,0,1-.234.136l-.594-.158a.191.191,0,0,1-.136-.234l3.179-11.977a.191.191,0,0,1,.234-.136l.594.158a.191.191,0,0,1,.136.234" transform="translate(-2629.194 -1215.186)" fill="#acbcf8"/>
              <path id="Trazado_919130" data-name="Trazado 919130" d="M2896.9,1144.032l-7.263,27.366a.154.154,0,0,1-.188.109l-.479-.127a.154.154,0,0,1-.109-.188l7.263-27.366a.154.154,0,0,1,.188-.109l.479.127a.154.154,0,0,1,.109.188" transform="translate(-2651.696 -1049.82)" fill="#acbcf8"/>
              <path id="Trazado_919131" data-name="Trazado 919131" d="M2920.21,1310.123l-3.793,14.29a.168.168,0,0,1-.206.12l-.524-.139a.169.169,0,0,1-.12-.206l3.793-14.29a.169.169,0,0,1,.206-.12l.523.139a.168.168,0,0,1,.12.206" transform="translate(-2676.213 -1202.248)" fill="#acbcf8"/>
              <path id="Trazado_919132" data-name="Trazado 919132" d="M2949.627,1091.379l-8.707,32.806a.154.154,0,0,1-.188.109l-.479-.127a.154.154,0,0,1-.109-.189l8.707-32.806a.154.154,0,0,1,.188-.109l.479.127a.154.154,0,0,1,.109.188" transform="translate(-2698.772 -1001.49)" fill="#acbcf8"/>
              <path id="Trazado_919133" data-name="Trazado 919133" d="M2795.846,1517.894a.984.984,0,1,1-1.2.7.984.984,0,0,1,1.2-.7" transform="translate(-2565.191 -1393.254)" fill="#0f31ac"/>
              <path id="Trazado_919134" data-name="Trazado 919134" d="M2847.134,1531.506a.984.984,0,1,1-1.2.7.984.984,0,0,1,1.2-.7" transform="translate(-2612.267 -1405.749)" fill="#acbcf8"/>
              <path id="Trazado_919135" data-name="Trazado 919135" d="M2898.419,1545.118a.984.984,0,1,1-1.2.7.983.983,0,0,1,1.2-.7" transform="translate(-2659.343 -1418.243)" fill="#829cf8"/>
              <g id="Grupo_1113610" data-name="Grupo 1113610" transform="translate(187.356 73.914)" opacity="0.1">
                <g id="Grupo_1113609" data-name="Grupo 1113609">
                  <g id="Grupo_1113608" data-name="Grupo 1113608" clip-path="url(#clip-path-11)">
                    <path id="Trazado_919136" data-name="Trazado 919136" d="M2344.837,910.394l-11.387,50.378L2284.8,947.859a3.465,3.465,0,0,1-2.46-4.239l9.016-33.973.28-.166,15.393-9.122Z" transform="translate(-2282.22 -900.359)"/>
                  </g>
                </g>
              </g>
              <path id="Trazado_919137" data-name="Trazado 919137" d="M1477.076,945.668h112.472l15.794-69.873c.8-3.529-1.49-6.982-4.626-6.982h-102.58a4.971,4.971,0,0,0-4.626,4.15Z" transform="translate(-1355.818 -797.489)" fill="#829cf8"/>
              <g id="Grupo_1113613" data-name="Grupo 1113613" transform="translate(206.094 131.971)" opacity="0.15">
                <g id="Grupo_1113612" data-name="Grupo 1113612">
                  <g id="Grupo_1113611" data-name="Grupo 1113611" clip-path="url(#clip-path-12)">
                    <path id="Trazado_919138" data-name="Trazado 919138" d="M2510.482,1621.339l2.859-13.768h26.873l-2.86,13.768Z" transform="translate(-2510.482 -1607.572)"/>
                  </g>
                </g>
              </g>
              <path id="Trazado_919139" data-name="Trazado 919139" d="M494.733,1698.849l-1.3,3.673-1.7,4.8h-2.567l.242-4.8.185-3.673Z" transform="translate(-449.013 -1559.384)" fill="#acbcf8"/>
              <path id="Trazado_919140" data-name="Trazado 919140" d="M849.1,1707.317h-2.567l-1.335-3.775-1.66-4.693h5.134l.237,4.693Z" transform="translate(-774.291 -1559.384)" fill="#acbcf8"/>
              <g id="Grupo_1113616" data-name="Grupo 1113616" transform="translate(40.4 139.465)" opacity="0.1">
                <g id="Grupo_1113615" data-name="Grupo 1113615">
                  <g id="Grupo_1113614" data-name="Grupo 1113614" clip-path="url(#clip-path-13)">
                    <path id="Trazado_919141" data-name="Trazado 919141" d="M492.31,1698.849h5.134l-1.3,3.673h-4.02Z" transform="translate(-492.125 -1698.849)"/>
                  </g>
                </g>
              </g>
              <g id="Grupo_1113619" data-name="Grupo 1113619" transform="translate(69.249 138.445)" opacity="0.1">
                <g id="Grupo_1113618" data-name="Grupo 1113618">
                  <g id="Grupo_1113617" data-name="Grupo 1113617" clip-path="url(#clip-path-14)">
                    <path id="Trazado_919142" data-name="Trazado 919142" d="M848.673,1686.421l.237,4.693H845.2l-1.66-4.693Z" transform="translate(-843.54 -1686.421)"/>
                  </g>
                </g>
              </g>
              <path id="Trazado_919143" data-name="Trazado 919143" d="M983.8,1707.317H981.23l-1.516-4.285-1.479-4.183h5.134l.211,4.183Z" transform="translate(-897.928 -1559.384)" fill="#acbcf8"/>
              <path id="Trazado_919144" data-name="Trazado 919144" d="M638.114,1698.849l-1.3,3.673-1.7,4.8h-2.567l.242-4.8.185-3.673Z" transform="translate(-580.624 -1559.384)" fill="#acbcf8"/>
              <g id="Grupo_1113622" data-name="Grupo 1113622" transform="translate(52.171 139.465)" opacity="0.1">
                <g id="Grupo_1113621" data-name="Grupo 1113621">
                  <g id="Grupo_1113620" data-name="Grupo 1113620" clip-path="url(#clip-path-13)">
                    <path id="Trazado_919145" data-name="Trazado 919145" d="M635.691,1698.849h5.134l-1.3,3.673h-4.02Z" transform="translate(-635.505 -1698.849)"/>
                  </g>
                </g>
              </g>
              <g id="Grupo_1113625" data-name="Grupo 1113625" transform="translate(80.307 138.955)" opacity="0.1">
                <g id="Grupo_1113624" data-name="Grupo 1113624">
                  <g id="Grupo_1113623" data-name="Grupo 1113623" clip-path="url(#clip-path-16)">
                    <path id="Trazado_919146" data-name="Trazado 919146" d="M983.58,1696.818h-3.866l-1.479-4.183h5.134Z" transform="translate(-978.235 -1692.635)"/>
                  </g>
                </g>
              </g>
              <rect id="Rectángulo_409736" data-name="Rectángulo 409736" width="40.636" height="51.103" transform="translate(48.58 90.344)" fill="#e3e9f7"/>
              <rect id="Rectángulo_409737" data-name="Rectángulo 409737" width="9.892" height="51.103" transform="translate(38.688 90.344)" fill="#cdd7fb"/>
              <path id="Trazado_919147" data-name="Trazado 919147" d="M591.767,1102.634h41.375a1.067,1.067,0,0,0,0-2.135H591.767Z" transform="translate(-543.187 -1010.155)" fill="#cdd7fb"/>
              <path id="Trazado_919148" data-name="Trazado 919148" d="M460.506,1102.634H449.834a1.067,1.067,0,0,1,0-2.135h10.672Z" transform="translate(-411.926 -1010.155)" fill="#acbcf8"/>
              <g id="Grupo_1113628" data-name="Grupo 1113628" transform="translate(53.957 119.775)" opacity="0.15">
                <g id="Grupo_1113627" data-name="Grupo 1113627">
                  <g id="Grupo_1113626" data-name="Grupo 1113626" clip-path="url(#clip-path-17)">
                    <rect id="Rectángulo_409738" data-name="Rectángulo 409738" width="29.882" height="17.158"/>
                  </g>
                </g>
              </g>
              <rect id="Rectángulo_409740" data-name="Rectángulo 409740" width="29.061" height="16.337" transform="translate(54.368 120.185)" fill="#cdd7fb"/>
              <g id="Grupo_1113631" data-name="Grupo 1113631" transform="translate(53.957 96.994)" opacity="0.15">
                <g id="Grupo_1113630" data-name="Grupo 1113630">
                  <g id="Grupo_1113629" data-name="Grupo 1113629" clip-path="url(#clip-path-17)">
                    <rect id="Rectángulo_409741" data-name="Rectángulo 409741" width="29.882" height="17.158"/>
                  </g>
                </g>
              </g>
              <path id="Trazado_919149" data-name="Trazado 919149" d="M737.253,1135.5l-2.134,11.821H714.267v-10.1l14.777.164.328-1.888Z" transform="translate(-655.63 -1042.282)" fill="#fddad2"/>
              <path id="Trazado_919150" data-name="Trazado 919150" d="M754.253,1150.5l-2.134,11.821H731.267v-10.1l14.777.164.328-1.888Z" transform="translate(-671.235 -1056.051)" fill="#fff"/>
              <path id="Trazado_919151" data-name="Trazado 919151" d="M791.122,1515.29h6.334a.855.855,0,0,0,.855-.855v-1.08a.855.855,0,0,0-.855-.855h-6.334a.855.855,0,0,0-.855.855v1.08a.855.855,0,0,0,.855.855" transform="translate(-725.391 -1388.332)" fill="#e3e9f7"/>
              <rect id="Rectángulo_409743" data-name="Rectángulo 409743" width="16.296" height="14.448" transform="translate(53.957 101.427)" fill="#9bb0f9"/>
              <rect id="Rectángulo_409744" data-name="Rectángulo 409744" width="29.882" height="17.158" transform="translate(68.898 98.718)" fill="#cdd7fb"/>
              <path id="Trazado_919152" data-name="Trazado 919152" d="M973.122,1253.29h6.334a.855.855,0,0,0,.855-.855v-1.08a.855.855,0,0,0-.855-.855h-6.334a.855.855,0,0,0-.855.855v1.08a.855.855,0,0,0,.855.855" transform="translate(-892.45 -1147.841)" fill="#e3e9f7"/>
              <path id="Trazado_919153" data-name="Trazado 919153" d="M2968.4,483.284l-2.978-5.582-8.114,3.3-13.4-8.036a10.668,10.668,0,0,0-1.614-4.357.658.658,0,0,0-.628.887l.473,1.276s-2.476-3.108-4.705-2.9c0,0-3.136.491-2.579,3.267,0,0-.283,2.642,5.395,4.9l15.527,9.333a3.356,3.356,0,0,0,2.524.384Z" transform="translate(-2693.856 -429.448)" fill="#db965f"/>
              <path id="Trazado_919154" data-name="Trazado 919154" d="M3372.359,1664.828l-5.307.2-.153-4.041-.033-.9-.083-2.183,5.307.6.067,1.579.058,1.377Z" transform="translate(-3090.392 -1521.805)" fill="#db965f"/>
              <path id="Trazado_919155" data-name="Trazado 919155" d="M3231.143,1702.3a7.363,7.363,0,0,0-1-5.474s-2.957,1.934-5.306-.591c0,0-2.189.32-7.709,3.433-.619.349-1.255.668-1.9.959a7.886,7.886,0,0,0-2.991,2.114,1.788,1.788,0,0,0,.968,2.752c2.265.661,8.628,1.891,16.864-1.817a1.877,1.877,0,0,0,1.073-1.378" transform="translate(-2948.229 -1556.983)" fill="#040c2b"/>
              <path id="Trazado_919156" data-name="Trazado 919156" d="M3236.254,924.207h-6.383l-4.837-32.851-6.841-32.483-.347-1.644,14.912-.413,2.085-.058s2.956,4.434.672,14.578L3234.843,888s4.1,12.092,1.411,36.21" transform="translate(-2953.682 -786.424)" fill="#040c2b"/>
              <g id="Grupo_1113634" data-name="Grupo 1113634" transform="translate(264.511 71.133)" opacity="0.15">
                <g id="Grupo_1113633" data-name="Grupo 1113633">
                  <g id="Grupo_1113632" data-name="Grupo 1113632" clip-path="url(#clip-path-19)">
                    <path id="Trazado_919157" data-name="Trazado 919157" d="M3234.463,933.133h-.714l-4.837-32.851-6.841-32.483,5.832-1.317,5.018.3c0,7.4.684,9.2-1.9,19.311l-1.825,5.7Z" transform="translate(-3222.071 -866.483)"/>
                  </g>
                </g>
              </g>
              <path id="Trazado_919158" data-name="Trazado 919158" d="M3306.092,1577.915l-.769.517-3.637,2.449-1.163-1.728-1.1-1.627-1.237-1.838-.129-.192-.354-.526.376-.178,4.454-2.1.016.023,1.648,2.424Z" transform="translate(-3026.987 -1443.581)" fill="#db965f"/>
              <path id="Trazado_919159" data-name="Trazado 919159" d="M3248.267,1608.52c-4.97,7.565-11.027,9.89-13.144,10.5a1.7,1.7,0,0,1-2.165-1.508,7.162,7.162,0,0,1,1.357-3.718c.4-.62.769-1.258,1.111-1.911a37.618,37.618,0,0,1,3.977-6.363,6.264,6.264,0,0,1,.586-.642c3.344.841,4.773-2.392,4.773-2.392a6.927,6.927,0,0,1,3.277,2.973c.156.266.287.521.4.758a2.375,2.375,0,0,1-.168,2.3" transform="translate(-2967.548 -1470.932)" fill="#040c2b"/>
              <path id="Trazado_919160" data-name="Trazado 919160" d="M3118.959,920.747l-.979.669-.467.318-4.362,2.977-.139.1-.961.656-12.766-19.807-1.778-2.779a8.8,8.8,0,0,1-1.19-6.608l6.977-32.257,1.337-.05,12.626-.471.05,1.32a46.382,46.382,0,0,1-3.418,19.313l-5.5,13.44a4.491,4.491,0,0,0,.347,3.174l6.291,12.317Z" transform="translate(-2841.947 -792.604)" fill="#040c2b"/>
              <g id="Grupo_1113637" data-name="Grupo 1113637" transform="translate(276.391 136.104)" opacity="0.15">
                <g id="Grupo_1113636" data-name="Grupo 1113636">
                  <g id="Grupo_1113635" data-name="Grupo 1113635" clip-path="url(#clip-path-20)">
                    <path id="Trazado_919161" data-name="Trazado 919161" d="M3372.158,1660.092h-5.292l-.083-2.183,5.307.6Z" transform="translate(-3366.783 -1657.909)"/>
                  </g>
                </g>
              </g>
              <path id="Trazado_919162" data-name="Trazado 919162" d="M3223.994,329.072l-.013,6.448-7.288,2.377s-1.6-5.476-3.62-5.961.013-.159.013-.159l8.85-9.349Z" transform="translate(-2948.479 -295.959)" fill="#c9885b"/>
              <path id="Trazado_919163" data-name="Trazado 919163" d="M3197.429,289.9s-3.246,7.672-.514,13.671a1.389,1.389,0,0,0,1.7.769c1.884-.622,5.738-2.636,8.984-9.078,0,0-5.807-9.588-10.17-5.362" transform="translate(-2933.465 -265.115)" fill="#db965f"/>
              <path id="Trazado_919164" data-name="Trazado 919164" d="M3209.4,266.909a3.765,3.765,0,0,0,2.413,3.382s2.365-5.762,1.795-10.126c0,0-1.767-5.474-6.428-3.883,0,0-4.934-2.642-7.508-.134,0,0-2.133,4.036.766,4.486a2.837,2.837,0,0,1,2.776-.572s-.741,2.764,1.24,3.725l.017,3.572.563.046.523-1.982s2.315-3.754,3.844,1.487" transform="translate(-2936.307 -234.127)"/>
              <path id="Trazado_919165" data-name="Trazado 919165" d="M3305.731,530.617s3.347,10.691-9.075,13.331l-5.868-13.131s13.474-6.35,14.943-.2" transform="translate(-3020.635 -484.594)" fill="#fff"/>
              <path id="Trazado_919166" data-name="Trazado 919166" d="M3172.682,472.663l1.688,1.1.281.184,6,3.925.456,8.663.082,1.564c0,.039,0,.078,0,.117l-.323,16-.015.734a1.606,1.606,0,0,1-1.071,1.485c-4.165,1.463-9.417,1.463-13.933,1.022h0a69.578,69.578,0,0,1-8.538-1.4,1.61,1.61,0,0,1-1.243-1.724l1.059-10.957a1.576,1.576,0,0,0,.007-.209l-.521-15.4a3.022,3.022,0,0,1,.9-1.471l4.729-1.458.209-.09,1.891-.816Z" transform="translate(-2896.968 -433.86)" fill="#fff"/>
              <g id="Grupo_1113640" data-name="Grupo 1113640" transform="translate(259.196 51.992)" opacity="0.15">
                <g id="Grupo_1113639" data-name="Grupo 1113639">
                  <g id="Grupo_1113638" data-name="Grupo 1113638" clip-path="url(#clip-path-21)">
                    <path id="Trazado_919167" data-name="Trazado 919167" d="M3158.355,640.779a1.765,1.765,0,0,0,.006-.209l-.245-7.24,4.531,5.8-5.332,12.4Z" transform="translate(-3157.316 -633.33)"/>
                  </g>
                </g>
              </g>
              <path id="Trazado_919168" data-name="Trazado 919168" d="M3089.827,596.779l-.222-.285-1.235-1.588-2.414-3.1.725-1.251,1.27-2.188,6.4-11.03,2.087,11.52Z" transform="translate(-2832.619 -529.94)" fill="#db965f"/>
              <path id="Trazado_919169" data-name="Trazado 919169" d="M2801.093,755.863l-7.759,3.88a18.128,18.128,0,0,1-4.781,1.182,7.91,7.91,0,0,1-2.058-.009,18.663,18.663,0,0,0-4.112-.019c-1.19.111-2.034.27-2.034.27a1.152,1.152,0,0,0,1.168,1.026l2.481-.048-2.234.868a4.09,4.09,0,0,0-1.883,1.462c-1.734,2.493,1.607,3.668,1.607,3.668,2.578.566,7.424-1.98,7.424-1.98l17.522-5.83a3.684,3.684,0,0,0,2.006-5.367l-3.841-1.144Z" transform="translate(-2551.212 -691.938)" fill="#db965f"/>
              <path id="Trazado_919170" data-name="Trazado 919170" d="M3124.906,525.759l-3.639,6.3-3.109,4.843-7.521-4.394c1.945-8.8,3.538-13.327,4.19-13.981a4.285,4.285,0,0,1,1.131-.516,8.9,8.9,0,0,1,8.172,5.718Z" transform="translate(-2855.272 -475.485)" fill="#fff"/>
              <path id="Trazado_919171" data-name="Trazado 919171" d="M2753.834,206.88a10.959,10.959,0,1,1,4.093,1.444,10.893,10.893,0,0,1-4.093-1.444m14.62-8.11a9.092,9.092,0,1,0-10.271,7.736,9.092,9.092,0,0,0,10.271-7.736" transform="translate(-2522.885 -171.256)" fill="#829cf8"/>
              <path id="Trazado_919172" data-name="Trazado 919172" d="M2802.86,227.217c-.5.222-.975.429-1.436.662a14.618,14.618,0,0,0-1.335.758,14.9,14.9,0,0,0-1.248.893c-.405.32-.794.667-1.2,1.024a4.745,4.745,0,0,1,.871-1.375,6.064,6.064,0,0,1,2.739-1.749,4.765,4.765,0,0,1,1.613-.213" transform="translate(-2567.969 -208.559)" fill="#acbcf8"/>
              <path id="Trazado_919173" data-name="Trazado 919173" d="M2933.465,422.83l-9.167-14.292a.874.874,0,0,0-1.207-.264l-2.193,1.407a.873.873,0,0,0-.264,1.207l9.167,14.292a1.715,1.715,0,0,0,2.37.518l.776-.5a1.716,1.716,0,0,0,.518-2.37" transform="translate(-2680.741 -374.631)" fill="#829cf8"/>
              <path id="Trazado_919174" data-name="Trazado 919174" d="M2942.809,478.622s3.778-.3,1.972,4.049c0,0-2.713-.136-1.972-4.049" transform="translate(-2701.105 -439.326)" fill="#db965f"/>
              <path id="Trazado_919175" data-name="Trazado 919175" d="M3295.373,10.929h-8.82a3.059,3.059,0,0,1-3.059-3.059V3.058A3.059,3.059,0,0,1,3286.553,0h8.82a3.059,3.059,0,0,1,3.059,3.059V7.87a3.059,3.059,0,0,1-3.059,3.059" transform="translate(-3013.94 0.001)" fill="#fff"/>
              <path id="Trazado_919176" data-name="Trazado 919176" d="M3353.365,122.4h3.467a5.619,5.619,0,0,1-3.467,4.178s1.66-2.445,0-4.178" transform="translate(-3078.075 -112.35)" fill="#fff"/>
              <path id="Trazado_919177" data-name="Trazado 919177" d="M3347.71,29.422a.244.244,0,0,1-.244-.244v-.167a1.527,1.527,0,0,1,.191-.791,2.006,2.006,0,0,1,.678-.629,2.553,2.553,0,0,0,.556-.44.667.667,0,0,0,.169-.449.364.364,0,0,0-.181-.319.856.856,0,0,0-.473-.118,3.322,3.322,0,0,0-1.355.348.386.386,0,0,1-.5-.175l-.338-.661a.342.342,0,0,1,.155-.462,4.88,4.88,0,0,1,2.176-.515,2.674,2.674,0,0,1,1.672.469,1.525,1.525,0,0,1,.607,1.276,1.822,1.822,0,0,1-.27,1,2.749,2.749,0,0,1-.862.8,3.338,3.338,0,0,0-.628.476.536.536,0,0,0-.127.356.244.244,0,0,1-.244.244Zm-.449,1.324a.882.882,0,0,1,.256-.678,1.066,1.066,0,0,1,.753-.239,1.029,1.029,0,0,1,.733.241.883.883,0,0,1,.256.675.859.859,0,0,1-.265.673,1.042,1.042,0,0,1-.724.239,1.082,1.082,0,0,1-.741-.236.853.853,0,0,1-.268-.675" transform="translate(-3071.473 -22.764)" fill="#acbcf8"/>
              <path id="Trazado_919178" data-name="Trazado 919178" d="M3678.013,1240.657h-16.4a3.3,3.3,0,0,1-3.3-3.3v-14.312a3.3,3.3,0,0,1,3.3-3.3h16.4a3.3,3.3,0,0,1,3.3,3.3v14.312a3.3,3.3,0,0,1-3.3,3.3" transform="translate(-3357.991 -1119.615)" fill="#dee4fc"/>
              <path id="Trazado_919179" data-name="Trazado 919179" d="M3823.055,1356.7l-.058,1.07v.021l.005,0,.491.168a3.318,3.318,0,0,1-.394.893l-.009.015-.189-.092-.311-.153-.643.858.228.323a2.964,2.964,0,0,1-.877.4l-.1-.5-1.032-.021-.156.57a2.908,2.908,0,0,1-.965-.372l.3-.5-.7-.8-.574.346,0,0c-.014-.021-.027-.042-.04-.063a3.3,3.3,0,0,1-.455-1.193l.5-.112.057-1.092-.521-.163a3.325,3.325,0,0,1,.463-1.075l.536.32.722-.784-.286-.482a2.926,2.926,0,0,1,1.231-.422l.114.649,1.03.051.163-.538a2.6,2.6,0,0,1,.929.554l-.332.486.69.84.444-.245a3.332,3.332,0,0,1,.272.942Zm-2.445-1.676a1.847,1.847,0,0,0-1.072.316,1.96,1.96,0,0,0-.308.255,2.133,2.133,0,0,0-.064,2.894,1.857,1.857,0,0,0,2.733.055,2.135,2.135,0,0,0,.064-2.894c-.037-.04-.074-.079-.113-.115a1.852,1.852,0,0,0-1.24-.512" transform="translate(-3504.168 -1242.719)" fill="#fff"/>
              <path id="Trazado_919180" data-name="Trazado 919180" d="M3806.463,1265.821l-.065,1.255v.025l.006,0,.536.2a4.058,4.058,0,0,1-.431,1.048l-.01.017-.207-.108-.34-.178-.7,1.008.249.379a3.143,3.143,0,0,1-.96.467l-.111-.591-1.128-.023-.171.669a3.047,3.047,0,0,1-1.055-.435l.329-.593-.768-.933-.628.407-.005,0-.044-.074a4.044,4.044,0,0,1-.495-1.4l.552-.133.064-1.281-.57-.19a4.056,4.056,0,0,1,.509-1.262l.585.375.791-.921-.312-.565a3.065,3.065,0,0,1,1.347-.5l.124.761,1.127.059.178-.631c.1-.045.717.369,1.015.648l-.364.57.753.984.486-.288a4.123,4.123,0,0,1,.3,1.105Zm-2.671-1.962a1.926,1.926,0,0,0-1.173.373,2.195,2.195,0,0,0-.336.3,2.639,2.639,0,0,0-.075,3.4,1.939,1.939,0,0,0,2.988.06,2.64,2.64,0,0,0,.075-3.4q-.059-.071-.123-.135a1.951,1.951,0,0,0-1.355-.6" transform="translate(-3488.466 -1158.848)" fill="#fff"/>
              <path id="Trazado_919181" data-name="Trazado 919181" d="M3714.144,1307.651l-.09,1.729,0,.034.008,0,.738.27a5.59,5.59,0,0,1-.593,1.443l-.014.024-.284-.149-.468-.246-.968,1.388.342.521a4.32,4.32,0,0,1-1.32.644l-.153-.813-1.551-.031-.236.922a4.177,4.177,0,0,1-1.45-.6l.451-.816-1.055-1.285-.863.561-.008,0-.06-.1a5.568,5.568,0,0,1-.68-1.927l.76-.183.089-1.764-.783-.262a5.583,5.583,0,0,1,.7-1.737l.8.516,1.088-1.268-.429-.778a4.21,4.21,0,0,1,1.852-.685l.17,1.048,1.55.081.245-.869c.14-.062.985.508,1.4.892l-.5.785,1.036,1.355.669-.4a5.669,5.669,0,0,1,.406,1.522Zm-3.672-2.7a2.645,2.645,0,0,0-1.613.514,3.031,3.031,0,0,0-.463.413,3.639,3.639,0,0,0-.1,4.676,2.664,2.664,0,0,0,4.109.083,3.639,3.639,0,0,0,.1-4.676q-.082-.1-.169-.186a2.681,2.681,0,0,0-1.864-.824" transform="translate(-3401.658 -1196.093)" fill="#fff"/>
              <path id="Trazado_919182" data-name="Trazado 919182" d="M1010.013,644.657h-16.4a3.3,3.3,0,0,1-3.3-3.3V627.047a3.3,3.3,0,0,1,3.3-3.3h16.4a3.3,3.3,0,0,1,3.3,3.3v14.312a3.3,3.3,0,0,1-3.3,3.3" transform="translate(-909.016 -572.543)" fill="#dee4fc"/>
              <path id="Trazado_919183" data-name="Trazado 919183" d="M1155.056,760.7l-.058,1.07v.021l.005,0,.491.168a3.315,3.315,0,0,1-.393.893l-.009.015-.189-.093-.311-.153-.642.858.228.323a2.961,2.961,0,0,1-.878.4l-.1-.5-1.032-.021-.156.57a2.91,2.91,0,0,1-.965-.372l.3-.5-.7-.8-.573.346-.005,0-.04-.063a3.3,3.3,0,0,1-.455-1.193l.505-.112.057-1.092-.521-.163a3.318,3.318,0,0,1,.463-1.075l.535.32.722-.784-.286-.482a2.923,2.923,0,0,1,1.231-.422l.114.649,1.031.051.162-.538a2.594,2.594,0,0,1,.929.554l-.332.486.69.84.444-.245a3.329,3.329,0,0,1,.272.942Zm-2.445-1.676a1.847,1.847,0,0,0-1.072.316,1.991,1.991,0,0,0-.307.255,2.134,2.134,0,0,0-.064,2.894,1.858,1.858,0,0,0,2.733.055,2.134,2.134,0,0,0,.064-2.894c-.036-.04-.074-.079-.113-.115a1.853,1.853,0,0,0-1.24-.512" transform="translate(-1055.194 -695.646)" fill="#fff"/>
              <path id="Trazado_919184" data-name="Trazado 919184" d="M1138.463,669.821l-.065,1.255v.025l.006,0,.536.2a4.056,4.056,0,0,1-.431,1.048l-.01.017-.207-.108-.34-.179-.7,1.008.249.379a3.146,3.146,0,0,1-.96.467l-.111-.591-1.128-.023-.171.669a3.045,3.045,0,0,1-1.055-.435l.328-.593-.768-.933-.628.407-.005,0-.044-.074a4.043,4.043,0,0,1-.495-1.4l.552-.133.065-1.281-.57-.19a4.057,4.057,0,0,1,.508-1.262l.585.374.791-.921-.312-.565a3.064,3.064,0,0,1,1.347-.5l.124.761,1.127.059.178-.631c.1-.045.717.369,1.015.648l-.364.57.753.984.486-.288a4.127,4.127,0,0,1,.3,1.105Zm-2.671-1.962a1.926,1.926,0,0,0-1.173.373,2.22,2.22,0,0,0-.337.3,2.639,2.639,0,0,0-.075,3.4,1.939,1.939,0,0,0,2.988.06,2.64,2.64,0,0,0,.075-3.4q-.059-.07-.123-.135a1.951,1.951,0,0,0-1.355-.6" transform="translate(-1039.491 -611.776)" fill="#fff"/>
              <path id="Trazado_919185" data-name="Trazado 919185" d="M1046.144,711.652l-.09,1.729,0,.035.008,0,.737.27a5.585,5.585,0,0,1-.593,1.443l-.014.024-.284-.149-.468-.246-.968,1.388.342.522a4.331,4.331,0,0,1-1.32.643l-.153-.813-1.551-.031-.236.922a4.182,4.182,0,0,1-1.451-.6l.452-.816-1.056-1.285-.863.561-.008,0-.06-.1a5.57,5.57,0,0,1-.68-1.927l.76-.183.089-1.764-.784-.262a5.6,5.6,0,0,1,.7-1.737l.8.516,1.088-1.268-.429-.778a4.212,4.212,0,0,1,1.852-.685l.17,1.048,1.549.081.245-.869c.14-.062.985.508,1.4.892l-.5.786,1.036,1.355.669-.4a5.677,5.677,0,0,1,.406,1.522Zm-3.672-2.7a2.646,2.646,0,0,0-1.613.514,3.047,3.047,0,0,0-.463.413,3.639,3.639,0,0,0-.1,4.676,2.664,2.664,0,0,0,4.109.083,3.639,3.639,0,0,0,.1-4.676q-.082-.1-.169-.186a2.681,2.681,0,0,0-1.864-.824" transform="translate(-952.684 -649.021)" fill="#fff"/>
              <path id="Trazado_919186" data-name="Trazado 919186" d="M19.7,1213.467H3.3a3.3,3.3,0,0,1-3.3-3.3v-14.312a3.3,3.3,0,0,1,3.3-3.3H19.7a3.3,3.3,0,0,1,3.3,3.3v14.312a3.3,3.3,0,0,1-3.3,3.3" transform="translate(0 -1094.657)" fill="#dee4fc"/>
              <path id="Trazado_919187" data-name="Trazado 919187" d="M47.774,1248.517l-8.2-5.135a5.118,5.118,0,0,0,.155-2.382,4.932,4.932,0,0,0-5.557-4.153,4.849,4.849,0,0,0-3.884,5.689,4.932,4.932,0,0,0,5.557,4.153,4.606,4.606,0,0,0,2.731-1.521l8.144,5.1a.97.97,0,0,0,1.38-.309,1.077,1.077,0,0,0-.326-1.44m-12.081-2.723a4.04,4.04,0,0,1-4.546-3.4,3.972,3.972,0,0,1,3.178-4.655,4.04,4.04,0,0,1,4.546,3.4,3.972,3.972,0,0,1-3.178,4.655" transform="translate(-27.734 -1135.254)" fill="#fff"/>
              <path id="Trazado_919188" data-name="Trazado 919188" d="M47.658,1279.1a8.241,8.241,0,0,0-.073.977,6.541,6.541,0,0,0,.057.968l.036.239.053.236a2.167,2.167,0,0,0,.063.233c.025.077.042.156.074.23l.086.227c.031.074.07.146.1.219l.052.111.063.1q.063.1.124.213c-.054-.062-.108-.125-.16-.189-.027-.032-.053-.064-.079-.1l-.067-.1c-.043-.071-.09-.14-.131-.213l-.108-.226a3.63,3.63,0,0,1-.267-.962,4.618,4.618,0,0,1-.023-1,4.013,4.013,0,0,1,.2-.971" transform="translate(-43.55 -1174.096)" fill="#fff"/>
              <path id="Trazado_919189" data-name="Trazado 919189" d="M3729.7,637.467h-16.4a3.3,3.3,0,0,1-3.3-3.3V619.857a3.3,3.3,0,0,1,3.3-3.3h16.4a3.3,3.3,0,0,1,3.3,3.3v14.312a3.3,3.3,0,0,1-3.3,3.3" transform="translate(-3405.433 -565.943)" fill="#dee4fc"/>
              <path id="Trazado_919190" data-name="Trazado 919190" d="M3757.773,672.517l-8.2-5.135a5.116,5.116,0,0,0,.155-2.383,4.932,4.932,0,0,0-5.556-4.153,4.85,4.85,0,0,0-3.884,5.689,4.932,4.932,0,0,0,5.557,4.153,4.605,4.605,0,0,0,2.731-1.521l8.144,5.1a.97.97,0,0,0,1.38-.309,1.077,1.077,0,0,0-.325-1.44m-12.081-2.723a4.039,4.039,0,0,1-4.546-3.4,3.972,3.972,0,0,1,3.178-4.655,4.04,4.04,0,0,1,4.546,3.4,3.972,3.972,0,0,1-3.178,4.655" transform="translate(-3433.166 -606.54)" fill="#fff"/>
              <path id="Trazado_919191" data-name="Trazado 919191" d="M3757.658,703.1a8.3,8.3,0,0,0-.073.977,6.6,6.6,0,0,0,.057.968l.036.239.053.236a2.193,2.193,0,0,0,.063.233c.025.077.042.156.074.23l.086.227c.031.074.07.146.1.219l.052.111.063.1q.063.1.124.213c-.054-.062-.108-.124-.16-.188-.027-.032-.053-.064-.079-.1l-.067-.1c-.043-.071-.091-.14-.131-.213l-.108-.226a3.633,3.633,0,0,1-.267-.962,4.625,4.625,0,0,1-.023-1,4.02,4.02,0,0,1,.2-.971" transform="translate(-3448.983 -645.382)" fill="#fff"/>
            </g>
          </g>
        </g>
      </g>
    </g>
  </g>
</svg>
