<svg xmlns="http://www.w3.org/2000/svg" xmlns:xlink="http://www.w3.org/1999/xlink" width="190" height="120" viewBox="0 0 190 120">
  <defs>
    <clipPath id="clip-path">
      <rect id="Rectángulo_401573" data-name="Rectángulo 401573" width="28.836" height="115.5" fill="#3ba935"/>
    </clipPath>
    <clipPath id="clip-path-2">
      <rect id="Rectángulo_401572" data-name="Rectángulo 401572" width="72.283" height="272.76" fill="#3ba935"/>
    </clipPath>
  </defs>
  <g id="Grupo_1113737" data-name="Grupo 1113737" transform="translate(-180.051 -384)">
    <g id="Grupo_1113528" data-name="Grupo 1113528" transform="translate(0 -17)">
      <g id="Grupo_1101503" data-name="Grupo 1101503" transform="translate(180.051 401)">
        <g id="Grupo_1099687" data-name="Grupo 1099687" transform="translate(0 0.333)" clip-path="url(#clip-path)">
          <g id="Grupo_1099686" data-name="Grupo 1099686" transform="translate(-6.669 -57.269)" opacity="0.45" style="mix-blend-mode: multiply;isolation: isolate">
            <g id="Grupo_1099685" data-name="Grupo 1099685">
              <g id="Grupo_1099684" data-name="Grupo 1099684" clip-path="url(#clip-path-2)">
                <path id="Trazado_873516" data-name="Trazado 873516" d="M-.918,14.4,90.238-10.986,89.061-4.937-2.094,20.449Z" transform="matrix(0.898, -0.44, 0.44, 0.898, -5.514, 219.494)" fill="#3ba935"/>
                <path id="Trazado_873517" data-name="Trazado 873517" d="M-.918,14.4,90.238-10.986,89.061-4.937-2.094,20.449Z" transform="matrix(0.898, -0.44, 0.44, 0.898, -5.514, 202.503)" fill="#3ba935"/>
                <path id="Trazado_873518" data-name="Trazado 873518" d="M-.918,14.4,90.238-10.986,89.061-4.937-2.094,20.449Z" transform="matrix(0.898, -0.44, 0.44, 0.898, -5.514, 185.512)" fill="#3ba935"/>
                <path id="Trazado_873519" data-name="Trazado 873519" d="M-.918,14.4,90.238-10.986,89.061-4.937-2.094,20.449Z" transform="matrix(0.898, -0.44, 0.44, 0.898, -5.514, 168.521)" fill="#3ba935"/>
                <path id="Trazado_873520" data-name="Trazado 873520" d="M-.918,14.4,90.238-10.986,89.061-4.937-2.094,20.449Z" transform="matrix(0.898, -0.44, 0.44, 0.898, -5.514, 151.529)" fill="#3ba935"/>
                <path id="Trazado_873521" data-name="Trazado 873521" d="M-.918,14.4,90.238-10.986,89.061-4.937-2.094,20.449Z" transform="matrix(0.898, -0.44, 0.44, 0.898, -5.514, 134.538)" fill="#3ba935"/>
                <path id="Trazado_873522" data-name="Trazado 873522" d="M-.918,14.4,90.238-10.986,89.061-4.937-2.094,20.449Z" transform="matrix(0.898, -0.44, 0.44, 0.898, -5.514, 117.547)" fill="#3ba935"/>
                <path id="Trazado_873523" data-name="Trazado 873523" d="M-.918,14.4,90.238-10.986,89.061-4.937-2.094,20.449Z" transform="matrix(0.898, -0.44, 0.44, 0.898, -5.514, 100.556)" fill="#3ba935"/>
                <path id="Trazado_873524" data-name="Trazado 873524" d="M-.918,14.4,90.238-10.986,89.061-4.937-2.094,20.449Z" transform="matrix(0.898, -0.44, 0.44, 0.898, -5.514, 83.565)" fill="#3ba935"/>
                <path id="Trazado_873525" data-name="Trazado 873525" d="M-.918,14.4,90.238-10.986,89.061-4.937-2.094,20.449Z" transform="matrix(0.898, -0.44, 0.44, 0.898, -5.514, 66.574)" fill="#3ba935"/>
                <path id="Trazado_873526" data-name="Trazado 873526" d="M-.918,14.4,90.238-10.986,89.061-4.937-2.094,20.449Z" transform="translate(-5.514 49.582) rotate(-26.114)" fill="#3ba935"/>
              </g>
            </g>
          </g>
        </g>
        <rect id="Rectángulo_401574" data-name="Rectángulo 401574" width="161" height="120" transform="translate(29)" fill="#ebf6ea"/>
      </g>
    </g>
    <g id="lista-de-tareas_1_" data-name="lista-de-tareas (1)" transform="translate(246.051 386.313)">
      <g id="Grupo_1113723" data-name="Grupo 1113723" transform="translate(1.137 21.824)">
        <path id="Trazado_920578" data-name="Trazado 920578" d="M7.494,34.727V96.366a.94.94,0,0,0,.939.932H61.774a.943.943,0,0,0,.943-.932V39.787l0-.581A.434.434,0,0,0,62.674,39h-7.61a3.77,3.77,0,0,1-3.776-3.75l0-7.019a.535.535,0,0,0-.245-.048H8.433a.94.94,0,0,0-.939.932Z" transform="translate(-7.494 -28.181)" fill="#f9f7f7" fill-rule="evenodd"/>
      </g>
      <g id="Grupo_1113724" data-name="Grupo 1113724" transform="translate(31.025 21.824)">
        <path id="Trazado_920579" data-name="Trazado 920579" d="M208.053,28.181c7.212,7.383,11.91,19.418,11.91,33.017a57.391,57.391,0,0,1-.642,8.584c-.131.889-.288,1.764-.463,2.632q-.314,1.561-.716,3.078c-2.493,9.433-7.383,17.2-13.617,21.806h24.392a.943.943,0,0,0,.943-.932V39.787l0-.581a.434.434,0,0,0-.039-.208L218.435,28.229a.535.535,0,0,0-.245-.048H208.053Z" transform="translate(-204.525 -28.181)" fill="#e2e2e2" fill-rule="evenodd"/>
      </g>
      <g id="Grupo_1113725" data-name="Grupo 1113725" transform="translate(44.93 21.872)">
        <path id="Trazado_920580" data-name="Trazado 920580" d="M296.2,28.5l0,7.019a3.77,3.77,0,0,0,3.776,3.75h7.61a2.889,2.889,0,0,0-.493-.507L296.8,29.021a3.18,3.18,0,0,0-.607-.525Z" transform="translate(-296.192 -28.496)" fill="#cecece" fill-rule="evenodd"/>
      </g>
      <g id="Grupo_1113726" data-name="Grupo 1113726" transform="translate(8.65 49.643)">
        <path id="Trazado_920581" data-name="Trazado 920581" d="M57.846,224.246h11.12a.82.82,0,0,0,.821-.815V212.389a.821.821,0,0,0-.554-.772.763.763,0,0,0-.266-.043H57.846a.82.82,0,0,0-.821.815v11.042A.823.823,0,0,0,57.846,224.246Z" transform="translate(-57.025 -211.574)" fill="#97da7b" fill-rule="evenodd"/>
      </g>
      <g id="Grupo_1113727" data-name="Grupo 1113727" transform="translate(8.65 68.692)">
        <path id="Trazado_920582" data-name="Trazado 920582" d="M57.025,337.965v11.042a.823.823,0,0,0,.821.815h11.12a.82.82,0,0,0,.821-.815V337.965a.82.82,0,0,0-.554-.772.88.88,0,0,0-.266-.043H57.846A.823.823,0,0,0,57.025,337.965Z" transform="translate(-57.025 -337.15)" fill="#97da7b" fill-rule="evenodd"/>
      </g>
      <g id="Grupo_1113728" data-name="Grupo 1113728" transform="translate(16.487 49.643)">
        <path id="Trazado_920583" data-name="Trazado 920583" d="M108.687,224.246h4.1a.82.82,0,0,0,.821-.815V212.389a.821.821,0,0,0-.554-.772.763.763,0,0,0-.266-.043h-4.1a.841.841,0,0,1,.258.043.821.821,0,0,1,.554.772v11.042A.819.819,0,0,1,108.687,224.246Z" transform="translate(-108.687 -211.574)" fill="#68ca44" fill-rule="evenodd"/>
      </g>
      <g id="Grupo_1113729" data-name="Grupo 1113729" transform="translate(16.487 68.692)">
        <path id="Trazado_920584" data-name="Trazado 920584" d="M108.687,349.822h4.1a.82.82,0,0,0,.821-.815V337.965a.82.82,0,0,0-.554-.772.88.88,0,0,0-.266-.043h-4.1a.841.841,0,0,1,.258.043.821.821,0,0,1,.554.772v11.042A.819.819,0,0,1,108.687,349.822Z" transform="translate(-108.687 -337.15)" fill="#68ca44" fill-rule="evenodd"/>
      </g>
      <g id="Grupo_1113730" data-name="Grupo 1113730" transform="translate(64.044 22.973)">
        <path id="Trazado_920585" data-name="Trazado 920585" d="M422.193,43.97h6.1V38.785a3.052,3.052,0,0,0-6.1,0V43.97Z" transform="translate(-422.193 -35.755)" fill="#cecece" fill-rule="evenodd"/>
      </g>
      <g id="Grupo_1113731" data-name="Grupo 1113731" transform="translate(62.708 76.864)">
        <path id="Trazado_920586" data-name="Trazado 920586" d="M415.58,399.073l2.039,4.756c.157.3.157.325.314,0l2.039-4.756,2.2-5.12-4.392-2.931-4.388,2.931Z" transform="translate(-413.389 -391.023)" fill="#838383" fill-rule="evenodd"/>
      </g>
      <g id="Grupo_1113732" data-name="Grupo 1113732" transform="translate(62.708 31.188)">
        <path id="Trazado_920587" data-name="Trazado 920587" d="M413.387,91.239v47.28h8.78V91.239a1.338,1.338,0,0,0-1.34-1.327h-6.1A1.337,1.337,0,0,0,413.387,91.239Z" transform="translate(-413.387 -89.912)" fill="#fe9737" fill-rule="evenodd"/>
      </g>
      <g id="Grupo_1113733" data-name="Grupo 1113733" transform="translate(65.572 22.973)">
        <path id="Trazado_920588" data-name="Trazado 920588" d="M433.791,38.785V43.97h3.052V38.785a3.052,3.052,0,0,0-4.575-2.623A3.033,3.033,0,0,1,433.791,38.785Z" transform="translate(-432.267 -35.755)" fill="#b5adb6" fill-rule="evenodd"/>
      </g>
      <g id="Grupo_1113734" data-name="Grupo 1113734" transform="translate(67.095 31.188)">
        <path id="Trazado_920589" data-name="Trazado 920589" d="M443.651,94.707v43.812H446.7V91.239a1.338,1.338,0,0,0-1.34-1.327h-3.052a1.338,1.338,0,0,1,1.34,1.327Z" transform="translate(-442.311 -89.912)" fill="#f36b37" fill-rule="evenodd"/>
      </g>
      <g id="Grupo_1113735" data-name="Grupo 1113735" transform="translate(65.572 79.795)">
        <path id="Trazado_920590" data-name="Trazado 920590" d="M435.131,410.342l-2.2,5.12-.668,1.565,1.366,3.191c.157.3.157.325.314,0l2.039-4.756,2.2-5.12Z" transform="translate(-432.267 -410.342)" fill="#595959" fill-rule="evenodd"/>
      </g>
      <g id="Grupo_1113736" data-name="Grupo 1113736" transform="translate(0 20.687)">
        <path id="Trazado_920591" data-name="Trazado 920591" d="M57.055,31.742c-.092-.084-10.731-10.171-10.731-10.171l-.152-.145a3.3,3.3,0,0,0-.67-.539,1.142,1.142,0,0,0-.12-.061,1.652,1.652,0,0,0-.691-.139H2.075A2.075,2.075,0,0,0,0,22.756V90.009a2.075,2.075,0,0,0,2.075,2.069H55.417a2.077,2.077,0,0,0,2.08-2.069V58.327a1.137,1.137,0,0,0-2.274,0V89.8H2.274V22.961H43.8l0,5.927a4.828,4.828,0,0,0,1.426,3.441,4.895,4.895,0,0,0,3.487,1.448h6.516V53.033a1.137,1.137,0,1,0,2.274,0V32.64a1.229,1.229,0,0,0-.442-.9ZM46.829,30.723a2.57,2.57,0,0,1-.762-1.832l0-4.43L53.505,31.5h-4.8A2.635,2.635,0,0,1,46.829,30.723Z" transform="translate(0 -20.687)"/>
        <path id="Trazado_920592" data-name="Trazado 920592" d="M127.349,127.024a1.137,1.137,0,0,0-1.137-1.137H104.92a1.137,1.137,0,1,0,0,2.274h21.292A1.137,1.137,0,0,0,127.349,127.024Z" transform="translate(-88.04 -109.929)"/>
        <path id="Trazado_920593" data-name="Trazado 920593" d="M104.92,80.72h21.292a1.137,1.137,0,0,0,0-2.274H104.92a1.137,1.137,0,1,0,0,2.274Z" transform="translate(-88.04 -69.684)"/>
        <path id="Trazado_920594" data-name="Trazado 920594" d="M200.035,267.5h-20.6a1.137,1.137,0,1,0,0,2.274h20.6a1.137,1.137,0,1,0,0-2.274Z" transform="translate(-151.25 -230.058)"/>
        <path id="Trazado_920595" data-name="Trazado 920595" d="M200.035,224.2h-20.6a1.137,1.137,0,1,0,0,2.274h20.6a1.137,1.137,0,1,0,0-2.274Z" transform="translate(-151.25 -193.329)"/>
        <path id="Trazado_920596" data-name="Trazado 920596" d="M200.035,395.246h-20.6a1.137,1.137,0,1,0,0,2.274h20.6a1.137,1.137,0,1,0,0-2.274Z" transform="translate(-151.25 -338.428)"/>
        <path id="Trazado_920597" data-name="Trazado 920597" d="M200.035,351.977h-20.6a1.137,1.137,0,1,0,0,2.274h20.6a1.137,1.137,0,1,0,0-2.274Z" transform="translate(-151.25 -301.723)"/>
        <path id="Trazado_920598" data-name="Trazado 920598" d="M66.157,181.382a1.137,1.137,0,0,0-1.59.237l-2.233,3.017H51.489a1.957,1.957,0,0,0-1.958,1.952v11.042a1.957,1.957,0,0,0,1.958,1.952h11.12a1.957,1.957,0,0,0,1.958-1.952V186.587a1.932,1.932,0,0,0-.206-.867l2.035-2.749A1.137,1.137,0,0,0,66.157,181.382Zm-3.865,15.926H51.8v-10.4h8.846L57.027,191.8l-1.122-1.263a1.137,1.137,0,1,0-1.7,1.51l2.052,2.311a1.137,1.137,0,0,0,.85.382h.051a1.137,1.137,0,0,0,.863-.459l4.271-5.77v8.795Z" transform="translate(-42.017 -156.816)"/>
        <path id="Trazado_920599" data-name="Trazado 920599" d="M66.157,306.959a1.137,1.137,0,0,0-1.59.237l-2.233,3.016H51.489a1.957,1.957,0,0,0-1.958,1.952v11.042a1.957,1.957,0,0,0,1.958,1.952h11.12a1.957,1.957,0,0,0,1.958-1.952V312.164a1.932,1.932,0,0,0-.206-.867l2.035-2.749A1.137,1.137,0,0,0,66.157,306.959Zm-3.865,15.926H51.8v-10.4h8.846l-3.624,4.895-1.122-1.263a1.137,1.137,0,0,0-1.7,1.51l2.052,2.311a1.137,1.137,0,0,0,.85.382h.051a1.136,1.136,0,0,0,.863-.459l4.271-5.769Z" transform="translate(-42.017 -263.344)"/>
        <path id="Trazado_920600" data-name="Trazado 920600" d="M420.851,41.271h-3.906V38.94a2.463,2.463,0,0,0-1.34-2.186V32.428a4.189,4.189,0,0,0-8.377,0v4.326a2.463,2.463,0,0,0-1.336,2.185V86.22c0,.007,0,.014,0,.021s0,.03,0,.046,0,.058.008.087,0,.028.006.042q.009.049.021.1c0,.01,0,.019.007.029a1.154,1.154,0,0,0,.045.126l4.231,9.876q.016.038.035.075l.015.028a1.3,1.3,0,0,0,1.152.821h.018a1.313,1.313,0,0,0,1.163-.878q.011-.023.021-.047l4.235-9.875a1.143,1.143,0,0,0,.045-.127l.007-.027c.009-.032.016-.065.022-.1,0-.014,0-.027.006-.041q.006-.043.008-.088c0-.015,0-.03,0-.045s0-.014,0-.022V77.667a1.137,1.137,0,1,0-2.274,0v7.417h-6.506V38.94a.2.2,0,0,1,.2-.19h6.1a.2.2,0,0,1,.2.19V72.369a1.137,1.137,0,1,0,2.274,0V43.545h2.769V59.437a1.137,1.137,0,0,0,2.274,0V42.408a1.137,1.137,0,0,0-1.137-1.137Zm-6.767,46.086-2.668,6.22-2.664-6.22ZM409.5,36.476V32.428a1.915,1.915,0,0,1,3.83,0v4.048H409.5Z" transform="translate(-344.321 -27.112)"/>
      </g>
    </g>
  </g>
</svg>
