<svg xmlns="http://www.w3.org/2000/svg" xmlns:xlink="http://www.w3.org/1999/xlink" width="190" height="115" viewBox="0 0 190 115">
  <defs>
    <clipPath id="clip-path">
      <rect id="Rectángulo_401573" data-name="Rectángulo 401573" width="28.836" height="111" fill="#3ba935"/>
    </clipPath>
    <clipPath id="clip-path-2">
      <rect id="Rectángulo_401572" data-name="Rectángulo 401572" width="72.283" height="262.133" fill="#3ba935"/>
    </clipPath>
  </defs>
  <g id="Grupo_1107805" data-name="Grupo 1107805" transform="translate(-180.051 -2288.95)">
    <g id="Grupo_1101824" data-name="Grupo 1101824" transform="translate(180.051 2288.95)">
      <g id="Grupo_1099687" data-name="Grupo 1099687" transform="translate(0 0.333)" clip-path="url(#clip-path)">
        <g id="Grupo_1099686" data-name="Grupo 1099686" transform="translate(-6.669 -55.037)" opacity="0.45" style="mix-blend-mode: multiply;isolation: isolate">
          <g id="Grupo_1099685" data-name="Grupo 1099685">
            <g id="Grupo_1099684" data-name="Grupo 1099684" clip-path="url(#clip-path-2)">
              <path id="Trazado_873516" data-name="Trazado 873516" d="M1.075,23.185,91.151,0,90.077,5.841,0,29.026Z" transform="matrix(0.898, -0.44, 0.44, 0.898, -11.17, 203.412)" fill="#3ba935"/>
              <path id="Trazado_873517" data-name="Trazado 873517" d="M1.075,23.185,91.151,0,90.077,5.841,0,29.026Z" transform="matrix(0.898, -0.44, 0.44, 0.898, -11.17, 187.082)" fill="#3ba935"/>
              <path id="Trazado_873518" data-name="Trazado 873518" d="M1.075,23.185,91.151,0,90.077,5.841,0,29.026Z" transform="matrix(0.898, -0.44, 0.44, 0.898, -11.17, 170.753)" fill="#3ba935"/>
              <path id="Trazado_873519" data-name="Trazado 873519" d="M1.075,23.185,91.151,0,90.077,5.841,0,29.026Z" transform="matrix(0.898, -0.44, 0.44, 0.898, -11.17, 154.424)" fill="#3ba935"/>
              <path id="Trazado_873520" data-name="Trazado 873520" d="M1.075,23.185,91.151,0,90.077,5.841,0,29.026Z" transform="matrix(0.898, -0.44, 0.44, 0.898, -11.17, 138.095)" fill="#3ba935"/>
              <path id="Trazado_873521" data-name="Trazado 873521" d="M1.075,23.185,91.151,0,90.077,5.841,0,29.026Z" transform="matrix(0.898, -0.44, 0.44, 0.898, -11.17, 121.766)" fill="#3ba935"/>
              <path id="Trazado_873522" data-name="Trazado 873522" d="M1.075,23.185,91.151,0,90.077,5.841,0,29.026Z" transform="matrix(0.898, -0.44, 0.44, 0.898, -11.17, 105.437)" fill="#3ba935"/>
              <path id="Trazado_873523" data-name="Trazado 873523" d="M1.075,23.185,91.151,0,90.077,5.841,0,29.026Z" transform="matrix(0.898, -0.44, 0.44, 0.898, -11.17, 89.108)" fill="#3ba935"/>
              <path id="Trazado_873524" data-name="Trazado 873524" d="M1.075,23.185,91.151,0,90.077,5.841,0,29.026Z" transform="matrix(0.898, -0.44, 0.44, 0.898, -11.17, 72.779)" fill="#3ba935"/>
              <path id="Trazado_873525" data-name="Trazado 873525" d="M1.075,23.185,91.151,0,90.077,5.841,0,29.026Z" transform="matrix(0.898, -0.44, 0.44, 0.898, -11.17, 56.449)" fill="#3ba935"/>
              <path id="Trazado_873526" data-name="Trazado 873526" d="M1.075,23.185,91.151,0,90.077,5.841,0,29.026Z" transform="translate(-11.17 40.12) rotate(-26.114)" fill="#3ba935"/>
            </g>
          </g>
        </g>
      </g>
      <rect id="Rectángulo_401574" data-name="Rectángulo 401574" width="161" height="115" transform="translate(29)" fill="#ebf6ea"/>
    </g>
    <g id="plan" transform="translate(240.102 2257.95)">
      <g id="Grupo_1107848" data-name="Grupo 1107848" transform="translate(1.292 54.996)">
        <path id="Trazado_916034" data-name="Trazado 916034" d="M7.511,156.773h82.65A3.512,3.512,0,0,1,93,159.611v44.9a3.518,3.518,0,0,1-2.838,2.838H15.727a8.217,8.217,0,0,1-8.216-8.22V156.773Z" transform="translate(-7.511 -140.337)" fill="#ecf4ff" fill-rule="evenodd"/>
        <path id="Trazado_916035" data-name="Trazado 916035" d="M15.727,61.218a8.213,8.213,0,0,0-8.216,8.216V120.01a8.213,8.213,0,0,1,8.216-8.216,7.676,7.676,0,0,1,4.076,1.078.571.571,0,0,0,.878-.536V63.924a2,2,0,0,0-1-1.7,8.129,8.129,0,0,0-3.954-1.009Z" transform="translate(-7.511 -61.218)" fill="#cbe2ff" fill-rule="evenodd"/>
        <path id="Trazado_916036" data-name="Trazado 916036" d="M125.265,195.041h12.277a1.259,1.259,0,0,1,1.253,1.253v12.272a1.256,1.256,0,0,1-1.253,1.253H125.265a1.252,1.252,0,0,1-1.248-1.253V196.294A1.255,1.255,0,0,1,125.265,195.041Z" transform="translate(-103.977 -172.023)" fill="#cbe2ff" fill-rule="evenodd"/>
        <path id="Trazado_916037" data-name="Trazado 916037" d="M411.4,107.585l-5.758-1.75-5.266,1.75v41.093l5.544,1.443,5.48-1.443Z" transform="translate(-332.797 -98.161)" fill="#ff6978" fill-rule="evenodd"/>
        <path id="Trazado_916038" data-name="Trazado 916038" d="M406.578,364.4l2.062-4.057,2.755-5.427H400.371l2.755,5.427,2.063,4.057A.757.757,0,0,0,406.578,364.4Z" transform="translate(-332.797 -304.398)" fill="#ffcbbe" fill-rule="evenodd"/>
        <path id="Trazado_916039" data-name="Trazado 916039" d="M411.4,70.643V64.587a3.379,3.379,0,0,0-3.369-3.369h-4.281a3.38,3.38,0,0,0-3.374,3.369v6.056Z" transform="translate(-332.797 -61.218)" fill="#ff8793" fill-rule="evenodd"/>
        <path id="Trazado_916040" data-name="Trazado 916040" d="M117.823,378.959h8.406l1.38-4.563-1.38-3.55h-8.406a2.614,2.614,0,0,0-2.111,2.116v3.886a2.615,2.615,0,0,0,2.111,2.111Z" transform="translate(-97.101 -317.588)" fill="#f2ce7e" fill-rule="evenodd"/>
        <path id="Trazado_916041" data-name="Trazado 916041" d="M176.856,337.369h10.522l1.438-5.188-1.438-7.982v-1.468a2.614,2.614,0,0,0-2.116-2.116h-6.29a2.614,2.614,0,0,0-2.116,2.116v14.637Z" transform="translate(-147.728 -275.998)" fill="#b3e59f" fill-rule="evenodd"/>
        <path id="Trazado_916042" data-name="Trazado 916042" d="M238.028,354.62h10.517l1.063-3.5-1.063-4.617v-2.945a2.614,2.614,0,0,0-2.116-2.111h-8.4Z" transform="translate(-198.378 -293.25)" fill="#f2ce7e" fill-rule="evenodd"/>
        <path id="Trazado_916043" data-name="Trazado 916043" d="M299.172,378.959h8.406a2.615,2.615,0,0,0,2.111-2.111v-3.886a2.614,2.614,0,0,0-2.111-2.116h-8.406Z" transform="translate(-249.005 -317.588)" fill="#b3e59f" fill-rule="evenodd"/>
        <path id="Trazado_916044" data-name="Trazado 916044" d="M89.391,203.176H14.957a8.179,8.179,0,0,1-3.335-.707,8.212,8.212,0,0,0,7.509,4.88H93.565a3.518,3.518,0,0,0,2.838-2.838v-44.9a3.512,3.512,0,0,0-2.838-2.838H92.229v43.565A3.518,3.518,0,0,1,89.391,203.176Z" transform="translate(-10.915 -140.337)" fill="#cbe2ff" fill-rule="evenodd"/>
        <path id="Trazado_916045" data-name="Trazado 916045" d="M46.034,77.654v34.169a7.436,7.436,0,0,1,3.3,1.048.571.571,0,0,0,.878-.536V63.924a2,2,0,0,0-1-1.7,8.131,8.131,0,0,0-3.954-1.009,8.371,8.371,0,0,0-2.082.263,8.363,8.363,0,0,1,1.863.746,2,2,0,0,1,1,1.7v13.73Z" transform="translate(-37.038 -61.218)" fill="#bed8fb" fill-rule="evenodd"/>
        <path id="Trazado_916046" data-name="Trazado 916046" d="M440.2,116.011V157.1h4.174V116.011Z" transform="translate(-365.774 -106.586)" fill="#eb616f" fill-rule="evenodd"/>
        <path id="Trazado_916047" data-name="Trazado 916047" d="M423.955,64.587v6.056h4.174V64.587a3.379,3.379,0,0,0-3.369-3.369h-4.179A3.38,3.38,0,0,1,423.955,64.587Z" transform="translate(-349.531 -61.218)" fill="#f77b87" fill-rule="evenodd"/>
      </g>
      <path id="Trazado_916048" data-name="Trazado 916048" d="M78.6,63.134V58.366a2.1,2.1,0,0,0-2.082-2.082H72.24a2.089,2.089,0,0,0-2.082,2.082v4.769H78.6ZM24.676,86.318A1.289,1.289,0,1,1,26.5,84.494l1.175,1.175L30.937,82.4a1.291,1.291,0,1,1,1.824,1.828L28.587,88.4a1.292,1.292,0,0,1-1.824,0ZM73.088,71.432a1.29,1.29,0,1,1,2.579,0V98.507a1.29,1.29,0,1,1-2.579,0ZM52.751,115.08h7.938v-5.534H52.751Zm9.225,2.579H19.9a1.294,1.294,0,0,1-1.292-1.292v-8.113a1.29,1.29,0,0,1,1.292-1.287h9.23V99.614a1.286,1.286,0,0,1,1.287-1.287H40.942a1.286,1.286,0,0,1,1.287,1.287v2.292h9.23a1.294,1.294,0,0,1,1.292,1.292v3.769h9.225a1.29,1.29,0,0,1,1.292,1.287v8.113a1.294,1.294,0,0,1-1.292,1.292ZM42.229,115.08h7.938V104.49H42.229Zm-10.517,0H39.65V100.906H31.712Zm-10.522,0h7.943v-5.534H21.19ZM15.749,70.14H67.574V58.366A4.678,4.678,0,0,1,72.24,53.7h4.281a4.678,4.678,0,0,1,4.661,4.661V70.14h5.6a1.29,1.29,0,0,1,1.287,1.292v50.576a1.286,1.286,0,0,1-1.287,1.287H51.064a1.29,1.29,0,0,1,0-2.579H85.487v-48H81.182v9.327a1.29,1.29,0,1,1-2.579,0V65.713H70.158v38.513H78.6V87.893a1.29,1.29,0,1,1,2.579,0v17.621a1.369,1.369,0,0,1-.219.731l-5.432,10.7a1.311,1.311,0,0,1-.575.575,1.284,1.284,0,0,1-1.726-.57l-5.451-10.727a1.372,1.372,0,0,1-.2-.707V72.72H15.749v9.761a1.29,1.29,0,1,1-2.579,0V57.327a6.842,6.842,0,0,0-3.662-1.043,6.925,6.925,0,0,0-6.929,6.928v44.067c.068-.073.137-.146.2-.214a9.482,9.482,0,0,1,6.724-2.784,9.628,9.628,0,0,1,3.023.492c.215.073.429.156.639.244V88.327a1.29,1.29,0,1,1,2.579,0v18.9a1.29,1.29,0,0,1-2.067,1.024,6.755,6.755,0,0,0-1.97-1.039,6.93,6.93,0,1,0-2.2,13.5H45.223a1.29,1.29,0,0,1,0,2.579H9.508A9.505,9.505,0,0,1,0,113.788V63.212a9.508,9.508,0,0,1,15.173-7.635,1.3,1.3,0,0,1,.575,1.078V70.14Zm62.044,36.665H70.962l3.418,6.724ZM60.552,77.956a1.29,1.29,0,0,1,0,2.579H43.092a1.29,1.29,0,0,1,0-2.579Zm-7.26,12.316a1.29,1.29,0,1,1,0,2.579h-10.2a1.29,1.29,0,0,1,0-2.579Zm7.26-6.158a1.29,1.29,0,0,1,0,2.579H43.092a1.29,1.29,0,0,1,0-2.579ZM21.332,76.723H36.11A1.29,1.29,0,0,1,37.4,78.015V92.793a1.29,1.29,0,0,1-1.287,1.292H21.332a1.291,1.291,0,0,1-1.292-1.292V78.015a1.291,1.291,0,0,1,1.292-1.292Zm13.487,2.584h-12.2v12.2h12.2Z"/>
    </g>
  </g>
</svg>
