<svg id="Grupo_1107862" data-name="Grupo 1107862" xmlns="http://www.w3.org/2000/svg" xmlns:xlink="http://www.w3.org/1999/xlink" width="143.72" height="275.642" viewBox="0 0 143.72 275.642">
  <defs>
    <clipPath id="clip-path">
      <rect id="Rectángulo_406356" data-name="Rectángulo 406356" width="143.72" height="275.641" fill="none"/>
    </clipPath>
  </defs>
  <g id="Grupo_1107861" data-name="Grupo 1107861" clip-path="url(#clip-path)">
    <path id="Trazado_916112" data-name="Trazado 916112" d="M11.257,177.729l.079-24.016,43.991.144,23.937,24.1Z" transform="translate(-2.728 -37.257)" fill="#ff761e"/>
    <path id="Trazado_916113" data-name="Trazado 916113" d="M60.942,160.99l-.921-.927L11.34,159.9l0,.924Z" transform="translate(-2.748 -38.757)" fill="#d14d00"/>
    <path id="Trazado_916114" data-name="Trazado 916114" d="M11.349,157.208l46.863.154-.921-.927-45.939-.152Z" transform="translate(-2.751 -37.88)" fill="#d14d00"/>
    <path id="Trazado_916115" data-name="Trazado 916115" d="M66.4,168.248l-.921-.927-54.165-.177,0,.924Z" transform="translate(-2.742 -40.512)" fill="#d14d00"/>
    <path id="Trazado_916116" data-name="Trazado 916116" d="M63.672,164.619l-.921-.927-51.424-.17,0,.924Z" transform="translate(-2.745 -39.634)" fill="#d14d00"/>
    <path id="Trazado_916117" data-name="Trazado 916117" d="M77.324,182.762l-.921-.927-65.134-.214,0,.924Z" transform="translate(-2.73 -44.021)" fill="#d14d00"/>
    <path id="Trazado_916118" data-name="Trazado 916118" d="M74.593,179.133l-.921-.927L11.281,178l0,.924Z" transform="translate(-2.733 -43.143)" fill="#d14d00"/>
    <path id="Trazado_916119" data-name="Trazado 916119" d="M71.863,175.5l-.921-.927-59.65-.2,0,.924Z" transform="translate(-2.736 -42.266)" fill="#d14d00"/>
    <path id="Trazado_916120" data-name="Trazado 916120" d="M69.133,171.877l-.921-.927L11.3,170.763l0,.924Z" transform="translate(-2.739 -41.389)" fill="#d14d00"/>
    <rect id="Rectángulo_406315" data-name="Rectángulo 406315" width="108.926" height="73.02" transform="translate(27.573 275.401) rotate(-89.812)" fill="#ddd"/>
    <rect id="Rectángulo_406316" data-name="Rectángulo 406316" width="103.368" height="67.961" transform="translate(30.112 272.631) rotate(-89.812)" fill="#73c8e2"/>
    <path id="Trazado_916121" data-name="Trazado 916121" d="M118.237,304.814l.089-26.881L82.71,340.1l15.282.05Z" transform="translate(-20.047 -67.365)" fill="#8fd3e8"/>
    <path id="Trazado_916122" data-name="Trazado 916122" d="M39.777,317.233l-.032,9.6,22.558.074L107.969,247.2l.077-23.506-14.655-.048Z" transform="translate(-9.633 -54.206)" fill="#8fd3e8"/>
    <rect id="Rectángulo_406317" data-name="Rectángulo 406317" width="4.233" height="26.325" transform="translate(51.279 166.553) rotate(-89.812)" fill="#353535"/>
    <rect id="Rectángulo_406318" data-name="Rectángulo 406318" width="1.346" height="26.325" transform="translate(51.279 166.553) rotate(-89.812)" fill="#212121"/>
    <path id="Trazado_916123" data-name="Trazado 916123" d="M69.377,153.9h0c9.348,9.41,14.589,14.686,23.937,24.1l-.072,21.707-24.016-.079Z" transform="translate(-16.779 -37.303)" fill="#ff761e"/>
    <rect id="Rectángulo_406319" data-name="Rectángulo 406319" width="24.016" height="1.991" transform="translate(50.531 140.611) rotate(-89.826)" fill="#bd4300"/>
    <rect id="Rectángulo_406320" data-name="Rectángulo 406320" width="28.635" height="7.361" transform="translate(1.16 142.757) rotate(-89.811)" fill="#353535"/>
    <rect id="Rectángulo_406321" data-name="Rectángulo 406321" width="25.633" height="4.763" transform="translate(1.165 141.256) rotate(-89.809)" fill="#fff"/>
    <rect id="Rectángulo_406322" data-name="Rectángulo 406322" width="25.633" height="1.083" transform="translate(4.843 141.268) rotate(-89.8)" fill="#cdcbca"/>
    <rect id="Rectángulo_406323" data-name="Rectángulo 406323" width="0.837" height="3.118" transform="translate(1.169 140.21) rotate(-89.819)" fill="#f3ae02"/>
    <rect id="Rectángulo_406324" data-name="Rectángulo 406324" width="0.837" height="3.118" transform="translate(1.175 138.464) rotate(-89.819)" fill="#f3ae02"/>
    <rect id="Rectángulo_406325" data-name="Rectángulo 406325" width="0.838" height="3.118" transform="translate(1.18 136.717) rotate(-89.805)" fill="#f3ae02"/>
    <rect id="Rectángulo_406326" data-name="Rectángulo 406326" width="0.837" height="3.118" transform="translate(1.186 134.971) rotate(-89.819)" fill="#f3ae02"/>
    <rect id="Rectángulo_406327" data-name="Rectángulo 406327" width="0.837" height="3.118" transform="translate(1.192 133.224) rotate(-89.805)" fill="#f3ae02"/>
    <rect id="Rectángulo_406328" data-name="Rectángulo 406328" width="0.837" height="3.118" transform="translate(1.198 131.478) rotate(-89.805)" fill="#f3ae02"/>
    <rect id="Rectángulo_406329" data-name="Rectángulo 406329" width="0.837" height="3.117" transform="translate(1.204 129.731) rotate(-89.805)" fill="#f3ae02"/>
    <rect id="Rectángulo_406330" data-name="Rectángulo 406330" width="0.837" height="3.117" transform="translate(1.209 127.985) rotate(-89.805)" fill="#f3ae02"/>
    <rect id="Rectángulo_406331" data-name="Rectángulo 406331" width="0.837" height="3.118" transform="translate(1.215 126.239) rotate(-89.819)" fill="#f3ae02"/>
    <rect id="Rectángulo_406332" data-name="Rectángulo 406332" width="0.837" height="3.118" transform="translate(1.22 124.493) rotate(-89.819)" fill="#f3ae02"/>
    <rect id="Rectángulo_406333" data-name="Rectángulo 406333" width="0.837" height="3.118" transform="translate(1.226 122.746) rotate(-89.819)" fill="#f3ae02"/>
    <rect id="Rectángulo_406334" data-name="Rectángulo 406334" width="0.837" height="3.117" transform="translate(1.232 120.999) rotate(-89.805)" fill="#f3ae02"/>
    <rect id="Rectángulo_406335" data-name="Rectángulo 406335" width="0.837" height="3.117" transform="translate(1.238 119.253) rotate(-89.805)" fill="#f3ae02"/>
    <rect id="Rectángulo_406336" data-name="Rectángulo 406336" width="0.837" height="3.117" transform="translate(1.244 117.507) rotate(-89.805)" fill="#f3ae02"/>
    <path id="Trazado_916124" data-name="Trazado 916124" d="M75.553,160.115l-.135,41.033.924,0,.132-40.109-.921-.927" transform="translate(-18.28 -38.808)" fill="#a93800"/>
    <path id="Trazado_916125" data-name="Trazado 916125" d="M71.942,156.483,71.8,200.258l.924,0,.141-42.851-.921-.927" transform="translate(-17.402 -37.928)" fill="#a93800"/>
    <path id="Trazado_916126" data-name="Trazado 916126" d="M82.773,167.378l-.117,35.548.924,0,.114-34.625-.921-.927" transform="translate(-20.034 -40.569)" fill="#a93800"/>
    <path id="Trazado_916127" data-name="Trazado 916127" d="M79.163,163.746l-.126,38.29.924,0,.123-37.367-.921-.927" transform="translate(-19.157 -39.688)" fill="#a93800"/>
    <path id="Trazado_916128" data-name="Trazado 916128" d="M97.216,181.9l-.081,24.58.924,0,.077-23.655-.921-.927" transform="translate(-23.543 -44.089)" fill="#a93800"/>
    <path id="Trazado_916129" data-name="Trazado 916129" d="M93.605,178.272l-.09,27.321.924,0,.087-26.4-.921-.927" transform="translate(-22.666 -43.209)" fill="#a93800"/>
    <path id="Trazado_916130" data-name="Trazado 916130" d="M89.994,174.641,89.9,204.7l.924,0,.1-29.14-.921-.927" transform="translate(-21.789 -42.329)" fill="#a93800"/>
    <path id="Trazado_916131" data-name="Trazado 916131" d="M86.385,171.009l-.108,32.806.924,0,.1-31.882-.921-.927" transform="translate(-20.912 -41.449)" fill="#a93800"/>
    <path id="Trazado_916132" data-name="Trazado 916132" d="M28.06,357.61l5.491.018.022-6.892-5.491-.018a3.446,3.446,0,0,0-.022,6.892m.317-5.348a1.9,1.9,0,1,1-1.909,1.9,1.9,1.9,0,0,1,1.909-1.9" transform="translate(-5.969 -85.006)" fill="#ddd"/>
    <rect id="Rectángulo_406337" data-name="Rectángulo 406337" width="6.892" height="1.689" transform="translate(25.894 272.617) rotate(-89.82)" fill="#a6a6a6"/>
    <path id="Trazado_916133" data-name="Trazado 916133" d="M141.735,354.535a3.446,3.446,0,0,0-3.434-3.457l-5.491-.018-.023,6.892,5.491.017a3.445,3.445,0,0,0,3.457-3.434m-1.842-.006a1.9,1.9,0,1,1-1.9-1.909,1.9,1.9,0,0,1,1.9,1.909" transform="translate(-32.185 -85.089)" fill="#ddd"/>
    <rect id="Rectángulo_406338" data-name="Rectángulo 406338" width="6.892" height="1.69" transform="translate(100.603 272.863) rotate(-89.82)" fill="#a6a6a6"/>
    <path id="Trazado_916134" data-name="Trazado 916134" d="M28.479,230.27l5.491.018.023-6.892-5.491-.018a3.446,3.446,0,0,0-.023,6.892m.317-5.348a1.9,1.9,0,1,1-1.909,1.9,1.9,1.9,0,0,1,1.909-1.9" transform="translate(-6.07 -54.142)" fill="#ddd"/>
    <rect id="Rectángulo_406339" data-name="Rectángulo 406339" width="6.892" height="1.689" transform="translate(26.211 176.141) rotate(-89.82)" fill="#a6a6a6"/>
    <path id="Trazado_916135" data-name="Trazado 916135" d="M142.155,227.194a3.446,3.446,0,0,0-3.435-3.457l-5.491-.019-.023,6.892,5.491.019a3.447,3.447,0,0,0,3.458-3.435m-1.843-.006a1.9,1.9,0,1,1-1.9-1.909,1.9,1.9,0,0,1,1.9,1.909" transform="translate(-32.286 -54.224)" fill="#ddd"/>
    <rect id="Rectángulo_406340" data-name="Rectángulo 406340" width="6.892" height="1.69" transform="matrix(0.003, -1, 1, 0.003, 100.92, 176.387)" fill="#a6a6a6"/>
    <rect id="Rectángulo_406341" data-name="Rectángulo 406341" width="110.196" height="110.196" transform="translate(0 144.902) rotate(-89.319)" fill="#fff"/>
    <rect id="Rectángulo_406342" data-name="Rectángulo 406342" width="3.555" height="110.196" transform="translate(1.196 44.189) rotate(-89.316)" fill="#c9c9c9"/>
    <rect id="Rectángulo_406343" data-name="Rectángulo 406343" width="3.555" height="110.196" transform="matrix(0.012, -1, 1, 0.012, 1.084, 53.667)" fill="#c9c9c9"/>
    <rect id="Rectángulo_406344" data-name="Rectángulo 406344" width="3.555" height="110.196" transform="translate(0.971 63.146) rotate(-89.316)" fill="#c9c9c9"/>
    <rect id="Rectángulo_406345" data-name="Rectángulo 406345" width="3.555" height="110.196" transform="translate(0.859 72.625) rotate(-89.316)" fill="#c9c9c9"/>
    <rect id="Rectángulo_406346" data-name="Rectángulo 406346" width="3.555" height="110.196" transform="translate(0.746 82.103) rotate(-89.316)" fill="#c9c9c9"/>
    <rect id="Rectángulo_406347" data-name="Rectángulo 406347" width="3.555" height="110.196" transform="translate(0.633 91.582) rotate(-89.316)" fill="#c9c9c9"/>
    <rect id="Rectángulo_406348" data-name="Rectángulo 406348" width="3.555" height="110.196" transform="translate(0.521 101.06) rotate(-89.316)" fill="#c9c9c9"/>
    <rect id="Rectángulo_406349" data-name="Rectángulo 406349" width="3.555" height="110.196" transform="translate(0.408 110.539) rotate(-89.316)" fill="#c9c9c9"/>
    <rect id="Rectángulo_406350" data-name="Rectángulo 406350" width="3.555" height="110.196" transform="translate(0.296 120.017) rotate(-89.316)" fill="#c9c9c9"/>
    <rect id="Rectángulo_406351" data-name="Rectángulo 406351" width="3.555" height="110.196" transform="translate(0.183 129.496) rotate(-89.316)" fill="#c9c9c9"/>
    <rect id="Rectángulo_406352" data-name="Rectángulo 406352" width="3.555" height="110.196" transform="translate(0.071 138.974) rotate(-89.316)" fill="#c9c9c9"/>
    <path id="Trazado_916136" data-name="Trazado 916136" d="M48.091,117.379l-9.469,6.054a23.222,23.222,0,0,1-9.387,3.448,7.441,7.441,0,0,1-8.391-6.293,40.376,40.376,0,0,1,1.383-17.375,2.328,2.328,0,0,1,3.992-.864l3.944,4.583a19.763,19.763,0,0,0,6.433,4.929Z" transform="translate(-4.959 -24.612)" fill="#fdd44e"/>
    <path id="Trazado_916137" data-name="Trazado 916137" d="M25.294,101.576a2.277,2.277,0,0,1,2.1.776l3.944,4.583a19.781,19.781,0,0,0,6.433,4.929l6.156,2.954c-.077.5-.125.8-.125.8s-2.54-.9-7.3-3.063c-4.034-1.83-9.6-8.874-11.2-10.978" transform="translate(-6.131 -24.613)" fill="#bb910d"/>
    <path id="Trazado_916138" data-name="Trazado 916138" d="M52.374,100.45,41.4,98.036a23.229,23.229,0,0,1-9.075-4.2,7.443,7.443,0,0,1-1.485-10.383A40.382,40.382,0,0,1,44.1,72.144a2.328,2.328,0,0,1,3.434,2.213l-.452,6.029a19.774,19.774,0,0,0,1.064,8.034Z" transform="translate(-7.116 -17.418)" fill="#fdd44e"/>
    <path id="Trazado_916139" data-name="Trazado 916139" d="M51.9,72.474a2.274,2.274,0,0,1,.933,2.03l-.452,6.029a19.779,19.779,0,0,0,1.064,8.035L55.71,95.01c-.409.3-.654.477-.654.477s-1.156-2.435-3-7.327c-1.559-4.147-.514-13.065-.16-15.686" transform="translate(-12.417 -17.566)" fill="#bb910d"/>
    <path id="Trazado_916140" data-name="Trazado 916140" d="M67.743,93.653l-6.054-9.469A23.222,23.222,0,0,1,58.241,74.8a7.441,7.441,0,0,1,6.293-8.391,40.374,40.374,0,0,1,17.375,1.381,2.329,2.329,0,0,1,.864,3.993l-4.583,3.944a19.755,19.755,0,0,0-4.929,6.433Z" transform="translate(-14.1 -16.002)" fill="#fdd44e"/>
    <path id="Trazado_916141" data-name="Trazado 916141" d="M87.173,70.856a2.277,2.277,0,0,1-.776,2.1L81.814,76.9a19.792,19.792,0,0,0-4.929,6.433l-2.954,6.156c-.5-.077-.8-.125-.8-.125s.9-2.54,3.062-7.3c1.83-4.035,8.875-9.6,10.979-11.2" transform="translate(-17.726 -17.174)" fill="#bb910d"/>
    <path id="Trazado_916142" data-name="Trazado 916142" d="M83.654,97.935l2.414-10.976a23.244,23.244,0,0,1,4.2-9.076A7.442,7.442,0,0,1,100.651,76.4,40.382,40.382,0,0,1,111.96,89.661a2.328,2.328,0,0,1-2.213,3.434l-6.029-.451a19.766,19.766,0,0,0-8.035,1.063Z" transform="translate(-20.276 -18.159)" fill="#fdd44e"/>
    <path id="Trazado_916143" data-name="Trazado 916143" d="M113.414,97.462a2.278,2.278,0,0,1-2.031.934l-6.029-.452a19.762,19.762,0,0,0-8.034,1.063l-6.443,2.264-.477-.653s2.435-1.157,7.328-3c4.146-1.559,13.064-.514,15.686-.16" transform="translate(-21.911 -23.46)" fill="#bb910d"/>
    <path id="Trazado_916144" data-name="Trazado 916144" d="M90.757,113.3l9.469-6.054a23.218,23.218,0,0,1,9.387-3.448A7.441,7.441,0,0,1,118,110.095a40.4,40.4,0,0,1-1.381,17.375,2.329,2.329,0,0,1-3.993.864l-3.944-4.583a19.755,19.755,0,0,0-6.433-4.929Z" transform="translate(-21.997 -25.142)" fill="#fdd44e"/>
    <path id="Trazado_916145" data-name="Trazado 916145" d="M116.434,132.735a2.277,2.277,0,0,1-2.1-.776l-3.944-4.583a19.781,19.781,0,0,0-6.433-4.929l-6.156-2.954c.077-.5.125-.8.125-.8s2.54.9,7.3,3.062c4.035,1.83,9.6,8.875,11.2,10.979" transform="translate(-23.706 -28.769)" fill="#bb910d"/>
    <path id="Trazado_916146" data-name="Trazado 916146" d="M87.953,129.216l10.976,2.415a23.221,23.221,0,0,1,9.076,4.2,7.442,7.442,0,0,1,1.484,10.383,40.381,40.381,0,0,1-13.263,11.309,2.328,2.328,0,0,1-3.434-2.213l.451-6.029a19.766,19.766,0,0,0-1.063-8.035Z" transform="translate(-21.318 -31.319)" fill="#fdd44e"/>
    <path id="Trazado_916147" data-name="Trazado 916147" d="M94.354,158.975a2.277,2.277,0,0,1-.934-2.03l.452-6.029a19.766,19.766,0,0,0-1.063-8.035l-2.264-6.442c.408-.3.653-.477.653-.477s1.157,2.435,3,7.327c1.559,4.147.514,13.065.16,15.686" transform="translate(-21.946 -32.954)" fill="#bb910d"/>
    <path id="Trazado_916148" data-name="Trazado 916148" d="M71.818,136.318l6.054,9.469a23.222,23.222,0,0,1,3.448,9.387,7.441,7.441,0,0,1-6.293,8.391,40.374,40.374,0,0,1-17.375-1.381,2.329,2.329,0,0,1-.864-3.993l4.583-3.944a19.765,19.765,0,0,0,4.929-6.433Z" transform="translate(-13.569 -33.04)" fill="#fdd44e"/>
    <path id="Trazado_916149" data-name="Trazado 916149" d="M56.014,162a2.277,2.277,0,0,1,.775-2.1l4.583-3.944a19.776,19.776,0,0,0,4.929-6.432l2.955-6.156c.5.077.8.125.8.125s-.9,2.54-3.062,7.3c-1.83,4.035-8.875,9.6-10.979,11.2" transform="translate(-13.57 -34.749)" fill="#bb910d"/>
    <path id="Trazado_916150" data-name="Trazado 916150" d="M54.888,133.514,52.474,144.49a23.232,23.232,0,0,1-4.2,9.076,7.442,7.442,0,0,1-10.383,1.484,40.382,40.382,0,0,1-11.309-13.263,2.329,2.329,0,0,1,2.213-3.434l6.029.452a19.766,19.766,0,0,0,8.035-1.063Z" transform="translate(-6.375 -32.361)" fill="#fdd44e"/>
    <path id="Trazado_916151" data-name="Trazado 916151" d="M26.913,139.915a2.275,2.275,0,0,1,2.031-.933l6.028.451a19.766,19.766,0,0,0,8.035-1.063l6.442-2.264c.3.409.477.653.477.653s-2.435,1.157-7.327,3c-4.147,1.559-13.065.514-15.686.16" transform="translate(-6.523 -32.989)" fill="#bb910d"/>
    <rect id="Rectángulo_406353" data-name="Rectángulo 406353" width="93.213" height="8.393" transform="matrix(0.012, -1, 1, 0.012, 51.195, 137.018)" fill="#404040"/>
    <rect id="Rectángulo_406354" data-name="Rectángulo 406354" width="8.986" height="93.212" transform="translate(9.29 94.403) rotate(-89.319)" fill="#404040"/>
    <path id="Trazado_916152" data-name="Trazado 916152" d="M44.739,116.548a22.339,22.339,0,0,1,.107-8.985l17.7.211.205-17.3a22.173,22.173,0,0,1,8.391.17l-.2,17.229,17.308.205a22.353,22.353,0,0,1-.106,8.985l-17.309-.205-.2,17.228a22.17,22.17,0,0,1-8.394-.029l.205-17.3Z" transform="translate(-10.746 -21.851)" fill="#323232"/>
    <path id="Trazado_916153" data-name="Trazado 916153" d="M31.31,163.773,20.245,174.578a7.33,7.33,0,0,1-10.365-.123h0A7.33,7.33,0,0,1,10,164.091l11.032-10.773A44.974,44.974,0,0,0,31.31,163.773" transform="translate(-1.889 -37.161)" fill="#404040"/>
    <path id="Trazado_916154" data-name="Trazado 916154" d="M108.636,67.732l11.232-10.967a7.329,7.329,0,1,1,10.242,10.488l-11.265,11a44.972,44.972,0,0,0-10.208-10.521" transform="translate(-26.331 -13.253)" fill="#404040"/>
    <path id="Trazado_916155" data-name="Trazado 916155" d="M17.813,158.914l5.4-5.268A45.321,45.321,0,0,0,33.484,164.1l-5.4,5.275a52.814,52.814,0,0,1-10.269-10.462" transform="translate(-4.317 -37.24)" fill="#323232"/>
    <path id="Trazado_916156" data-name="Trazado 916156" d="M124.582,75.14l-5.4,5.275a45.318,45.318,0,0,0-10.209-10.521l5.4-5.269A52.834,52.834,0,0,1,124.582,75.14" transform="translate(-26.412 -15.664)" fill="#323232"/>
    <path id="Trazado_916157" data-name="Trazado 916157" d="M21.975,76.837,11.2,65.806A7.33,7.33,0,0,1,21.691,55.563L32.5,66.629A44.972,44.972,0,0,0,21.975,76.837" transform="translate(-2.21 -12.932)" fill="#404040"/>
    <path id="Trazado_916158" data-name="Trazado 916158" d="M107.5,164.429a44.945,44.945,0,0,0,10.455-10.276l11,11.265a7.33,7.33,0,0,1-10.489,10.242Z" transform="translate(-26.055 -37.363)" fill="#404040"/>
    <path id="Trazado_916159" data-name="Trazado 916159" d="M29.321,63.409l5.275,5.4A45.315,45.315,0,0,0,24.076,79.02l-5.269-5.4A52.855,52.855,0,0,1,29.321,63.409" transform="translate(-4.558 -15.369)" fill="#323232"/>
    <path id="Trazado_916160" data-name="Trazado 916160" d="M113.095,170.16l-5.269-5.4a45.318,45.318,0,0,0,10.455-10.276l5.276,5.4a52.855,52.855,0,0,1-10.463,10.268" transform="translate(-26.135 -37.445)" fill="#323232"/>
    <path id="Trazado_916161" data-name="Trazado 916161" d="M57.4,152.577a48.785,48.785,0,1,0-48.2-49.361,48.784,48.784,0,0,0,48.2,49.361m.083-6.918A41.867,41.867,0,1,1,99.84,104.293a41.866,41.866,0,0,1-42.361,41.366" transform="translate(-2.228 -13.333)" fill="#404040"/>
    <path id="Trazado_916162" data-name="Trazado 916162" d="M67.064,132.765A19.65,19.65,0,1,0,47.65,112.883a19.65,19.65,0,0,0,19.415,19.882" transform="translate(-11.549 -22.654)" fill="#404040"/>
    <path id="Trazado_916163" data-name="Trazado 916163" d="M16.052,177.523a4.819,4.819,0,1,0-4.762-4.876,4.819,4.819,0,0,0,4.762,4.876" transform="translate(-2.736 -40.691)" fill="#b2b2b2"/>
    <path id="Trazado_916164" data-name="Trazado 916164" d="M15.08,171.645l-4.068-.048a5.134,5.134,0,0,1,4.117-4.02Z" transform="translate(-2.669 -40.617)" fill="#e5e5e5"/>
    <path id="Trazado_916165" data-name="Trazado 916165" d="M15.05,175.5,15,179.567a5.133,5.133,0,0,1-4.02-4.117Z" transform="translate(-2.662 -42.525)" fill="#e5e5e5"/>
    <path id="Trazado_916166" data-name="Trazado 916166" d="M18.9,175.544l4.068.048a5.134,5.134,0,0,1-4.117,4.02Z" transform="translate(-4.57 -42.548)" fill="#e5e5e5"/>
    <path id="Trazado_916167" data-name="Trazado 916167" d="M18.949,171.676,19,167.608a5.134,5.134,0,0,1,4.02,4.117Z" transform="translate(-4.593 -40.624)" fill="#e5e5e5"/>
    <path id="Trazado_916168" data-name="Trazado 916168" d="M126.825,178.839a4.819,4.819,0,1,0-4.762-4.876,4.819,4.819,0,0,0,4.762,4.876" transform="translate(-29.585 -41.01)" fill="#b2b2b2"/>
    <path id="Trazado_916169" data-name="Trazado 916169" d="M125.854,172.961l-4.068-.048a5.133,5.133,0,0,1,4.117-4.02Z" transform="translate(-29.518 -40.936)" fill="#e5e5e5"/>
    <path id="Trazado_916170" data-name="Trazado 916170" d="M125.823,176.814l-.048,4.068a5.133,5.133,0,0,1-4.02-4.117Z" transform="translate(-29.511 -42.844)" fill="#e5e5e5"/>
    <path id="Trazado_916171" data-name="Trazado 916171" d="M129.676,176.86l4.069.048a5.134,5.134,0,0,1-4.118,4.02Z" transform="translate(-31.419 -42.867)" fill="#e5e5e5"/>
    <path id="Trazado_916172" data-name="Trazado 916172" d="M129.722,172.991l.048-4.068a5.134,5.134,0,0,1,4.02,4.117Z" transform="translate(-31.442 -40.943)" fill="#e5e5e5"/>
    <path id="Trazado_916173" data-name="Trazado 916173" d="M17.368,66.767a4.819,4.819,0,1,0-4.762-4.876,4.82,4.82,0,0,0,4.762,4.876" transform="translate(-3.055 -13.847)" fill="#b2b2b2"/>
    <path id="Trazado_916174" data-name="Trazado 916174" d="M16.4,60.889l-4.069-.048a5.136,5.136,0,0,1,4.118-4.021Z" transform="translate(-2.988 -13.772)" fill="#e5e5e5"/>
    <path id="Trazado_916175" data-name="Trazado 916175" d="M16.366,64.742l-.048,4.068a5.135,5.135,0,0,1-4.02-4.117Z" transform="translate(-2.981 -15.68)" fill="#e5e5e5"/>
    <path id="Trazado_916176" data-name="Trazado 916176" d="M20.218,64.788l4.069.048a5.134,5.134,0,0,1-4.118,4.02Z" transform="translate(-4.889 -15.703)" fill="#e5e5e5"/>
    <path id="Trazado_916177" data-name="Trazado 916177" d="M20.265,60.92l.048-4.069a5.134,5.134,0,0,1,4.02,4.118Z" transform="translate(-4.912 -13.779)" fill="#e5e5e5"/>
    <path id="Trazado_916178" data-name="Trazado 916178" d="M128.141,68.083a4.819,4.819,0,1,0-4.762-4.876,4.819,4.819,0,0,0,4.762,4.876" transform="translate(-29.904 -14.166)" fill="#b2b2b2"/>
    <path id="Trazado_916179" data-name="Trazado 916179" d="M127.169,62.205l-4.068-.048a5.135,5.135,0,0,1,4.117-4.02Z" transform="translate(-29.837 -14.091)" fill="#e5e5e5"/>
    <path id="Trazado_916180" data-name="Trazado 916180" d="M127.139,66.057l-.048,4.068a5.132,5.132,0,0,1-4.02-4.117Z" transform="translate(-29.83 -15.999)" fill="#e5e5e5"/>
    <path id="Trazado_916181" data-name="Trazado 916181" d="M130.991,66.1l4.069.048a5.135,5.135,0,0,1-4.118,4.02Z" transform="translate(-31.738 -16.022)" fill="#e5e5e5"/>
    <path id="Trazado_916182" data-name="Trazado 916182" d="M131.038,62.235l.048-4.069a5.135,5.135,0,0,1,4.02,4.118Z" transform="translate(-31.761 -14.098)" fill="#e5e5e5"/>
    <path id="Trazado_916183" data-name="Trazado 916183" d="M157.961,97.507l.8-67.436-1.777-.021-.78,65.659-56.756-.674-.02,1.777Z" transform="translate(-24.099 -7.283)" fill="#fdd44e"/>
    <path id="Trazado_916184" data-name="Trazado 916184" d="M161.944,101.717l.85-71.582-1.777-.021-.829,69.806-60.8-.723-.021,1.777Z" transform="translate(-24.083 -7.299)" fill="#fdd44e"/>
    <rect id="Rectángulo_406355" data-name="Rectángulo 406355" width="22.711" height="15.404" transform="translate(128.048 22.709) rotate(-89.32)" fill="#e5e5e5"/>
  </g>
</svg>
