<svg id="Grupo_1107869" data-name="Grupo 1107869" xmlns="http://www.w3.org/2000/svg" xmlns:xlink="http://www.w3.org/1999/xlink" width="184.974" height="181.896" viewBox="0 0 184.974 181.896">
  <defs>
    <clipPath id="clip-path">
      <rect id="Rectángulo_406371" data-name="Rectángulo 406371" width="184.974" height="181.895" fill="none"/>
    </clipPath>
    <clipPath id="clip-path-3">
      <rect id="Rectángulo_406369" data-name="Rectángulo 406369" width="129.361" height="181.895" fill="none"/>
    </clipPath>
  </defs>
  <g id="Grupo_1107868" data-name="Grupo 1107868" clip-path="url(#clip-path)">
    <path id="Trazado_916185" data-name="Trazado 916185" d="M251.236,71.826l-1.978.659-13.322-23.59,11.548-3.85Z" transform="translate(-68.412 -13.061)" fill="#999"/>
    <rect id="Rectángulo_406357" data-name="Rectángulo 406357" width="13.133" height="1.916" transform="matrix(0.902, -0.432, 0.432, 0.902, 168.146, 38.866)" fill="#ddd"/>
    <rect id="Rectángulo_406358" data-name="Rectángulo 406358" width="11.529" height="1.917" transform="translate(170.162 42.398) rotate(-25.569)" fill="#ddd"/>
    <rect id="Rectángulo_406359" data-name="Rectángulo 406359" width="9.928" height="1.917" transform="translate(172.177 45.932) rotate(-25.57)" fill="#ddd"/>
    <rect id="Rectángulo_406360" data-name="Rectángulo 406360" width="8.549" height="1.917" transform="translate(174.092 49.514) rotate(-25.571)" fill="#ddd"/>
    <rect id="Rectángulo_406361" data-name="Rectángulo 406361" width="7.14" height="1.916" transform="translate(176.02 53.088) rotate(-25.569)" fill="#ddd"/>
    <rect id="Rectángulo_406362" data-name="Rectángulo 406362" width="5.464" height="1.917" transform="translate(178.069 56.605) rotate(-25.566)" fill="#ddd"/>
    <g id="Grupo_1107867" data-name="Grupo 1107867">
      <g id="Grupo_1107866" data-name="Grupo 1107866" clip-path="url(#clip-path)">
        <path id="Trazado_916186" data-name="Trazado 916186" d="M239.667,34.157l-1.554.518,1.8,5.406-3.015,1-1.8-5.406-1.553.518a8.9,8.9,0,0,0-5.631,11.26l23.012-7.671a8.9,8.9,0,0,0-11.26-5.631" transform="translate(-65.954 -9.771)" fill="#ddd"/>
        <rect id="Rectángulo_406363" data-name="Rectángulo 406363" width="129.364" height="180.986" transform="translate(27.8 0.913) rotate(-0.404)" fill="#727272"/>
        <path id="Trazado_916187" data-name="Trazado 916187" d="M161.409,172.393l-101.239.715L59.1,22.118l51.389-.363a49.851,49.851,0,0,1,50.2,49.5Z" transform="translate(-17.138 -6.308)" fill="#ddd"/>
        <rect id="Rectángulo_406364" data-name="Rectángulo 406364" width="38.368" height="2.679" transform="translate(54.023 30.523) rotate(-0.405)" fill="#555"/>
        <rect id="Rectángulo_406365" data-name="Rectángulo 406365" width="42.084" height="2.678" transform="translate(50.341 35.37) rotate(-0.404)" fill="#555"/>
        <rect id="Rectángulo_406366" data-name="Rectángulo 406366" width="42.083" height="2.678" transform="translate(50.375 40.191) rotate(-0.404)" fill="#555"/>
        <rect id="Rectángulo_406367" data-name="Rectángulo 406367" width="25.984" height="2.678" transform="matrix(1, -0.007, 0.007, 1, 50.409, 45.012)" fill="#555"/>
        <rect id="Rectángulo_406368" data-name="Rectángulo 406368" width="35.179" height="14.061" transform="translate(104.674 147.346) rotate(-0.405)" fill="#fff"/>
        <path id="Trazado_916188" data-name="Trazado 916188" d="M214.067,88.883a3.153,3.153,0,1,1-3.175-3.131,3.152,3.152,0,0,1,3.175,3.131" transform="translate(-60.243 -24.865)" fill="#b2b2b2"/>
        <path id="Trazado_916189" data-name="Trazado 916189" d="M210.212,88.216l-.019-2.662a3.359,3.359,0,0,0-2.643,2.681Z" transform="translate(-60.182 -24.807)" fill="#e5e5e5"/>
        <path id="Trazado_916190" data-name="Trazado 916190" d="M213.083,88.2l2.662-.019a3.36,3.36,0,0,0-2.681-2.643Z" transform="translate(-61.78 -24.804)" fill="#e5e5e5"/>
        <path id="Trazado_916191" data-name="Trazado 916191" d="M213.1,91.074l.018,2.662a3.359,3.359,0,0,0,2.643-2.68Z" transform="translate(-61.792 -26.403)" fill="#e5e5e5"/>
        <path id="Trazado_916192" data-name="Trazado 916192" d="M210.225,91.094l-2.662.019a3.358,3.358,0,0,0,2.681,2.643Z" transform="translate(-60.185 -26.414)" fill="#e5e5e5"/>
        <path id="Trazado_916193" data-name="Trazado 916193" d="M214.594,163.527a3.153,3.153,0,1,1-3.175-3.131,3.153,3.153,0,0,1,3.175,3.131" transform="translate(-60.396 -46.509)" fill="#b2b2b2"/>
        <path id="Trazado_916194" data-name="Trazado 916194" d="M210.739,162.86l-.018-2.662a3.36,3.36,0,0,0-2.643,2.68Z" transform="translate(-60.334 -46.451)" fill="#e5e5e5"/>
        <path id="Trazado_916195" data-name="Trazado 916195" d="M213.61,162.847l2.662-.019a3.358,3.358,0,0,0-2.681-2.643Z" transform="translate(-61.933 -46.448)" fill="#e5e5e5"/>
        <path id="Trazado_916196" data-name="Trazado 916196" d="M213.631,165.718l.019,2.662a3.36,3.36,0,0,0,2.643-2.681Z" transform="translate(-61.945 -48.046)" fill="#e5e5e5"/>
        <path id="Trazado_916197" data-name="Trazado 916197" d="M210.752,165.739l-2.662.019a3.359,3.359,0,0,0,2.68,2.643Z" transform="translate(-60.338 -48.058)" fill="#e5e5e5"/>
        <path id="Trazado_916198" data-name="Trazado 916198" d="M215.121,238.171a3.153,3.153,0,1,1-3.175-3.131,3.153,3.153,0,0,1,3.175,3.131" transform="translate(-60.549 -68.153)" fill="#b2b2b2"/>
        <path id="Trazado_916199" data-name="Trazado 916199" d="M211.267,237.5l-.019-2.662a3.359,3.359,0,0,0-2.643,2.681Z" transform="translate(-60.488 -68.095)" fill="#e5e5e5"/>
        <path id="Trazado_916200" data-name="Trazado 916200" d="M214.137,237.491l2.662-.018a3.359,3.359,0,0,0-2.68-2.643Z" transform="translate(-62.086 -68.091)" fill="#e5e5e5"/>
        <path id="Trazado_916201" data-name="Trazado 916201" d="M214.158,240.362l.019,2.662a3.36,3.36,0,0,0,2.643-2.681Z" transform="translate(-62.098 -69.69)" fill="#e5e5e5"/>
        <path id="Trazado_916202" data-name="Trazado 916202" d="M211.279,240.383l-2.662.018a3.358,3.358,0,0,0,2.68,2.643Z" transform="translate(-60.491 -69.702)" fill="#e5e5e5"/>
        <path id="Trazado_916203" data-name="Trazado 916203" d="M213.54,14.239a3.153,3.153,0,1,1-3.175-3.131,3.153,3.153,0,0,1,3.175,3.131" transform="translate(-60.09 -3.221)" fill="#b2b2b2"/>
        <path id="Trazado_916204" data-name="Trazado 916204" d="M209.686,13.572l-.018-2.662a3.359,3.359,0,0,0-2.644,2.68Z" transform="translate(-60.029 -3.163)" fill="#e5e5e5"/>
        <path id="Trazado_916205" data-name="Trazado 916205" d="M212.556,13.559l2.662-.019a3.36,3.36,0,0,0-2.68-2.643Z" transform="translate(-61.628 -3.16)" fill="#e5e5e5"/>
        <path id="Trazado_916206" data-name="Trazado 916206" d="M212.577,16.43l.018,2.662a3.36,3.36,0,0,0,2.643-2.681Z" transform="translate(-61.639 -4.759)" fill="#e5e5e5"/>
        <path id="Trazado_916207" data-name="Trazado 916207" d="M209.7,16.451l-2.662.019a3.359,3.359,0,0,0,2.681,2.643Z" transform="translate(-60.033 -4.77)" fill="#e5e5e5"/>
        <path id="Trazado_916208" data-name="Trazado 916208" d="M51.6,90.03A3.153,3.153,0,1,1,48.427,86.9,3.152,3.152,0,0,1,51.6,90.03" transform="translate(-13.134 -25.197)" fill="#b2b2b2"/>
        <path id="Trazado_916209" data-name="Trazado 916209" d="M47.747,89.363,47.728,86.7a3.36,3.36,0,0,0-2.643,2.681Z" transform="translate(-13.073 -25.14)" fill="#e5e5e5"/>
        <path id="Trazado_916210" data-name="Trazado 916210" d="M50.618,89.35l2.662-.018A3.359,3.359,0,0,0,50.6,86.688Z" transform="translate(-14.672 -25.136)" fill="#e5e5e5"/>
        <path id="Trazado_916211" data-name="Trazado 916211" d="M50.639,92.221l.019,2.662A3.36,3.36,0,0,0,53.3,92.2Z" transform="translate(-14.683 -26.735)" fill="#e5e5e5"/>
        <path id="Trazado_916212" data-name="Trazado 916212" d="M47.76,92.241,45.1,92.26a3.358,3.358,0,0,0,2.68,2.643Z" transform="translate(-13.077 -26.746)" fill="#e5e5e5"/>
        <path id="Trazado_916213" data-name="Trazado 916213" d="M52.129,164.674a3.153,3.153,0,1,1-3.175-3.131,3.153,3.153,0,0,1,3.175,3.131" transform="translate(-13.287 -46.841)" fill="#b2b2b2"/>
        <path id="Trazado_916214" data-name="Trazado 916214" d="M48.274,164.007l-.019-2.662a3.359,3.359,0,0,0-2.643,2.68Z" transform="translate(-13.226 -46.784)" fill="#e5e5e5"/>
        <path id="Trazado_916215" data-name="Trazado 916215" d="M51.145,163.994l2.662-.018a3.36,3.36,0,0,0-2.681-2.643Z" transform="translate(-14.825 -46.78)" fill="#e5e5e5"/>
        <path id="Trazado_916216" data-name="Trazado 916216" d="M51.166,166.865l.018,2.662a3.36,3.36,0,0,0,2.643-2.681Z" transform="translate(-14.836 -48.379)" fill="#e5e5e5"/>
        <path id="Trazado_916217" data-name="Trazado 916217" d="M48.287,166.886l-2.662.018a3.359,3.359,0,0,0,2.68,2.643Z" transform="translate(-13.23 -48.391)" fill="#e5e5e5"/>
        <path id="Trazado_916218" data-name="Trazado 916218" d="M52.655,239.318a3.153,3.153,0,1,1-3.175-3.131,3.153,3.153,0,0,1,3.175,3.131" transform="translate(-13.44 -68.485)" fill="#b2b2b2"/>
        <path id="Trazado_916219" data-name="Trazado 916219" d="M48.8,238.651l-.019-2.662a3.36,3.36,0,0,0-2.643,2.681Z" transform="translate(-13.379 -68.428)" fill="#e5e5e5"/>
        <path id="Trazado_916220" data-name="Trazado 916220" d="M51.672,238.638l2.662-.018a3.36,3.36,0,0,0-2.681-2.643Z" transform="translate(-14.977 -68.424)" fill="#e5e5e5"/>
        <path id="Trazado_916221" data-name="Trazado 916221" d="M51.693,241.509l.018,2.662a3.359,3.359,0,0,0,2.643-2.681Z" transform="translate(-14.989 -70.023)" fill="#e5e5e5"/>
        <path id="Trazado_916222" data-name="Trazado 916222" d="M48.814,241.53l-2.662.018a3.36,3.36,0,0,0,2.68,2.643Z" transform="translate(-13.382 -70.035)" fill="#e5e5e5"/>
        <path id="Trazado_916223" data-name="Trazado 916223" d="M51.074,15.386A3.153,3.153,0,1,1,47.9,12.255a3.152,3.152,0,0,1,3.175,3.131" transform="translate(-12.981 -3.553)" fill="#b2b2b2"/>
        <path id="Trazado_916224" data-name="Trazado 916224" d="M47.22,14.719,47.2,12.057a3.36,3.36,0,0,0-2.643,2.681Z" transform="translate(-12.92 -3.496)" fill="#e5e5e5"/>
        <path id="Trazado_916225" data-name="Trazado 916225" d="M50.091,14.706l2.662-.018a3.359,3.359,0,0,0-2.681-2.643Z" transform="translate(-14.519 -3.492)" fill="#e5e5e5"/>
        <path id="Trazado_916226" data-name="Trazado 916226" d="M50.111,17.577l.019,2.662a3.359,3.359,0,0,0,2.643-2.68Z" transform="translate(-14.53 -5.091)" fill="#e5e5e5"/>
        <path id="Trazado_916227" data-name="Trazado 916227" d="M47.233,17.6l-2.662.018a3.359,3.359,0,0,0,2.68,2.643Z" transform="translate(-12.924 -5.103)" fill="#e5e5e5"/>
        <path id="Trazado_916228" data-name="Trazado 916228" d="M132.307,14.812a3.153,3.153,0,1,1-3.175-3.13,3.153,3.153,0,0,1,3.175,3.13" transform="translate(-36.536 -3.387)" fill="#b2b2b2"/>
        <path id="Trazado_916229" data-name="Trazado 916229" d="M128.453,14.145l-.018-2.662a3.359,3.359,0,0,0-2.643,2.68Z" transform="translate(-36.475 -3.33)" fill="#e5e5e5"/>
        <path id="Trazado_916230" data-name="Trazado 916230" d="M131.324,14.133l2.662-.019a3.359,3.359,0,0,0-2.681-2.643Z" transform="translate(-38.073 -3.326)" fill="#e5e5e5"/>
        <path id="Trazado_916231" data-name="Trazado 916231" d="M131.344,17l.019,2.662a3.359,3.359,0,0,0,2.643-2.68Z" transform="translate(-38.085 -4.925)" fill="#e5e5e5"/>
        <path id="Trazado_916232" data-name="Trazado 916232" d="M128.466,17.024l-2.662.018a3.36,3.36,0,0,0,2.68,2.643Z" transform="translate(-36.478 -4.936)" fill="#e5e5e5"/>
        <path id="Trazado_916233" data-name="Trazado 916233" d="M133.888,238.745a3.153,3.153,0,1,1-3.175-3.131,3.152,3.152,0,0,1,3.175,3.131" transform="translate(-36.994 -68.319)" fill="#b2b2b2"/>
        <path id="Trazado_916234" data-name="Trazado 916234" d="M130.034,238.078l-.018-2.662a3.359,3.359,0,0,0-2.643,2.68Z" transform="translate(-36.933 -68.262)" fill="#e5e5e5"/>
        <path id="Trazado_916235" data-name="Trazado 916235" d="M132.905,238.065l2.662-.019a3.361,3.361,0,0,0-2.68-2.643Z" transform="translate(-38.532 -68.258)" fill="#e5e5e5"/>
        <path id="Trazado_916236" data-name="Trazado 916236" d="M132.925,240.936l.018,2.662a3.359,3.359,0,0,0,2.643-2.68Z" transform="translate(-38.543 -69.857)" fill="#e5e5e5"/>
        <path id="Trazado_916237" data-name="Trazado 916237" d="M130.046,240.956l-2.662.019a3.36,3.36,0,0,0,2.681,2.643Z" transform="translate(-36.937 -69.868)" fill="#e5e5e5"/>
        <g id="Grupo_1107865" data-name="Grupo 1107865" transform="translate(27.8)" opacity="0.22">
          <g id="Grupo_1107864" data-name="Grupo 1107864">
            <g id="Grupo_1107863" data-name="Grupo 1107863" clip-path="url(#clip-path-3)">
              <path id="Trazado_916238" data-name="Trazado 916238" d="M168.513,0,40.431,181.9,39.153.913Z" transform="translate(-39.153 0)" fill="#f3f3f3"/>
            </g>
          </g>
        </g>
        <path id="Trazado_916239" data-name="Trazado 916239" d="M9.951,195.358,0,189.613V178.122l9.951-5.746,9.951,5.746v11.491Z" transform="translate(0 -49.982)" fill="#eaeaea"/>
        <path id="Trazado_916240" data-name="Trazado 916240" d="M18.459,184.217H12.222v-6.236H9.673v6.236H3.437v2.55H9.673V193h2.55v-6.236h6.236Z" transform="translate(-0.997 -51.608)" fill="#b2b2b2"/>
      </g>
    </g>
  </g>
</svg>
