<svg xmlns="http://www.w3.org/2000/svg" xmlns:xlink="http://www.w3.org/1999/xlink" width="190" height="138" viewBox="0 0 190 138">
  <defs>
    <clipPath id="clip-path">
      <rect id="Rectángulo_401573" data-name="Rectángulo 401573" width="28.836" height="138" fill="none"/>
    </clipPath>
    <clipPath id="clip-path-2">
      <rect id="Rectángulo_401572" data-name="Rectángulo 401572" width="72.283" height="243.911" fill="none"/>
    </clipPath>
    <clipPath id="clip-path-3">
      <rect id="Rectángulo_401571" data-name="Rectángulo 401571" width="80" height="80" transform="translate(-0.333 -0.166)" fill="#fff" stroke="#707070" stroke-width="1"/>
    </clipPath>
  </defs>
  <g id="Grupo_1107756" data-name="Grupo 1107756" transform="translate(-180 -960.999)">
    <g id="Grupo_1099688" data-name="Grupo 1099688" transform="translate(180 960.999)">
      <g id="Grupo_1099687" data-name="Grupo 1099687" clip-path="url(#clip-path)">
        <g id="Grupo_1099686" data-name="Grupo 1099686" transform="translate(-6.669 -51.211)" opacity="0.45" style="mix-blend-mode: multiply;isolation: isolate">
          <g id="Grupo_1099685" data-name="Grupo 1099685">
            <g id="Grupo_1099684" data-name="Grupo 1099684" clip-path="url(#clip-path-2)">
              <path id="Trazado_873516" data-name="Trazado 873516" d="M-.351,28.158,87.875,8.747l-.9,5.484L-1.251,33.642Z" transform="matrix(0.898, -0.44, 0.44, 0.898, -12.078, 182.764)" fill="#2d0464"/>
              <path id="Trazado_873517" data-name="Trazado 873517" d="M-.351,28.158,87.875,8.747l-.9,5.484L-1.251,33.642Z" transform="matrix(0.898, -0.44, 0.44, 0.898, -12.078, 167.569)" fill="#2d0464"/>
              <path id="Trazado_873518" data-name="Trazado 873518" d="M-.351,28.158,87.875,8.747l-.9,5.484L-1.251,33.642Z" transform="matrix(0.898, -0.44, 0.44, 0.898, -12.078, 152.376)" fill="#2d0464"/>
              <path id="Trazado_873519" data-name="Trazado 873519" d="M-.351,28.158,87.875,8.747l-.9,5.484L-1.251,33.642Z" transform="matrix(0.898, -0.44, 0.44, 0.898, -12.078, 137.182)" fill="#2d0464"/>
              <path id="Trazado_873520" data-name="Trazado 873520" d="M-.351,28.158,87.875,8.747l-.9,5.484L-1.251,33.642Z" transform="matrix(0.898, -0.44, 0.44, 0.898, -12.078, 121.988)" fill="#2d0464"/>
              <path id="Trazado_873521" data-name="Trazado 873521" d="M-.351,28.158,87.875,8.747l-.9,5.484L-1.251,33.642Z" transform="matrix(0.898, -0.44, 0.44, 0.898, -12.078, 106.793)" fill="#2d0464"/>
              <path id="Trazado_873522" data-name="Trazado 873522" d="M-.351,28.158,87.875,8.747l-.9,5.484L-1.251,33.642Z" transform="matrix(0.898, -0.44, 0.44, 0.898, -12.078, 91.6)" fill="#2d0464"/>
              <path id="Trazado_873523" data-name="Trazado 873523" d="M-.351,28.158,87.875,8.747l-.9,5.484L-1.251,33.642Z" transform="matrix(0.898, -0.44, 0.44, 0.898, -12.078, 76.406)" fill="#2d0464"/>
              <path id="Trazado_873524" data-name="Trazado 873524" d="M-.351,28.158,87.875,8.747l-.9,5.484L-1.251,33.642Z" transform="matrix(0.898, -0.44, 0.44, 0.898, -12.078, 61.212)" fill="#2d0464"/>
              <path id="Trazado_873525" data-name="Trazado 873525" d="M-.351,28.158,87.875,8.747l-.9,5.484L-1.251,33.642Z" transform="matrix(0.898, -0.44, 0.44, 0.898, -12.078, 46.018)" fill="#2d0464"/>
              <path id="Trazado_873526" data-name="Trazado 873526" d="M-.351,28.158,87.875,8.747l-.9,5.484L-1.251,33.642Z" transform="translate(-12.078 30.824) rotate(-26.114)" fill="#2d0464"/>
            </g>
          </g>
        </g>
      </g>
      <rect id="Rectángulo_401574" data-name="Rectángulo 401574" width="161" height="137.667" transform="translate(29)" fill="#efe8f7"/>
    </g>
    <g id="Enmascarar_grupo_1098713" data-name="Enmascarar grupo 1098713" transform="translate(250.833 990.166)" clip-path="url(#clip-path-3)">
      <g id="alambrado" transform="translate(0.309 0.831)">
        <g id="Grupo_1101898" data-name="Grupo 1101898" transform="translate(1.116 5.833)">
          <path id="Trazado_912957" data-name="Trazado 912957" d="M66.592,68.738,52.449,76.979A32.755,32.755,0,0,1,7.483,64.819,33.388,33.388,0,0,1,19.531,19.439L33.674,11.2,42.5,26.63,29.42,34.253a15.479,15.479,0,0,0-5.586,21.039,15.185,15.185,0,0,0,20.847,5.637l13.083-7.623Z" transform="translate(-3.067 -10.066)" fill="#cad0d7" fill-rule="evenodd"/>
          <path id="Trazado_912958" data-name="Trazado 912958" d="M50.523,16.236c2.742,4.793,2.979,9.844.529,11.271s-6.666-1.3-9.408-6.1-2.979-9.844-.529-11.271S47.781,11.442,50.523,16.236Z" transform="translate(-11.088 -9.759)" fill="#a9b0bb" fill-rule="evenodd"/>
          <path id="Trazado_912959" data-name="Trazado 912959" d="M81.211,69.39c2.742,4.793,2.979,9.844.529,11.271s-6.666-1.3-9.408-6.1-2.979-9.844-.529-11.271,6.666,1.3,9.408,6.1Z" transform="translate(-17.859 -21.105)" fill="#a9b0bb" fill-rule="evenodd"/>
          <path id="Trazado_912960" data-name="Trazado 912960" d="M52.533,13.555,46.2,17.245l-1.87-3.269,6.334-3.69Z" transform="translate(-12.171 -9.871)" fill="#f76c82" fill-rule="evenodd"/>
          <path id="Trazado_912961" data-name="Trazado 912961" d="M83.222,66.709,76.888,70.4l-1.87-3.269,6.334-3.691Z" transform="translate(-18.942 -21.217)" fill="#f76c82" fill-rule="evenodd"/>
          <g id="Grupo_1101897" data-name="Grupo 1101897" transform="translate(35.962 7.062)">
            <path id="Trazado_912962" data-name="Trazado 912962" d="M57.414,22.007,51.08,25.7l-1.87-3.269,6.334-3.69Z" transform="translate(-49.209 -18.738)" fill="#cad0d7" fill-rule="evenodd"/>
            <path id="Trazado_912963" data-name="Trazado 912963" d="M88.1,75.161l-6.334,3.69L79.9,75.583l6.334-3.69Z" transform="translate(-55.98 -30.084)" fill="#cad0d7" fill-rule="evenodd"/>
          </g>
        </g>
        <path id="Trazado_912964" data-name="Trazado 912964" d="M64.492,69.188l-11.8,6.876A33.864,33.864,0,0,1,6.2,63.492,34.52,34.52,0,0,1,18.658,16.574L30.459,9.7A4.222,4.222,0,0,1,32.22,7.58C33.9,6.6,36.308,7.047,38.652,8.8l2.034-1.185a1.11,1.11,0,0,1,1.524.412l.377.66,2.066-1.2a1.11,1.11,0,0,1,1.524.412,1.132,1.132,0,0,1-.408,1.538l-2.066,1.2.377.66a1.132,1.132,0,0,1-.408,1.538l-.943.549q.216.345.423.706t.395.723l.943-.549a1.11,1.11,0,0,1,1.524.412l.377.66,2.066-1.2a1.11,1.11,0,0,1,1.524.412,1.132,1.132,0,0,1-.408,1.538l-2.066,1.2.377.66a1.131,1.131,0,0,1-.408,1.538l-2.034,1.185c.333,2.925-.491,5.254-2.169,6.231a4.331,4.331,0,0,1-3.22.385L29.662,33.338a14.348,14.348,0,0,0-5.178,19.5,14.075,14.075,0,0,0,19.323,5.225L54.2,52.01a4.4,4.4,0,0,1,1.94-2.622c1.678-.978,4.088-.533,6.432,1.22L64.6,49.423a1.11,1.11,0,0,1,1.524.412l.377.66,2.066-1.2a1.111,1.111,0,0,1,1.524.412,1.132,1.132,0,0,1-.408,1.538l-2.066,1.2L68,53.1a1.131,1.131,0,0,1-.408,1.538l-.943.549q.216.346.423.706t.395.723l.943-.549a1.11,1.11,0,0,1,1.524.412l.377.66,2.066-1.2a1.11,1.11,0,0,1,1.524.412,1.132,1.132,0,0,1-.408,1.538l-2.066,1.2.377.66a1.131,1.131,0,0,1-.408,1.538l-2.034,1.185c.333,2.925-.491,5.254-2.169,6.231a4.161,4.161,0,0,1-2.7.481ZM29.971,12.581l-10.2,5.942A32.257,32.257,0,0,0,8.133,62.366,31.645,31.645,0,0,0,51.576,74.114l10.2-5.942A16.587,16.587,0,0,1,56.259,62.2,17.122,17.122,0,0,1,53.9,54.783l-8.978,5.231a16.3,16.3,0,0,1-22.37-6.049,16.61,16.61,0,0,1,5.994-22.576l8.978-5.231a16.952,16.952,0,0,1-5.183-5.768,16.759,16.759,0,0,1-2.37-7.807Zm6.533-2.53A5.882,5.882,0,0,0,35.14,9.44a2.271,2.271,0,0,0-1.8.09,2.816,2.816,0,0,0-1.109,2.33,13.5,13.5,0,0,0,2.046,7.4,13.349,13.349,0,0,0,5.331,5.49,2.759,2.759,0,0,0,2.553.2,2.313,2.313,0,0,0,.979-1.532,6.024,6.024,0,0,0,.157-1.5l-2.153,1.254a1.11,1.11,0,0,1-1.524-.412l-1.87-3.269a1.131,1.131,0,0,1,.408-1.538l3.458-2.015q-.186-.362-.393-.724T40.8,14.51l-3.458,2.015a1.11,1.11,0,0,1-1.524-.412l-1.87-3.269a1.131,1.131,0,0,1,.408-1.538Zm5.086,1.4-.755-1.32-4.4,2.565.755,1.32Zm3.8,6.648-.755-1.32-4.4,2.565.755,1.32ZM60.422,51.86a5.889,5.889,0,0,0-1.364-.612,2.271,2.271,0,0,0-1.8.09,2.816,2.816,0,0,0-1.109,2.33,13.5,13.5,0,0,0,2.046,7.4,13.35,13.35,0,0,0,5.331,5.49,2.759,2.759,0,0,0,2.553.2,2.312,2.312,0,0,0,.979-1.532,6.032,6.032,0,0,0,.157-1.5l-2.153,1.254a1.11,1.11,0,0,1-1.524-.412L61.665,61.3a1.131,1.131,0,0,1,.408-1.538l3.458-2.015q-.186-.362-.393-.724t-.424-.705l-3.458,2.015a1.11,1.11,0,0,1-1.524-.412l-1.87-3.269a1.131,1.131,0,0,1,.408-1.538Zm5.086,1.4-.755-1.32-4.4,2.565.755,1.32Zm3.8,6.648-.755-1.32-4.4,2.565.755,1.32ZM49.977,6.98l-.99.577a1.11,1.11,0,0,1-1.524-.412,1.132,1.132,0,0,1,.408-1.538l.99-.577-.572-1A1.132,1.132,0,0,1,48.7,2.493a1.11,1.11,0,0,1,1.524.412l.572,1,.99-.577a1.111,1.111,0,0,1,1.524.412A1.132,1.132,0,0,1,52.9,5.278l-.99.577.572,1a1.132,1.132,0,0,1-.408,1.538,1.11,1.11,0,0,1-1.524-.412ZM73.9,48.789l-.99.577a1.111,1.111,0,0,1-1.524-.412,1.132,1.132,0,0,1,.408-1.538l.99-.577-.572-1a1.132,1.132,0,0,1,.408-1.538,1.11,1.11,0,0,1,1.524.412l.572,1,.99-.577a1.11,1.11,0,0,1,1.524.412,1.132,1.132,0,0,1-.408,1.538l-.99.577.572,1a1.132,1.132,0,0,1-.408,1.538,1.11,1.11,0,0,1-1.524-.412Zm-21.8-38.109A1.132,1.132,0,0,1,52.5,9.142a1.11,1.11,0,0,1,1.524.412L56.284,13.5a1.132,1.132,0,0,1-.408,1.538,1.11,1.11,0,0,1-1.524-.412ZM76.011,52.488a1.132,1.132,0,0,1,.408-1.538,1.11,1.11,0,0,1,1.524.412L80.2,55.311a1.132,1.132,0,0,1-.408,1.538,1.11,1.11,0,0,1-1.524-.412Z" transform="translate(-1.635 -2.343)" fill-rule="evenodd"/>
      </g>
    </g>
  </g>
</svg>
