<svg xmlns="http://www.w3.org/2000/svg" width="74" height="74" viewBox="0 0 74 74">
  <g id="Grupo_1113794" data-name="Grupo 1113794" transform="translate(-321 -684.335)">
    <g id="Grupo_1102212" data-name="Grupo 1102212" transform="translate(321 684.335)">
      <circle id="Elipse_11521" data-name="Elipse 11521" cx="37" cy="37" r="37" fill="#fbfbf9"/>
    </g>
    <g id="antena-parabolica" transform="translate(334.515 698.052)">
      <path id="Trazado_915557" data-name="Trazado 915557" d="M47.231,47.009H42.057V41.233a.825.825,0,0,0-.242-.583l-4.572-4.572a4.068,4.068,0,0,0-.32-4.943A17.346,17.346,0,0,0,34.388,9.883c-2.33-2.327-9.366,2.517-15.165,8.176l-.673-.673a3.267,3.267,0,0,0-.5-4,3.379,3.379,0,0,0-4.668,0,3.293,3.293,0,0,0,4,5.169l.673.673A50.044,50.044,0,0,0,11.112,27.9c-1.921,3.2-2.335,5.385-1.231,6.489a17.312,17.312,0,0,0,21.252,2.535,4.069,4.069,0,0,0,4.943.32l4.33,4.33v5.435H35.232a3.908,3.908,0,0,0-3.9,3.9v.223a.825.825,0,0,0,.825.825H50.309a.825.825,0,0,0,.825-.825v-.223A3.908,3.908,0,0,0,47.231,47.009ZM32.732,10.9a.682.682,0,0,1,.49.146c.77.77-1.463,5.951-8.178,12.83L20.39,19.226C26.411,13.348,31.132,10.9,32.732,10.9ZM14.549,16.885a1.651,1.651,0,0,1,0-2.334,1.69,1.69,0,0,1,2.334,0,1.65,1.65,0,0,1,0,2.334,1.69,1.69,0,0,1-2.334,0ZM12.527,28.749a48.334,48.334,0,0,1,6.7-8.357l4.654,4.654a48.326,48.326,0,0,1-8.357,6.7c-3.051,1.83-4.264,1.689-4.473,1.479S10.7,31.8,12.528,28.749Zm.359,6.025a14.8,14.8,0,0,0,3.484-1.615,51.213,51.213,0,0,0,9.265-7.522c4.281-4.281,8.206-9.366,9.13-12.759a15.657,15.657,0,0,1-21.879,21.9Zm19.7,1.161a15.56,15.56,0,0,0,3.347-3.347,2.4,2.4,0,0,1,.347,1.218A2.478,2.478,0,0,1,33.8,36.282a2.406,2.406,0,0,1-1.218-.347Zm.474,14.375a2.257,2.257,0,0,1,2.171-1.65h12A2.257,2.257,0,0,1,49.4,50.31Z" transform="translate(-4.163 -4.165)" fill="#692cb7"/>
      <path id="Trazado_915558" data-name="Trazado 915558" d="M19.592,11.422a.825.825,0,1,0,1.167-1.167,7.427,7.427,0,1,0-10.5,10.5.825.825,0,1,0,1.167-1.167,5.777,5.777,0,1,1,8.169-8.169Z" transform="translate(-3.954 -3.954)" fill="#692cb7"/>
      <path id="Trazado_915559" data-name="Trazado 915559" d="M7.631,7.631a9.9,9.9,0,0,1,14,0A.825.825,0,1,0,22.8,6.464,11.553,11.553,0,1,0,6.464,22.8a.825.825,0,1,0,1.167-1.167,9.915,9.915,0,0,1,0-14Z" transform="translate(-3.08 -3.08)" fill="#692cb7"/>
    </g>
  </g>
</svg>
