<svg xmlns="http://www.w3.org/2000/svg" xmlns:xlink="http://www.w3.org/1999/xlink" width="74" height="74" viewBox="0 0 74 74">
  <defs>
    <clipPath id="clip-path">
      <rect id="Rectángulo_405228" data-name="Rectángulo 405228" width="49" height="49" transform="translate(444.051 2019)" fill="#692cb7" stroke="#707070" stroke-width="1"/>
    </clipPath>
  </defs>
  <g id="Grupo_1113794" data-name="Grupo 1113794" transform="translate(-227.467 -923)">
    <circle id="Elipse_11575" data-name="Elipse 11575" cx="37" cy="37" r="37" transform="translate(227.467 923)" fill="#fbfbf9"/>
    <g id="Enmascarar_grupo_1099006" data-name="Enmascarar grupo 1099006" transform="translate(-204.084 -1083.5)" clip-path="url(#clip-path)">
      <g id="layer1" transform="translate(442.419 1153.025)">
        <path id="path12815" d="M46.909,865.975a3.7,3.7,0,0,0-2.622,1.08L30.453,880.912a.817.817,0,0,0-.228.447l-.82,4.895a.817.817,0,0,0,.939.939l4.9-.813a.816.816,0,0,0,.447-.23l13.834-13.858a3.7,3.7,0,0,0-2.617-6.317Zm0,1.62a2.063,2.063,0,0,1,1.464.616,2.034,2.034,0,0,1,.182,2.7l-2.89-2.883A2.05,2.05,0,0,1,46.911,867.6Zm-2.416,1.566.895.9-11.91,11.91-.887-.888Zm2.049,2.052.876.877-11.9,11.918-.885-.885Zm4.084,8.644a2.469,2.469,0,0,0-2.453-2.454H46.542a.817.817,0,0,0,0,1.633h1.633a.8.8,0,0,1,.82.821v32.667a.789.789,0,0,1-.817.817l-40.829-.006a4.084,4.084,0,1,1,4.081-4.081.817.817,0,1,0,1.633,0V878.224a5.714,5.714,0,0,0-11.429,0l0,31.072a5.713,5.713,0,0,0,5.712,5.674h0l40.826.006a2.458,2.458,0,0,0,2.453-2.45ZM7.349,874.144a4.066,4.066,0,0,1,4.081,4.08v27.039a5.68,5.68,0,0,0-8.161,0V878.223A4.065,4.065,0,0,1,7.349,874.144Zm8.169,3.26a.817.817,0,0,0,0,1.633H30.213a.817.817,0,0,0,0-1.633Zm16.172,5.089,2.421,2.421-2.9.483Zm-14.539,1.445a.817.817,0,0,0-.82.82c-.028,8.2,0,16.3,0,24.5a.817.817,0,0,0,.82.813H32.592a.962.962,0,0,0,.134,0H44.908a.817.817,0,0,0,.821-.813V886.392a.817.817,0,0,0-.821-.821H38.38a.817.817,0,0,0,0,1.635h5.714v8.167H33.481v-4.088a.817.817,0,1,0-1.635,0v4.9a.817.817,0,0,0,.813.82H44.094v11.429H33.481v-7.347a.817.817,0,1,0-1.635,0v7.347H17.964V897.006h8.981v5.714a.817.817,0,1,0,1.635,0v-6.534a.816.816,0,0,0-.813-.813H26.132v-5.721a.817.817,0,1,0-1.633,0v5.721H17.964v-9.8h8.981a.817.817,0,1,0,0-1.633Z" fill="#692cb7"/>
      </g>
    </g>
  </g>
</svg>
