<svg xmlns="http://www.w3.org/2000/svg" width="74" height="74" viewBox="0 0 74 74">
  <g id="Grupo_1113794" data-name="Grupo 1113794" transform="translate(-426 -2086.335)">
    <g id="Grupo_1102212" data-name="Grupo 1102212" transform="translate(426 2086.335)">
      <circle id="Elipse_11521" data-name="Elipse 11521" cx="37" cy="37" r="37" fill="#fbfbf9"/>
    </g>
    <g id="destornillador" transform="translate(393.969 2101.384)">
      <g id="Grupo_1113738" data-name="Grupo 1113738" transform="translate(51.496 0)">
        <path id="Trazado_920603" data-name="Trazado 920603" d="M60.467,23h-1.4V4.376a.858.858,0,0,0-.03-.226L58.077.631A.857.857,0,0,0,57.25,0H55.57a.858.858,0,0,0-.827.631L53.78,4.15a.859.859,0,0,0-.03.226V23h-1.4a.858.858,0,0,0-.857.857v2.632a3.575,3.575,0,0,0,.455,1.667,1.625,1.625,0,0,1,0,1.83,3.575,3.575,0,0,0-.455,1.667v7.331a4.914,4.914,0,1,0,9.829,0V31.657a3.575,3.575,0,0,0-.456-1.667,1.625,1.625,0,0,1,0-1.83,3.575,3.575,0,0,0,.456-1.667V23.861A.858.858,0,0,0,60.467,23Zm-5-18.512.76-2.777H56.6l.76,2.777V23H55.465Zm4.145,22a1.977,1.977,0,0,1-.282.915,3.277,3.277,0,0,0,0,3.333,1.976,1.976,0,0,1,.282.915v7.331a3.2,3.2,0,1,1-6.4,0V31.657a1.977,1.977,0,0,1,.282-.915,3.277,3.277,0,0,0,0-3.333,1.977,1.977,0,0,1-.282-.915V24.719h6.4v1.775Z" transform="translate(-51.496 0)" fill="#692cb7"/>
        <path id="Trazado_920604" data-name="Trazado 920604" d="M99.665,368.237a.857.857,0,0,0,.857-.857v-7.331a.857.857,0,1,0-1.715,0v7.331A.857.857,0,0,0,99.665,368.237Z" transform="translate(-94.751 -328.392)" fill="#692cb7"/>
        <path id="Trazado_920605" data-name="Trazado 920605" d="M207.661,23h-1.4V7.82l.8-1.756a.858.858,0,0,0,.044-.593L205.719.622A.857.857,0,0,0,204.895,0h-2.582a.857.857,0,0,0-.824.621L200.1,5.471a.858.858,0,0,0,.044.593l.8,1.756v3.853a.857.857,0,0,0,1.715,0V7.633a.859.859,0,0,0-.077-.356l-.748-1.638,1.126-3.924h1.29l1.126,3.924-.748,1.638a.858.858,0,0,0-.077.356V23h-1.891V19.39a.857.857,0,1,0-1.715,0V23h-1.4a.858.858,0,0,0-.857.857v2.632a3.575,3.575,0,0,0,.456,1.667,1.625,1.625,0,0,1,0,1.83,3.576,3.576,0,0,0-.456,1.667v7.331a4.914,4.914,0,0,0,9.829,0V31.658a3.575,3.575,0,0,0-.455-1.667,1.625,1.625,0,0,1,0-1.83,3.575,3.575,0,0,0,.455-1.667V23.862a.858.858,0,0,0-.858-.858Zm-.857,3.49a1.976,1.976,0,0,1-.282.915,3.277,3.277,0,0,0,0,3.333,1.976,1.976,0,0,1,.282.915v7.331a3.2,3.2,0,1,1-6.4,0V31.658a1.976,1.976,0,0,1,.282-.915,3.277,3.277,0,0,0,0-3.333,1.976,1.976,0,0,1-.282-.915V24.72h6.4v1.775Z" transform="translate(-186.069 -0.001)" fill="#692cb7"/>
        <path id="Trazado_920606" data-name="Trazado 920606" d="M246.856,368.237a.857.857,0,0,0,.857-.857v-7.331a.857.857,0,1,0-1.715,0v7.331A.857.857,0,0,0,246.856,368.237Z" transform="translate(-229.321 -328.392)" fill="#692cb7"/>
        <path id="Trazado_920607" data-name="Trazado 920607" d="M355.708,26.495V23.862a.858.858,0,0,0-.857-.857h-1.4V4.632a.857.857,0,0,0-.084-.37l-1.8-3.774a.857.857,0,0,0-1.547,0l-1.8,3.774a.857.857,0,0,0-.084.37V23h-1.4a.857.857,0,0,0-.857.857v2.632a3.576,3.576,0,0,0,.455,1.667,1.625,1.625,0,0,1,0,1.83,3.575,3.575,0,0,0-.455,1.667v7.331a4.914,4.914,0,1,0,9.829,0V31.658a3.575,3.575,0,0,0-.456-1.667,1.625,1.625,0,0,1,0-1.83,3.575,3.575,0,0,0,.456-1.667Zm-5.86-21.668.946-1.979.945,1.979V23h-1.891V4.827Zm4.145,21.668a1.976,1.976,0,0,1-.282.915,3.277,3.277,0,0,0,0,3.333,1.977,1.977,0,0,1,.282.915v7.331a3.2,3.2,0,1,1-6.4,0V31.658a1.976,1.976,0,0,1,.282-.915,3.277,3.277,0,0,0,0-3.333,1.976,1.976,0,0,1-.282-.915V24.72h6.4v1.775Z" transform="translate(-320.638 -0.001)" fill="#692cb7"/>
        <path id="Trazado_920608" data-name="Trazado 920608" d="M394.049,368.237a.857.857,0,0,0,.857-.857v-7.331a.857.857,0,1,0-1.715,0v7.331A.857.857,0,0,0,394.049,368.237Z" transform="translate(-363.893 -328.392)" fill="#692cb7"/>
        <path id="Trazado_920609" data-name="Trazado 920609" d="M225.829,172.838a.858.858,0,0,0,.857-.857h0a.857.857,0,1,0-.857.858Z" transform="translate(-210.097 -156.45)" fill="#692cb7"/>
      </g>
    </g>
  </g>
</svg>
