<svg xmlns="http://www.w3.org/2000/svg" width="60.101" height="60.101" viewBox="0 0 60.101 60.101">
  <g id="engranajes" transform="translate(-19.949 -19.949)">
    <g id="Grupo_1113646" data-name="Grupo 1113646" transform="translate(19.949 19.949)">
      <g id="Grupo_1113645" data-name="Grupo 1113645">
        <path id="Trazado_919192" data-name="Trazado 919192" d="M30.847,37.236a.949.949,0,0,0-1.264-.45,15.111,15.111,0,0,1-2.4.9.948.948,0,0,0-.675.728l-1,5.019a1.067,1.067,0,0,1-1.043.855H21.722a1.067,1.067,0,0,1-1.043-.855l-1-5.019A.949.949,0,0,0,19,37.683,15.078,15.078,0,0,1,15.668,36.3a.949.949,0,0,0-.992.037l-4.259,2.84a1.067,1.067,0,0,1-1.343-.133L7.137,37.109A1.067,1.067,0,0,1,7,35.767l2.84-4.259a.949.949,0,0,0,.037-.992A15.074,15.074,0,0,1,8.5,27.182a.948.948,0,0,0-.728-.675l-5.019-1A1.067,1.067,0,0,1,1.9,24.46V21.722a1.067,1.067,0,0,1,.855-1.043l5.019-1A.949.949,0,0,0,8.5,19a15.078,15.078,0,0,1,1.381-3.333.949.949,0,0,0-.037-.992L7,10.416a1.067,1.067,0,0,1,.133-1.343L9.074,7.137A1.067,1.067,0,0,1,10.416,7l4.259,2.84a.949.949,0,0,0,.992.037A15.078,15.078,0,0,1,19,8.5a.948.948,0,0,0,.675-.728l1-5.019A1.067,1.067,0,0,1,21.723,1.9h2.738a1.067,1.067,0,0,1,1.043.855l1,5.019a.949.949,0,0,0,.675.728,15.078,15.078,0,0,1,3.333,1.381.949.949,0,0,0,.992-.037L35.767,7a1.067,1.067,0,0,1,1.343.133l1.936,1.936a1.067,1.067,0,0,1,.133,1.343l-2.84,4.259a.949.949,0,0,0-.037.992A15.078,15.078,0,0,1,37.684,19a.948.948,0,0,0,.728.675l5.019,1a1.067,1.067,0,0,1,.855,1.043v2.738A1.067,1.067,0,0,1,43.43,25.5l-5.019,1a.949.949,0,0,0-.728.675,15.1,15.1,0,0,1-.925,2.457.949.949,0,1,0,1.711.821,17.02,17.02,0,0,0,.874-2.2l4.46-.892a2.97,2.97,0,0,0,2.38-2.9V21.722a2.97,2.97,0,0,0-2.381-2.9l-4.459-.892a16.982,16.982,0,0,0-1.107-2.673l2.523-3.784a2.97,2.97,0,0,0-.37-3.737L38.452,5.795a2.97,2.97,0,0,0-3.737-.37L30.93,7.948A16.992,16.992,0,0,0,28.257,6.84l-.892-4.459A2.97,2.97,0,0,0,24.461,0H21.722a2.97,2.97,0,0,0-2.9,2.381l-.892,4.459a16.981,16.981,0,0,0-2.673,1.107L11.469,5.425a2.97,2.97,0,0,0-3.737.37L5.8,7.732a2.97,2.97,0,0,0-.37,3.737l2.523,3.784a16.988,16.988,0,0,0-1.107,2.673l-4.46.892A2.97,2.97,0,0,0,0,21.722v2.738a2.97,2.97,0,0,0,2.381,2.9l4.459.892A16.979,16.979,0,0,0,7.948,30.93L5.425,34.714a2.97,2.97,0,0,0,.37,3.737l1.936,1.936a2.97,2.97,0,0,0,3.737.37l3.784-2.523a16.988,16.988,0,0,0,2.673,1.107l.892,4.46a2.97,2.97,0,0,0,2.9,2.381h2.738a2.97,2.97,0,0,0,2.9-2.381l.892-4.459A17,17,0,0,0,30.4,38.5.949.949,0,0,0,30.847,37.236Z" fill="#692cb7"/>
        <path id="Trazado_919193" data-name="Trazado 919193" d="M146.8,121.784a.948.948,0,0,0,1.277-.411,10.668,10.668,0,0,0-16.943-12.5.949.949,0,1,0,1.325,1.359,8.771,8.771,0,0,1,13.929,10.275A.949.949,0,0,0,146.8,121.784Z" transform="translate(-115.485 -93.419)" fill="#692cb7"/>
        <path id="Trazado_919194" data-name="Trazado 919194" d="M107.629,161.735a.949.949,0,0,0-1.206.589,10.67,10.67,0,0,0,16.34,12.117.949.949,0,1,0-1.113-1.537,8.774,8.774,0,0,1-13.432-9.962A.949.949,0,0,0,107.629,161.735Z" transform="translate(-93.42 -142.704)" fill="#692cb7"/>
        <path id="Trazado_919195" data-name="Trazado 919195" d="M277.089,260.289l-2.744-.549a11.48,11.48,0,0,0-.6-1.452l1.553-2.329a2.278,2.278,0,0,0-.284-2.867l-1.272-1.272a2.278,2.278,0,0,0-2.867-.284l-2.329,1.553a11.465,11.465,0,0,0-1.452-.6l-.549-2.744a2.278,2.278,0,0,0-2.228-1.826h-1.8a2.278,2.278,0,0,0-2.228,1.826l-.549,2.744a11.493,11.493,0,0,0-1.452.6l-2.329-1.553a2.278,2.278,0,0,0-2.867.284l-1.272,1.272a2.278,2.278,0,0,0-.284,2.867l1.553,2.329a11.468,11.468,0,0,0-.775,2.016.949.949,0,1,0,1.828.511,9.577,9.577,0,0,1,.878-2.118.949.949,0,0,0-.037-.992l-1.866-2.8a.375.375,0,0,1,.047-.472l1.272-1.272a.375.375,0,0,1,.472-.047l2.8,1.866a.949.949,0,0,0,.992.037,9.579,9.579,0,0,1,2.118-.878.948.948,0,0,0,.675-.728l.66-3.3a.375.375,0,0,1,.367-.3h1.8a.375.375,0,0,1,.367.3l.66,3.3a.949.949,0,0,0,.675.728,9.576,9.576,0,0,1,2.118.878.949.949,0,0,0,.992-.037l2.8-1.866a.375.375,0,0,1,.472.047l1.272,1.272a.375.375,0,0,1,.047.472l-1.866,2.8a.949.949,0,0,0-.037.992,9.58,9.58,0,0,1,.878,2.118.948.948,0,0,0,.728.675l3.3.66a.375.375,0,0,1,.3.367v1.8a.375.375,0,0,1-.3.367l-3.3.66a.949.949,0,0,0-.728.675,9.576,9.576,0,0,1-.878,2.118.949.949,0,0,0,.037.992l1.866,2.8a.375.375,0,0,1-.047.472l-1.272,1.272a.375.375,0,0,1-.472.047l-2.8-1.866a.949.949,0,0,0-.992-.037,9.579,9.579,0,0,1-2.118.878.948.948,0,0,0-.675.728l-.66,3.3a.375.375,0,0,1-.367.3h-1.8a.375.375,0,0,1-.367-.3l-.66-3.3a.949.949,0,0,0-.675-.728,9.576,9.576,0,0,1-2.118-.878.949.949,0,0,0-.992.037l-2.8,1.866a.375.375,0,0,1-.472-.047L253.16,272.4a.375.375,0,0,1-.047-.472l1.866-2.8a.949.949,0,0,0,.037-.992,9.579,9.579,0,0,1-.878-2.118.949.949,0,0,0-.728-.675l-3.3-.66a.375.375,0,0,1-.3-.367v-1.8a.375.375,0,0,1,.3-.367l.2-.04a.949.949,0,1,0-.372-1.861l-.2.04a2.278,2.278,0,0,0-1.826,2.228v1.8a2.278,2.278,0,0,0,1.826,2.228l2.744.549a11.5,11.5,0,0,0,.6,1.452l-1.553,2.329a2.278,2.278,0,0,0,.284,2.867l1.272,1.272a2.278,2.278,0,0,0,2.867.284l2.329-1.553a11.462,11.462,0,0,0,1.452.6l.549,2.744a2.278,2.278,0,0,0,2.228,1.826h1.8a2.278,2.278,0,0,0,2.228-1.826l.549-2.744a11.476,11.476,0,0,0,1.452-.6l2.329,1.553a2.278,2.278,0,0,0,2.867-.284l1.272-1.272a2.278,2.278,0,0,0,.284-2.867l-1.553-2.329a11.464,11.464,0,0,0,.6-1.452l2.744-.549a2.278,2.278,0,0,0,1.826-2.228v-1.8A2.278,2.278,0,0,0,277.089,260.289Z" transform="translate(-218.813 -218.815)" fill="#692cb7"/>
        <path id="Trazado_919196" data-name="Trazado 919196" d="M340,336.584A3.42,3.42,0,0,1,343.416,340a.949.949,0,1,0,1.9,0A5.314,5.314,0,1,0,340,345.315a5.265,5.265,0,0,0,3.247-1.107.949.949,0,1,0-1.16-1.5,3.383,3.383,0,0,1-2.086.711,3.416,3.416,0,1,1,0-6.833Z" transform="translate(-295.398 -295.399)" fill="#692cb7"/>
        <path id="Trazado_919197" data-name="Trazado 919197" d="M159.026,153.245a5.782,5.782,0,1,0-5.782,5.782A5.788,5.788,0,0,0,159.026,153.245Zm-9.665,0a3.884,3.884,0,1,1,3.884,3.884A3.888,3.888,0,0,1,149.361,153.245Z" transform="translate(-130.153 -130.153)" fill="#692cb7"/>
      </g>
    </g>
  </g>
</svg>
