<svg xmlns="http://www.w3.org/2000/svg" width="67.512" height="66.854" viewBox="0 0 67.512 66.854">
  <g id="modelo-3d" transform="translate(0 -2.496)">
    <g id="Grupo_1113647" data-name="Grupo 1113647" transform="translate(0 2.496)">
      <path id="Trazado_919198" data-name="Trazado 919198" d="M408.707,108.552h11.157a1.319,1.319,0,1,0,0-2.637H408.707a1.319,1.319,0,1,0,0,2.637Z" transform="translate(-353.67 -92.278)" fill="#3ba935"/>
      <path id="Trazado_919199" data-name="Trazado 919199" d="M452.838,196.382H446.69a1.319,1.319,0,1,0,0,2.637h6.148a1.319,1.319,0,1,0,0-2.637Z" transform="translate(-386.644 -170.816)" fill="#3ba935"/>
      <path id="Trazado_919200" data-name="Trazado 919200" d="M66.194,22.1H55.037a1.318,1.318,0,0,0-.955.409l-7.407,7.776a13.847,13.847,0,0,0-2.026-.688V16.465a1.335,1.335,0,0,0-.638-1.13L23,2.685a1.319,1.319,0,0,0-1.361,0L.638,15.335A1.335,1.335,0,0,0,0,16.465v6.447a1.319,1.319,0,0,0,2.637,0V18.8L21.006,29.86V51.514L2.637,40.448v-5.7a1.319,1.319,0,0,0-2.637,0v6.443a1.319,1.319,0,0,0,.638,1.13L21.644,54.977a1.334,1.334,0,0,0,1.361,0l6.753-4.067a14.044,14.044,0,0,0,1.618,1.938,13.88,13.88,0,0,0,18.654.889l3.183,3.183-1.568,1.568a1.319,1.319,0,0,0,0,1.865l7.578,7.581a4.857,4.857,0,0,0,6.868-6.87l-7.576-7.579a1.318,1.318,0,0,0-.932-.386h0a1.318,1.318,0,0,0-.932.386l-1.572,1.572-3.184-3.183A13.885,13.885,0,0,0,49.063,31.6L55.6,24.734H66.194a1.319,1.319,0,0,0,0-2.637ZM64.227,62.928a2.225,2.225,0,0,1,0,3.138,2.226,2.226,0,0,1-3.14,0l-2.252-2.252,3.14-3.139ZM57.582,56.28l2.528,2.529-3.14,3.139L54.442,59.42ZM22.324,5.354l18.45,11.111L22.324,27.576,3.875,16.465ZM28.47,48.607l-4.827,2.907V29.86L42.012,18.8V29.184a13.858,13.858,0,0,0-10.636,4.032h0A13.906,13.906,0,0,0,28.47,48.607ZM49.141,35.081A11.26,11.26,0,1,1,44.7,32.356l-8.738,9.173a1.319,1.319,0,1,0,1.909,1.819l9.342-9.807A11.228,11.228,0,0,1,49.141,35.081Z" transform="translate(0 -2.496)" fill="#3ba935"/>
      <path id="Trazado_919201" data-name="Trazado 919201" d="M1.319,194.856A1.32,1.32,0,1,0,0,193.536v0A1.317,1.317,0,0,0,1.319,194.856Z" transform="translate(0 -167.2)" fill="#3ba935"/>
    </g>
  </g>
</svg>
