<svg xmlns="http://www.w3.org/2000/svg" xmlns:xlink="http://www.w3.org/1999/xlink" width="295" height="401" viewBox="0 0 295 401">
  <defs>
    <clipPath id="clip-path">
      <rect id="Rectángulo_409716" data-name="Rectángulo 409716" width="295" height="401" rx="10" transform="translate(180.051 2575)" fill="#f0f9fb"/>
    </clipPath>
    <clipPath id="clip-path-2">
      <rect id="Rectángulo_409715" data-name="Rectángulo 409715" width="460.051" height="480.821" fill="none"/>
    </clipPath>
    <clipPath id="clip-path-3">
      <rect id="Rectángulo_409645" data-name="Rectángulo 409645" width="436.171" height="436.171" fill="none"/>
    </clipPath>
    <clipPath id="clip-path-5">
      <rect id="Rectángulo_409701" data-name="Rectángulo 409701" width="98.056" height="74.654" fill="none"/>
    </clipPath>
    <clipPath id="clip-path-6">
      <rect id="Rectángulo_409702" data-name="Rectángulo 409702" width="24.213" height="28.558" fill="none"/>
    </clipPath>
    <clipPath id="clip-path-7">
      <rect id="Rectángulo_409703" data-name="Rectángulo 409703" width="9.678" height="10.189" fill="none"/>
    </clipPath>
    <clipPath id="clip-path-8">
      <rect id="Rectángulo_409704" data-name="Rectángulo 409704" width="5.654" height="3.914" fill="none"/>
    </clipPath>
    <clipPath id="clip-path-9">
      <rect id="Rectángulo_409705" data-name="Rectángulo 409705" width="7.928" height="6.19" fill="none"/>
    </clipPath>
  </defs>
  <g id="Enmascarar_grupo_1099012" data-name="Enmascarar grupo 1099012" transform="translate(-180.051 -2575)" clip-path="url(#clip-path)">
    <g id="Grupo_1113585" data-name="Grupo 1113585" transform="translate(84 2567.574)">
      <g id="Grupo_1113584" data-name="Grupo 1113584" clip-path="url(#clip-path-2)">
        <g id="Grupo_1113563" data-name="Grupo 1113563" transform="translate(6.435)">
          <g id="Grupo_1113562" data-name="Grupo 1113562" clip-path="url(#clip-path-3)">
            <path id="Trazado_919002" data-name="Trazado 919002" d="M362.587,188.58A146.15,146.15,0,1,1,216.436,42.43a146.15,146.15,0,0,1,146.15,146.15" transform="translate(50.642 34.456)" fill="#e7edf2"/>
            <rect id="Rectángulo_409636" data-name="Rectángulo 409636" width="460.051" height="79.352" transform="translate(-6.435 401.469)" fill="#e2eaf2"/>
            <rect id="Rectángulo_409637" data-name="Rectángulo 409637" width="111.926" height="113.488" transform="translate(46.865 112.999)" fill="#d2dfee"/>
            <path id="Trazado_919003" data-name="Trazado 919003" d="M54.417,62.359h-25v70.884" transform="translate(17.452 50.639)" fill="none" stroke="#536c7f" stroke-linecap="round" stroke-miterlimit="10" stroke-width="1"/>
            <path id="Trazado_919004" data-name="Trazado 919004" d="M78.6,140.774h22.8V105.549" transform="translate(57.392 85.713)" fill="none" stroke="#536c7f" stroke-linecap="round" stroke-miterlimit="10" stroke-width="1"/>
            <rect id="Rectángulo_409638" data-name="Rectángulo 409638" width="72.115" height="41.23" transform="translate(192.666 43.876)" fill="#bcccdd"/>
            <path id="Trazado_919005" data-name="Trazado 919005" d="M66.267,39.7a17.759,17.759,0,1,1-17.76-17.76A17.76,17.76,0,0,1,66.267,39.7" transform="translate(18.536 17.813)" fill="#bcccdd"/>
            <path id="Trazado_919006" data-name="Trazado 919006" d="M100.9,40.257A12.333,12.333,0,1,1,88.568,27.924,12.333,12.333,0,0,1,100.9,40.257" transform="translate(55.473 22.676)" fill="#bcccdd"/>
            <path id="Trazado_919007" data-name="Trazado 919007" d="M101.719,38.786A26.524,26.524,0,1,1,75.194,12.261a26.526,26.526,0,0,1,26.525,26.525" transform="translate(33.089 9.957)" fill="#bcccdd"/>
            <path id="Trazado_919008" data-name="Trazado 919008" d="M117.546,52.59h-77l2.472-24.666,70.857,12.333Z" transform="translate(26.494 22.677)" fill="#bcccdd"/>
            <path id="Trazado_919009" data-name="Trazado 919009" d="M46.83,24.213C55,29.727,54.285,43.27,54.285,43.27" transform="translate(31.594 19.663)" fill="none" stroke="#536c7f" stroke-linecap="round" stroke-miterlimit="10" stroke-width="1"/>
            <path id="Trazado_919010" data-name="Trazado 919010" d="M73.558,16.452c9.689,11.893,10.075,23.31,6.253,28.275" transform="translate(53.299 13.36)" fill="none" stroke="#536c7f" stroke-linecap="round" stroke-miterlimit="10" stroke-width="1"/>
            <line id="Línea_791" data-name="Línea 791" x1="18.57" transform="translate(121.097 75.841)" fill="none" stroke="#536c7f" stroke-linecap="round" stroke-miterlimit="10" stroke-width="1"/>
            <line id="Línea_792" data-name="Línea 792" y2="55.36" transform="translate(100.329 228.767)" fill="none" stroke="#a8c5e2" stroke-miterlimit="10" stroke-width="1"/>
            <rect id="Rectángulo_409639" data-name="Rectángulo 409639" width="12.213" height="4.561" transform="translate(94.222 226.486)" fill="#5f7b93"/>
            <rect id="Rectángulo_409640" data-name="Rectángulo 409640" width="12.213" height="4.561" transform="translate(94.222 281.847)" fill="#5f7b93"/>
            <line id="Línea_793" data-name="Línea 793" y2="34.853" transform="translate(100.329 76.473)" fill="none" stroke="#a8c5e2" stroke-miterlimit="10" stroke-width="1"/>
            <rect id="Rectángulo_409641" data-name="Rectángulo 409641" width="12.213" height="4.561" transform="translate(94.222 74.927)" fill="#5f7b93"/>
            <rect id="Rectángulo_409642" data-name="Rectángulo 409642" width="12.213" height="4.561" transform="translate(94.222 108.311)" fill="#5f7b93"/>
            <line id="Línea_794" data-name="Línea 794" x1="35.632" transform="translate(155.878 62.934)" fill="none" stroke="#a8c5e2" stroke-miterlimit="10" stroke-width="1"/>
            <rect id="Rectángulo_409643" data-name="Rectángulo 409643" width="4.561" height="12.213" transform="translate(188.105 56.828)" fill="#5f7b93"/>
            <rect id="Rectángulo_409644" data-name="Rectángulo 409644" width="4.561" height="12.213" transform="translate(154.721 56.828)" fill="#5f7b93"/>
          </g>
        </g>
        <text id="SQL" transform="translate(212.058 70.319)" fill="#fff" font-size="22" font-family="Montserrat-Bold, Montserrat" font-weight="700"><tspan x="0" y="0">SQL</tspan></text>
        <g id="Grupo_1113583" data-name="Grupo 1113583" transform="translate(6.435)">
          <g id="Grupo_1113582" data-name="Grupo 1113582" clip-path="url(#clip-path-3)">
            <rect id="Rectángulo_409646" data-name="Rectángulo 409646" width="82.605" height="19.199" transform="translate(61.411 137.019)" fill="#bcccdd"/>
            <rect id="Rectángulo_409647" data-name="Rectángulo 409647" width="24.16" height="9.136" transform="translate(68.382 141.406)" fill="#fff"/>
            <path id="Trazado_919011" data-name="Trazado 919011" d="M66.059,82.2a2.88,2.88,0,1,1-2.879-2.881A2.88,2.88,0,0,1,66.059,82.2" transform="translate(42.531 64.415)" fill="#fff"/>
            <path id="Trazado_919012" data-name="Trazado 919012" d="M71.1,82.2a2.88,2.88,0,1,1-2.879-2.881A2.88,2.88,0,0,1,71.1,82.2" transform="translate(46.624 64.415)" fill="#5f7b93"/>
            <path id="Trazado_919013" data-name="Trazado 919013" d="M76.14,82.2a2.88,2.88,0,1,1-2.879-2.881A2.88,2.88,0,0,1,76.14,82.2" transform="translate(50.718 64.415)" fill="#fff"/>
            <path id="Trazado_919014" data-name="Trazado 919014" d="M81.18,82.2A2.88,2.88,0,1,1,78.3,79.322,2.88,2.88,0,0,1,81.18,82.2" transform="translate(54.811 64.415)" fill="#fff"/>
            <line id="Línea_795" data-name="Línea 795" y2="29.167" transform="translate(102.829 156.217)" fill="none" stroke="#708699" stroke-linecap="round" stroke-miterlimit="10" stroke-width="1"/>
            <path id="Trazado_919015" data-name="Trazado 919015" d="M115.325,109.075V93.969H39.969v15.105" transform="translate(26.022 76.309)" fill="none" stroke="#708699" stroke-linecap="round" stroke-miterlimit="10" stroke-width="1"/>
            <rect id="Rectángulo_409648" data-name="Rectángulo 409648" width="11.755" height="11.755" transform="translate(60.113 185.385)" fill="#a6bacc"/>
            <rect id="Rectángulo_409649" data-name="Rectángulo 409649" width="11.755" height="11.755" transform="translate(96.953 185.385)" fill="#a6bacc"/>
            <rect id="Rectángulo_409650" data-name="Rectángulo 409650" width="11.755" height="11.755" transform="translate(133.79 185.385)" fill="#a6bacc"/>
            <rect id="Rectángulo_409651" data-name="Rectángulo 409651" width="117.442" height="5.155" transform="translate(41.609 312.931)" fill="#9bb0c4"/>
            <path id="Trazado_919016" data-name="Trazado 919016" d="M148.878,184.579H26.071a2.319,2.319,0,0,1-2.318-2.318V160.374a2.317,2.317,0,0,1,2.318-2.318H148.878a2.317,2.317,0,0,1,2.318,2.318v21.888a2.318,2.318,0,0,1-2.318,2.318" transform="translate(12.854 128.352)" fill="#d2dfee"/>
            <rect id="Rectángulo_409652" data-name="Rectángulo 409652" width="37.782" height="11.822" transform="translate(44.878 294.395)" fill="#5f7b93"/>
            <rect id="Rectángulo_409653" data-name="Rectángulo 409653" width="15.577" height="2.874" transform="translate(48.85 297.432)" fill="#9bb0c4"/>
            <rect id="Rectángulo_409654" data-name="Rectángulo 409654" width="6.284" height="2.874" transform="translate(68.815 297.432)" fill="#9bb0c4"/>
            <rect id="Rectángulo_409655" data-name="Rectángulo 409655" width="6.549" height="11.822" transform="translate(87.749 294.395)" fill="#9bb0c4"/>
            <path id="Trazado_919017" data-name="Trazado 919017" d="M69.155,166.851a3.293,3.293,0,1,1-3.293-3.293,3.293,3.293,0,0,1,3.293,3.293" transform="translate(44.376 132.82)" fill="#9bb0c4"/>
            <path id="Trazado_919018" data-name="Trazado 919018" d="M76.719,166.851a3.293,3.293,0,1,1-3.293-3.293,3.293,3.293,0,0,1,3.293,3.293" transform="translate(50.519 132.82)" fill="#9bb0c4"/>
            <path id="Trazado_919019" data-name="Trazado 919019" d="M84.283,166.851a3.293,3.293,0,1,1-3.293-3.293,3.293,3.293,0,0,1,3.293,3.293" transform="translate(56.661 132.82)" fill="#9bb0c4"/>
            <path id="Trazado_919020" data-name="Trazado 919020" d="M91.848,166.851a3.293,3.293,0,1,1-3.294-3.293,3.294,3.294,0,0,1,3.294,3.293" transform="translate(62.803 132.82)" fill="#9bb0c4"/>
            <rect id="Rectángulo_409656" data-name="Rectángulo 409656" width="4.561" height="12.213" transform="translate(32.046 293.562)" fill="#5f7b93"/>
            <rect id="Rectángulo_409657" data-name="Rectángulo 409657" width="4.561" height="12.213" transform="translate(164.05 293.562)" fill="#5f7b93"/>
            <path id="Trazado_919021" data-name="Trazado 919021" d="M26.513,179.639h118.11a4.332,4.332,0,0,0,4.333-4.331v-11.17" transform="translate(15.096 133.292)" fill="none" stroke="#536c7f" stroke-linecap="round" stroke-miterlimit="10" stroke-width="1"/>
            <rect id="Rectángulo_409658" data-name="Rectángulo 409658" width="117.442" height="5.155" transform="translate(41.609 344.611)" fill="#9bb0c4"/>
            <path id="Trazado_919022" data-name="Trazado 919022" d="M148.878,202.062H26.071a2.318,2.318,0,0,1-2.318-2.318V177.857a2.317,2.317,0,0,1,2.318-2.318H148.878a2.317,2.317,0,0,1,2.318,2.318v21.888a2.318,2.318,0,0,1-2.318,2.318" transform="translate(12.854 142.549)" fill="#d2dfee"/>
            <rect id="Rectángulo_409659" data-name="Rectángulo 409659" width="37.782" height="11.824" transform="translate(44.878 326.072)" fill="#5f7b93"/>
            <rect id="Rectángulo_409660" data-name="Rectángulo 409660" width="15.577" height="2.874" transform="translate(48.85 329.111)" fill="#9bb0c4"/>
            <rect id="Rectángulo_409661" data-name="Rectángulo 409661" width="6.284" height="2.874" transform="translate(68.815 329.111)" fill="#9bb0c4"/>
            <rect id="Rectángulo_409662" data-name="Rectángulo 409662" width="6.549" height="11.824" transform="translate(87.749 326.072)" fill="#9bb0c4"/>
            <path id="Trazado_919023" data-name="Trazado 919023" d="M69.155,184.333a3.293,3.293,0,1,1-3.293-3.293,3.293,3.293,0,0,1,3.293,3.293" transform="translate(44.376 147.016)" fill="#9bb0c4"/>
            <path id="Trazado_919024" data-name="Trazado 919024" d="M76.719,184.333a3.293,3.293,0,1,1-3.293-3.293,3.293,3.293,0,0,1,3.293,3.293" transform="translate(50.519 147.016)" fill="#9bb0c4"/>
            <path id="Trazado_919025" data-name="Trazado 919025" d="M84.283,184.333a3.293,3.293,0,1,1-3.293-3.293,3.293,3.293,0,0,1,3.293,3.293" transform="translate(56.661 147.016)" fill="#9bb0c4"/>
            <path id="Trazado_919026" data-name="Trazado 919026" d="M91.848,184.333a3.293,3.293,0,1,1-3.294-3.293,3.294,3.294,0,0,1,3.294,3.293" transform="translate(62.803 147.016)" fill="#9bb0c4"/>
            <rect id="Rectángulo_409663" data-name="Rectángulo 409663" width="4.561" height="12.213" transform="translate(32.046 325.242)" fill="#5f7b93"/>
            <rect id="Rectángulo_409664" data-name="Rectángulo 409664" width="4.561" height="12.213" transform="translate(164.05 325.242)" fill="#5f7b93"/>
            <path id="Trazado_919027" data-name="Trazado 919027" d="M26.513,197.122h118.11a4.332,4.332,0,0,0,4.333-4.331v-11.17" transform="translate(15.096 147.489)" fill="none" stroke="#536c7f" stroke-linecap="round" stroke-miterlimit="10" stroke-width="1"/>
            <rect id="Rectángulo_409665" data-name="Rectángulo 409665" width="117.442" height="5.155" transform="translate(41.609 376.29)" fill="#9bb0c4"/>
            <path id="Trazado_919028" data-name="Trazado 919028" d="M148.878,219.544H26.071a2.319,2.319,0,0,1-2.318-2.318V195.339a2.317,2.317,0,0,1,2.318-2.318H148.878a2.317,2.317,0,0,1,2.318,2.318v21.888a2.319,2.319,0,0,1-2.318,2.318" transform="translate(12.854 156.746)" fill="#d2dfee"/>
            <rect id="Rectángulo_409666" data-name="Rectángulo 409666" width="37.782" height="11.822" transform="translate(44.878 357.754)" fill="#5f7b93"/>
            <rect id="Rectángulo_409667" data-name="Rectángulo 409667" width="15.577" height="2.874" transform="translate(48.85 360.791)" fill="#9bb0c4"/>
            <rect id="Rectángulo_409668" data-name="Rectángulo 409668" width="6.284" height="2.874" transform="translate(68.815 360.791)" fill="#9bb0c4"/>
            <rect id="Rectángulo_409669" data-name="Rectángulo 409669" width="6.549" height="11.822" transform="translate(87.749 357.754)" fill="#9bb0c4"/>
            <path id="Trazado_919029" data-name="Trazado 919029" d="M69.155,201.816a3.293,3.293,0,1,1-3.293-3.293,3.293,3.293,0,0,1,3.293,3.293" transform="translate(44.376 161.214)" fill="#9bb0c4"/>
            <path id="Trazado_919030" data-name="Trazado 919030" d="M76.719,201.816a3.293,3.293,0,1,1-3.293-3.293,3.293,3.293,0,0,1,3.293,3.293" transform="translate(50.519 161.214)" fill="#9bb0c4"/>
            <path id="Trazado_919031" data-name="Trazado 919031" d="M84.283,201.816a3.293,3.293,0,1,1-3.293-3.293,3.293,3.293,0,0,1,3.293,3.293" transform="translate(56.661 161.214)" fill="#9bb0c4"/>
            <path id="Trazado_919032" data-name="Trazado 919032" d="M91.848,201.816a3.293,3.293,0,1,1-3.294-3.293,3.294,3.294,0,0,1,3.294,3.293" transform="translate(62.803 161.214)" fill="#9bb0c4"/>
            <rect id="Rectángulo_409670" data-name="Rectángulo 409670" width="4.561" height="12.213" transform="translate(32.046 356.923)" fill="#5f7b93"/>
            <rect id="Rectángulo_409671" data-name="Rectángulo 409671" width="4.561" height="12.213" transform="translate(164.05 356.923)" fill="#5f7b93"/>
            <path id="Trazado_919033" data-name="Trazado 919033" d="M26.513,214.6h118.11a4.332,4.332,0,0,0,4.333-4.331V199.1" transform="translate(15.096 161.685)" fill="none" stroke="#536c7f" stroke-linecap="round" stroke-miterlimit="10" stroke-width="1"/>
            <rect id="Rectángulo_409672" data-name="Rectángulo 409672" width="117.442" height="5.155" transform="translate(41.609 407.97)" fill="#9bb0c4"/>
            <path id="Trazado_919034" data-name="Trazado 919034" d="M148.878,237.027H26.071a2.319,2.319,0,0,1-2.318-2.318V212.822a2.317,2.317,0,0,1,2.318-2.318H148.878a2.317,2.317,0,0,1,2.318,2.318V234.71a2.318,2.318,0,0,1-2.318,2.318" transform="translate(12.854 170.943)" fill="#d2dfee"/>
            <rect id="Rectángulo_409673" data-name="Rectángulo 409673" width="37.782" height="11.822" transform="translate(44.878 389.433)" fill="#5f7b93"/>
            <rect id="Rectángulo_409674" data-name="Rectángulo 409674" width="15.577" height="2.874" transform="translate(48.85 392.47)" fill="#9bb0c4"/>
            <rect id="Rectángulo_409675" data-name="Rectángulo 409675" width="6.284" height="2.874" transform="translate(68.815 392.47)" fill="#9bb0c4"/>
            <rect id="Rectángulo_409676" data-name="Rectángulo 409676" width="6.549" height="11.822" transform="translate(87.749 389.433)" fill="#9bb0c4"/>
            <path id="Trazado_919035" data-name="Trazado 919035" d="M69.155,219.3a3.293,3.293,0,1,1-3.293-3.293,3.293,3.293,0,0,1,3.293,3.293" transform="translate(44.376 175.41)" fill="#9bb0c4"/>
            <path id="Trazado_919036" data-name="Trazado 919036" d="M76.719,219.3a3.293,3.293,0,1,1-3.293-3.293,3.293,3.293,0,0,1,3.293,3.293" transform="translate(50.519 175.41)" fill="#9bb0c4"/>
            <path id="Trazado_919037" data-name="Trazado 919037" d="M84.283,219.3a3.293,3.293,0,1,1-3.293-3.293,3.293,3.293,0,0,1,3.293,3.293" transform="translate(56.661 175.41)" fill="#9bb0c4"/>
            <path id="Trazado_919038" data-name="Trazado 919038" d="M91.848,219.3a3.293,3.293,0,1,1-3.294-3.293,3.294,3.294,0,0,1,3.294,3.293" transform="translate(62.803 175.41)" fill="#9bb0c4"/>
            <rect id="Rectángulo_409677" data-name="Rectángulo 409677" width="4.561" height="12.213" transform="translate(32.046 388.601)" fill="#5f7b93"/>
            <rect id="Rectángulo_409678" data-name="Rectángulo 409678" width="4.561" height="12.213" transform="translate(164.05 388.601)" fill="#5f7b93"/>
            <path id="Trazado_919039" data-name="Trazado 919039" d="M26.513,232.087h118.11a4.332,4.332,0,0,0,4.333-4.331v-11.17" transform="translate(15.096 175.883)" fill="none" stroke="#536c7f" stroke-linecap="round" stroke-miterlimit="10" stroke-width="1"/>
            <path id="Trazado_919040" data-name="Trazado 919040" d="M148.878,254.509H26.071a2.319,2.319,0,0,1-2.318-2.318V230.3a2.317,2.317,0,0,1,2.318-2.318H148.878A2.317,2.317,0,0,1,151.2,230.3v21.888a2.319,2.319,0,0,1-2.318,2.318" transform="translate(12.854 185.14)" fill="#d2dfee"/>
            <rect id="Rectángulo_409679" data-name="Rectángulo 409679" width="37.782" height="11.824" transform="translate(44.878 421.111)" fill="#5f7b93"/>
            <rect id="Rectángulo_409680" data-name="Rectángulo 409680" width="15.577" height="2.874" transform="translate(48.85 424.15)" fill="#9bb0c4"/>
            <rect id="Rectángulo_409681" data-name="Rectángulo 409681" width="6.284" height="2.874" transform="translate(68.815 424.15)" fill="#9bb0c4"/>
            <rect id="Rectángulo_409682" data-name="Rectángulo 409682" width="6.549" height="11.824" transform="translate(87.749 421.111)" fill="#9bb0c4"/>
            <path id="Trazado_919041" data-name="Trazado 919041" d="M69.155,236.781a3.293,3.293,0,1,1-3.293-3.293,3.293,3.293,0,0,1,3.293,3.293" transform="translate(44.376 189.608)" fill="#9bb0c4"/>
            <path id="Trazado_919042" data-name="Trazado 919042" d="M76.719,236.781a3.293,3.293,0,1,1-3.293-3.293,3.293,3.293,0,0,1,3.293,3.293" transform="translate(50.519 189.608)" fill="#9bb0c4"/>
            <path id="Trazado_919043" data-name="Trazado 919043" d="M84.283,236.781a3.293,3.293,0,1,1-3.293-3.293,3.293,3.293,0,0,1,3.293,3.293" transform="translate(56.661 189.608)" fill="#9bb0c4"/>
            <path id="Trazado_919044" data-name="Trazado 919044" d="M91.848,236.781a3.293,3.293,0,1,1-3.294-3.293,3.294,3.294,0,0,1,3.294,3.293" transform="translate(62.803 189.608)" fill="#9bb0c4"/>
            <rect id="Rectángulo_409683" data-name="Rectángulo 409683" width="4.561" height="12.213" transform="translate(32.046 420.281)" fill="#5f7b93"/>
            <rect id="Rectángulo_409684" data-name="Rectángulo 409684" width="4.561" height="12.213" transform="translate(164.05 420.281)" fill="#5f7b93"/>
            <path id="Trazado_919045" data-name="Trazado 919045" d="M26.513,249.569h118.11a4.332,4.332,0,0,0,4.333-4.331v-11.17" transform="translate(15.096 190.079)" fill="none" stroke="#536c7f" stroke-linecap="round" stroke-miterlimit="10" stroke-width="1"/>
            <path id="Trazado_919046" data-name="Trazado 919046" d="M69.849,83.264l10.6-8.781,16.41,2.408-9.541,6.373" transform="translate(50.287 60.485)" fill="none" stroke="#b5574b" stroke-linecap="round" stroke-miterlimit="10" stroke-width="1"/>
            <path id="Trazado_919047" data-name="Trazado 919047" d="M133.23,63.748a13.146,13.146,0,1,0,13.143,13.143A13.145,13.145,0,0,0,133.23,63.748m0,19.768a6.622,6.622,0,1,1,6.625-6.625,6.622,6.622,0,0,1-6.625,6.625" transform="translate(91.084 51.768)" fill="#bcccdd"/>
            <rect id="Rectángulo_409685" data-name="Rectángulo 409685" width="7.094" height="9.169" transform="translate(220.989 109.811)" fill="#bcccdd"/>
            <rect id="Rectángulo_409686" data-name="Rectángulo 409686" width="7.094" height="9.168" transform="translate(208.634 117.684) rotate(-45)" fill="#bcccdd"/>
            <rect id="Rectángulo_409687" data-name="Rectángulo 409687" width="9.169" height="7.094" transform="translate(205.465 124.891)" fill="#bcccdd"/>
            <rect id="Rectángulo_409688" data-name="Rectángulo 409688" width="9.169" height="7.094" transform="translate(208.32 139.324) rotate(-45)" fill="#bcccdd"/>
            <rect id="Rectángulo_409689" data-name="Rectángulo 409689" width="7.094" height="9.169" transform="translate(220.545 138.34)" fill="#bcccdd"/>
            <rect id="Rectángulo_409690" data-name="Rectángulo 409690" width="7.094" height="9.169" transform="translate(228.493 138.171) rotate(-45)" fill="#bcccdd"/>
            <rect id="Rectángulo_409691" data-name="Rectángulo 409691" width="9.169" height="7.094" transform="translate(233.994 125.335)" fill="#bcccdd"/>
            <rect id="Rectángulo_409692" data-name="Rectángulo 409692" width="9.168" height="7.094" transform="translate(228.807 119.465) rotate(-45)" fill="#bcccdd"/>
            <path id="Trazado_919048" data-name="Trazado 919048" d="M145.675,56.94a6.632,6.632,0,1,0,6.63,6.632,6.631,6.631,0,0,0-6.63-6.632m0,9.974a3.341,3.341,0,1,1,3.343-3.341,3.34,3.34,0,0,1-3.343,3.341" transform="translate(106.479 46.239)" fill="#bcccdd"/>
            <rect id="Rectángulo_409693" data-name="Rectángulo 409693" width="3.579" height="4.626" transform="translate(250.478 100.301)" fill="#bcccdd"/>
            <rect id="Rectángulo_409694" data-name="Rectángulo 409694" width="3.58" height="4.626" transform="translate(244.244 104.275) rotate(-45)" fill="#bcccdd"/>
            <rect id="Rectángulo_409695" data-name="Rectángulo 409695" width="4.626" height="3.579" transform="translate(242.645 107.912)" fill="#bcccdd"/>
            <rect id="Rectángulo_409696" data-name="Rectángulo 409696" width="4.626" height="3.58" transform="matrix(0.707, -0.707, 0.707, 0.707, 244.086, 115.192)" fill="#bcccdd"/>
            <rect id="Rectángulo_409697" data-name="Rectángulo 409697" width="3.579" height="4.626" transform="translate(250.253 114.696)" fill="#bcccdd"/>
            <rect id="Rectángulo_409698" data-name="Rectángulo 409698" width="3.58" height="4.626" transform="translate(254.264 114.611) rotate(-45)" fill="#bcccdd"/>
            <rect id="Rectángulo_409699" data-name="Rectángulo 409699" width="4.626" height="3.579" transform="translate(257.04 108.135)" fill="#bcccdd"/>
            <rect id="Rectángulo_409700" data-name="Rectángulo 409700" width="4.626" height="3.58" transform="matrix(0.707, -0.707, 0.707, 0.707, 254.422, 105.172)" fill="#bcccdd"/>
            <path id="Trazado_919049" data-name="Trazado 919049" d="M74.388,76.379s-.554,9.033.464,11.035S85.24,90.239,85.24,90.239L103.2,80.345,89.458,70.772,77.87,72.107Z" transform="translate(53.851 57.471)" fill="#cc8e75"/>
            <path id="Trazado_919050" data-name="Trazado 919050" d="M76.895,75.741a6.114,6.114,0,0,0,.777,2.6,6.836,6.836,0,0,0,5.4,3.349l4.13.362" transform="translate(56.009 61.507)" fill="none" stroke="#b5574b" stroke-linecap="round" stroke-miterlimit="10" stroke-width="1"/>
            <path id="Trazado_919051" data-name="Trazado 919051" d="M80.247,74.932a4.065,4.065,0,0,0,3.858,4.09l6.085.535" transform="translate(58.731 60.85)" fill="none" stroke="#b5574b" stroke-linecap="round" stroke-miterlimit="10" stroke-width="1"/>
            <path id="Trazado_919052" data-name="Trazado 919052" d="M123.685,98.13,102.095,74.758,85.958,86.3l18.717,33.28Z" transform="translate(63.369 60.708)" fill="#dfab94"/>
            <path id="Trazado_919053" data-name="Trazado 919053" d="M117.871,79.85s-9.457-9.872-12.11-10.929S86.3,68.874,83.69,70.514,66.138,86.73,66.539,88.413s4.938,3.178,12.57-2.464,8.772-6.092,8.772-6.092l15.683,3.727s-15.991,7.589-15.47,11.025,13.284.834,13.284.834l12.713,11.041Z" transform="translate(47.593 55.617)" fill="#dfab94"/>
            <path id="Trazado_919054" data-name="Trazado 919054" d="M270.21,75.019s-38.1-1.12-48.908,2.026-71.654,47.157-77.551,47.983L115.063,94.4,93.914,115.2s35.9,62.9,48.172,67.686,77.259-50.1,77.259-50.1l41.7-8.544,14.9-32.42Z" transform="translate(69.83 60.763)" fill="#f7c272"/>
            <path id="Trazado_919055" data-name="Trazado 919055" d="M258.208,169.125s30.472,96.933,32.423,163.555h-65.1L213.763,227.665,194.655,337.79h-51.72s3.724-109.9,28.442-169.388,86.831.723,86.831.723" transform="translate(109.638 115.433)" fill="#5a2402"/>
            <path id="Trazado_919056" data-name="Trazado 919056" d="M205.245,167.98C220.852,214.063,231.3,314.2,231.3,314.2" transform="translate(160.238 136.411)" fill="none" stroke="#af7e62" stroke-linecap="round" stroke-miterlimit="10" stroke-width="1"/>
            <path id="Trazado_919057" data-name="Trazado 919057" d="M155.6,93.357s58.146-15.363,102.648-1.584l-9.3,136.267-93.352-.056V93.357Z" transform="translate(119.924 69.865)" fill="#f7c272"/>
            <g id="Grupo_1113566" data-name="Grupo 1113566" transform="translate(275.525 226.903)" opacity="0.57" style="mix-blend-mode: multiply;isolation: isolate">
              <g id="Grupo_1113565" data-name="Grupo 1113565">
                <g id="Grupo_1113564" data-name="Grupo 1113564" clip-path="url(#clip-path-5)">
                  <path id="Trazado_919058" data-name="Trazado 919058" d="M251.9,125.218c-16.914,41.5-96.3,52.976-96.3,52.976v17.97l98.058,3.707Z" transform="translate(-155.601 -125.218)" fill="#fca695"/>
                </g>
              </g>
            </g>
            <path id="Trazado_919059" data-name="Trazado 919059" d="M203.533,72.4c16.965,7.114,43.953,14.531,50.183,24.316s36.3,112.669,23.55,123.4-77.208,33.661-77.208,33.661l-8.573-25.162,44.584-39.353-23.417-73.113-28.129-1.343v-35.1Z" transform="translate(143.41 58.796)" fill="#f7c272"/>
            <path id="Trazado_919060" data-name="Trazado 919060" d="M173.207,73.158c-2.959,19.295.386,32.039,17.789,34.453,16.377,2.271,32.086-15.808,34.277-29.881,0,0-15.761-10.227-52.066-4.572" transform="translate(133.442 58.025)" fill="#fff"/>
            <path id="Trazado_919061" data-name="Trazado 919061" d="M177.842,86.242v10c0,9,9.318,15.172,22.024,8.718,10.8-5.485,12.056-12.19,12.056-17.7V58.967l-34.027,22.5Z" transform="translate(137.985 47.885)" fill="#dfab94"/>
            <g id="Grupo_1113569" data-name="Grupo 1113569" transform="translate(315.827 109.947)" opacity="0.39" style="mix-blend-mode: multiply;isolation: isolate">
              <g id="Grupo_1113568" data-name="Grupo 1113568">
                <g id="Grupo_1113567" data-name="Grupo 1113567" clip-path="url(#clip-path-6)">
                  <path id="Trazado_919062" data-name="Trazado 919062" d="M202.055,64.1c-1.881,15.441-12.106,25.13-24.2,25.13-.013-.132-.013-.277-.013-.411V60.675Z" transform="translate(-177.842 -60.675)" fill="#fca695"/>
                </g>
              </g>
            </g>
            <path id="Trazado_919063" data-name="Trazado 919063" d="M178.962,33.959C159.881,46.6,160.459,63.9,163.3,78.155c3.062,15.39,13.821,26.231,27.556,26.231,18.581,0,33.768-11.519,35.314-29.406s-2.691-38.905-16.473-41.022-30.731,0-30.731,0" transform="translate(124.976 26.813)" fill="#dfab94"/>
            <path id="Trazado_919064" data-name="Trazado 919064" d="M172.117,50.9c0,1.68-.853,3.041-1.906,3.041S168.3,52.581,168.3,50.9s.853-3.041,1.906-3.041,1.906,1.361,1.906,3.041" transform="translate(130.239 38.866)" fill="#5a2402"/>
            <path id="Trazado_919065" data-name="Trazado 919065" d="M184.194,50.9c0,1.68-.853,3.041-1.906,3.041s-1.906-1.361-1.906-3.041.854-3.041,1.906-3.041,1.906,1.361,1.906,3.041" transform="translate(140.047 38.866)" fill="#5a2402"/>
            <path id="Trazado_919066" data-name="Trazado 919066" d="M180.769,42.2c4.534-1.932,11.566.319,12.222,3.258s-.493,4.409-1.8,4.409-4.508-3.742-10.664-2.2c-2.178.544-3.776-3.749.246-5.463" transform="translate(138.352 33.684)" fill="#5a2402"/>
            <path id="Trazado_919067" data-name="Trazado 919067" d="M176.271,42.2c-3.776-1.932-9.631.319-10.177,3.258s.41,4.409,1.5,4.409,3.755-3.742,8.881-2.2c1.812.544,3.144-3.749-.207-5.463" transform="translate(128.316 33.684)" fill="#5a2402"/>
            <path id="Trazado_919068" data-name="Trazado 919068" d="M176.148,48.287c-.567,3.1-2.3,10.139-3.111,13.411a1.566,1.566,0,0,0,1.366,1.939c2,.194,5.117.375,6.407-.208" transform="translate(134.045 39.212)" fill="none" stroke="#b5574b" stroke-linecap="round" stroke-miterlimit="10" stroke-width="1"/>
            <path id="Trazado_919069" data-name="Trazado 919069" d="M177.741,60.008a35.511,35.511,0,0,0,7.913-2.319.761.761,0,0,1,1.067.777,5.122,5.122,0,0,1-3.671,4.338,4.985,4.985,0,0,1-5.766-1.537.764.764,0,0,1,.457-1.259" transform="translate(137.379 46.792)" fill="#fff"/>
            <path id="Trazado_919070" data-name="Trazado 919070" d="M194.066,55.253c4.334-8.553,11.557-8.816,13.725-3.416s-2.347,16.444-10.474,17.244" transform="translate(151.16 39.159)" fill="#dfab94"/>
            <g id="Grupo_1113572" data-name="Grupo 1113572" transform="translate(346.942 92.856)" opacity="0.39" style="mix-blend-mode: multiply;isolation: isolate">
              <g id="Grupo_1113571" data-name="Grupo 1113571">
                <g id="Grupo_1113570" data-name="Grupo 1113570" clip-path="url(#clip-path-7)">
                  <path id="Trazado_919071" data-name="Trazado 919071" d="M203.029,51.419c1.6.94,3.012,4.213-.632,7.263a10.936,10.936,0,0,1-7.308,2.742s-.62-4.255,1.7-6.706,5.164-4.016,6.243-3.3" transform="translate(-195.013 -51.243)" fill="#fca695"/>
                </g>
              </g>
            </g>
            <path id="Trazado_919072" data-name="Trazado 919072" d="M195.461,56.218c3.793-6.467,7.585-5.384,8.306-3.758" transform="translate(152.292 41.592)" fill="none" stroke="#b5574b" stroke-linecap="round" stroke-miterlimit="10" stroke-width="1"/>
            <path id="Trazado_919073" data-name="Trazado 919073" d="M196.649,52.657c2.9-.9,3.084,2.963,2,3.923" transform="translate(153.257 42.652)" fill="none" stroke="#b5574b" stroke-linecap="round" stroke-miterlimit="10" stroke-width="1"/>
            <path id="Trazado_919074" data-name="Trazado 919074" d="M177.842,80.39c17.039,0,28.91-10.452,31.927-17.823" transform="translate(137.985 50.808)" fill="none" stroke="#b5574b" stroke-linecap="round" stroke-miterlimit="10" stroke-width="1"/>
            <g id="Grupo_1113575" data-name="Grupo 1113575" transform="translate(318.784 111.418)" opacity="0.39" style="mix-blend-mode: multiply;isolation: isolate">
              <g id="Grupo_1113574" data-name="Grupo 1113574">
                <g id="Grupo_1113573" data-name="Grupo 1113573" clip-path="url(#clip-path-8)">
                  <path id="Trazado_919075" data-name="Trazado 919075" d="M179.785,63.422c1.308-.005,4.835-2.628,5.26-1.76s-.868,2.716-2.14,3.57-4.429-1.8-3.12-1.81" transform="translate(-179.475 -61.487)" fill="#fca695"/>
                </g>
              </g>
            </g>
            <g id="Grupo_1113578" data-name="Grupo 1113578" transform="translate(327.239 93.042)" opacity="0.39" style="mix-blend-mode: multiply;isolation: isolate">
              <g id="Grupo_1113577" data-name="Grupo 1113577">
                <g id="Grupo_1113576" data-name="Grupo 1113576" clip-path="url(#clip-path-9)">
                  <path id="Trazado_919076" data-name="Trazado 919076" d="M192.068,54.441c0,1.709-1.774,3.1-3.963,3.1s-3.965-1.386-3.965-3.1,1.774-3.1,3.965-3.1,3.963,1.386,3.963,3.1" transform="translate(-184.14 -51.346)" fill="#fca695"/>
                </g>
              </g>
            </g>
            <g id="Grupo_1113581" data-name="Grupo 1113581" transform="translate(292.522 93.042)" opacity="0.39" style="mix-blend-mode: multiply;isolation: isolate">
              <g id="Grupo_1113580" data-name="Grupo 1113580">
                <g id="Grupo_1113579" data-name="Grupo 1113579" clip-path="url(#clip-path-9)">
                  <path id="Trazado_919077" data-name="Trazado 919077" d="M172.909,54.441c0,1.709-1.774,3.1-3.963,3.1s-3.965-1.386-3.965-3.1,1.774-3.1,3.965-3.1,3.963,1.386,3.963,3.1" transform="translate(-164.981 -51.346)" fill="#fca695"/>
                </g>
              </g>
            </g>
            <path id="Trazado_919078" data-name="Trazado 919078" d="M227.39,68.031c-6.625,2.269-9.245,11.733-9.245,11.733a71.083,71.083,0,0,1,.444-17.925c-4.262-2.338-3.968-11.454-3.934-12.655,0,0-18.474,5.969-29.982,4.295s-14.031-4.666-14.031-4.666-4.943,4.345-8.29,14.016c0,0-.94-18.673,8.749-22.466,0,0-5.913-7.587,7.382-12.909,16.243-6.5,52.193-5.045,54.3,14.348,5.342,4.345,6.915,20.589-1.549,26.855a3.706,3.706,0,0,0-3.843-.625" transform="translate(125.385 19.468)" fill="#5a2402"/>
            <path id="Trazado_919079" data-name="Trazado 919079" d="M196.548,158.61l-17.039,8.743-3.718,25.215,30.1-4.753Z" transform="translate(136.319 128.802)" fill="#dfab94"/>
            <line id="Línea_796" data-name="Línea 796" x1="9.013" y2="4.615" transform="translate(318.92 289.943)" fill="none" stroke="#b5574b" stroke-linecap="round" stroke-miterlimit="10" stroke-width="1"/>
            <rect id="Rectángulo_409707" data-name="Rectángulo 409707" width="19.82" height="35.09" transform="matrix(0.938, -0.347, 0.347, 0.938, 326.83, 283.14)" fill="#f7cf9c"/>
            <rect id="Rectángulo_409708" data-name="Rectángulo 409708" width="37.455" height="19.821" transform="translate(156.643 170.985) rotate(-33.33)" fill="#f7cf9c"/>
            <path id="Trazado_919080" data-name="Trazado 919080" d="M220.975,89.2c-10.106,3.278-18.777,14.314-19.458,21.589s20.764,64.832,20.764,64.832,15.664,9.173,15.421,16.7" transform="translate(157.197 72.437)" fill="none" stroke="#bf7d2e" stroke-linecap="round" stroke-miterlimit="10" stroke-width="1"/>
            <line id="Línea_797" data-name="Línea 797" x1="34.061" y2="28.201" transform="translate(345.418 248.06)" fill="none" stroke="#bf7d2e" stroke-linecap="round" stroke-miterlimit="10" stroke-width="1"/>
            <path id="Trazado_919081" data-name="Trazado 919081" d="M201.557,197.2s52.637-18.38,58.455-25.585,9.907-9.466,4.45-36.477" transform="translate(157.243 109.738)" fill="none" stroke="#bf7d2e" stroke-linecap="round" stroke-miterlimit="10" stroke-width="1"/>
            <path id="Trazado_919082" data-name="Trazado 919082" d="M162.573,83.98c-7.9,6.773-6.957,91.065-6.957,91.065" transform="translate(119.908 68.197)" fill="none" stroke="#bf7d2e" stroke-linecap="round" stroke-miterlimit="10" stroke-width="1"/>
            <path id="Trazado_919083" data-name="Trazado 919083" d="M124.142,124.548a69.537,69.537,0,0,0-2.725-22.017" transform="translate(92.164 83.262)" fill="none" stroke="#bf7d2e" stroke-linecap="round" stroke-miterlimit="10" stroke-width="1"/>
            <path id="Trazado_919084" data-name="Trazado 919084" d="M123.06,103.825c-.641,5.556-3.921,12.039-3.921,12.039" transform="translate(90.314 84.313)" fill="none" stroke="#bf7d2e" stroke-linecap="round" stroke-miterlimit="10" stroke-width="1"/>
            <line id="Línea_798" data-name="Línea 798" y1="20.478" x2="22.35" transform="translate(253.139 201.408)" fill="none" stroke="#bf7d2e" stroke-linecap="round" stroke-miterlimit="10" stroke-width="1"/>
            <path id="Trazado_919085" data-name="Trazado 919085" d="M177.842,172.5v28.315h10.6V179.051" transform="translate(137.985 140.078)" fill="none" stroke="#af7e62" stroke-linecap="round" stroke-miterlimit="10" stroke-width="1"/>
            <line id="Línea_799" data-name="Línea 799" x1="23.071" y2="125.719" transform="translate(292.756 340.89)" fill="none" stroke="#af7e62" stroke-linecap="round" stroke-miterlimit="10" stroke-width="1"/>
            <rect id="Rectángulo_409709" data-name="Rectángulo 409709" width="239.954" height="13.185" transform="translate(184.316 324.468)" fill="#fca695"/>
            <rect id="Rectángulo_409710" data-name="Rectángulo 409710" width="11.802" height="109.829" transform="translate(196.718 337.653)" fill="#fca695"/>
            <rect id="Rectángulo_409711" data-name="Rectángulo 409711" width="11.802" height="17.751" transform="translate(196.718 337.651)" fill="#ea7a68"/>
            <rect id="Rectángulo_409712" data-name="Rectángulo 409712" width="11.802" height="109.829" transform="translate(397.96 337.653)" fill="#fca695"/>
            <rect id="Rectángulo_409713" data-name="Rectángulo 409713" width="11.802" height="17.751" transform="translate(397.96 337.651)" fill="#ea7a68"/>
            <path id="Trazado_919086" data-name="Trazado 919086" d="M250.281,183.841H129.65a.87.87,0,0,1-.872-.87v-8.22a.87.87,0,0,1,.872-.87H250.281a.87.87,0,0,1,.87.87v8.22a.87.87,0,0,1-.87.87" transform="translate(98.141 141.204)" fill="#7392bf"/>
            <path id="Trazado_919087" data-name="Trazado 919087" d="M238.723,208.955H125.958l-13.547-61A8.8,8.8,0,0,1,121,137.25h92.848a11.161,11.161,0,0,1,10.894,8.74Z" transform="translate(84.678 111.456)" fill="#7392bf"/>
            <path id="Trazado_919088" data-name="Trazado 919088" d="M236.25,208.955H123.485l-13.547-61a8.8,8.8,0,0,1,8.587-10.7h92.847a11.161,11.161,0,0,1,10.9,8.74Z" transform="translate(82.67 111.456)" fill="#87a1cf"/>
            <path id="Trazado_919089" data-name="Trazado 919089" d="M235.993,183.841H115.362a.87.87,0,0,1-.872-.87v-8.22a.87.87,0,0,1,.872-.87H235.993a.87.87,0,0,1,.87.87v8.22a.87.87,0,0,1-.87.87" transform="translate(86.539 141.204)" fill="#87a1cf"/>
            <line id="Línea_800" data-name="Línea 800" x2="88.554" transform="translate(204.201 315.086)" fill="none" stroke="#b1c6e5" stroke-linecap="round" stroke-miterlimit="10" stroke-width="1"/>
            <path id="Trazado_919090" data-name="Trazado 919090" d="M150.591,160.258c1.06,5.853-1.022,11.132-4.65,11.789s-7.431-3.555-8.491-9.408,1.022-11.132,4.65-11.789,7.431,3.555,8.491,9.408" transform="translate(104.959 122.445)" fill="#fff"/>
            <line id="Línea_801" data-name="Línea 801" x2="239.954" transform="translate(184.316 337.652)" fill="none" stroke="#84261f" stroke-linecap="round" stroke-miterlimit="10" stroke-width="1"/>
          </g>
        </g>
      </g>
    </g>
  </g>
</svg>
