<svg xmlns="http://www.w3.org/2000/svg" xmlns:xlink="http://www.w3.org/1999/xlink" width="190" height="98.001" viewBox="0 0 190 98.001">
  <defs>
    <clipPath id="clip-path">
      <rect id="Rectángulo_401573" data-name="Rectángulo 401573" width="28.836" height="98" transform="translate(0 66)" fill="#692cb7"/>
    </clipPath>
    <clipPath id="clip-path-2">
      <rect id="Rectángulo_401572" data-name="Rectángulo 401572" width="72.283" height="268.68" fill="#692cb7"/>
    </clipPath>
    <clipPath id="clip-path-3">
      <rect id="Rectángulo_403255" data-name="Rectángulo 403255" width="65.051" height="65.051" transform="translate(1290.051 440)" fill="#fff" stroke="#707070" stroke-width="1"/>
    </clipPath>
  </defs>
  <g id="Grupo_1106197" data-name="Grupo 1106197" transform="translate(-1230.051 -419.999)">
    <g id="Grupo_1101503" data-name="Grupo 1101503" transform="translate(1420.051 541.798) rotate(180)">
      <g id="Grupo_1099687" data-name="Grupo 1099687" transform="translate(0 -42.201)" clip-path="url(#clip-path)">
        <g id="Grupo_1099686" data-name="Grupo 1099686" transform="translate(-6.669 -55.942)" opacity="0.45" style="mix-blend-mode: multiply;isolation: isolate">
          <g id="Grupo_1099685" data-name="Grupo 1099685">
            <g id="Grupo_1099684" data-name="Grupo 1099684" clip-path="url(#clip-path-2)">
              <path id="Trazado_873516" data-name="Trazado 873516" d="M.841,23.61,91.583-.931,90.445,5.038-.3,29.579Z" transform="matrix(0.898, -0.44, 0.44, 0.898, -11.148, 208.516)" fill="#692cb7"/>
              <path id="Trazado_873517" data-name="Trazado 873517" d="M.841,23.61,91.583-.931,90.445,5.038-.3,29.579Z" transform="matrix(0.898, -0.44, 0.44, 0.898, -11.148, 191.779)" fill="#692cb7"/>
              <path id="Trazado_873518" data-name="Trazado 873518" d="M.841,23.61,91.583-.931,90.445,5.038-.3,29.579Z" transform="matrix(0.898, -0.44, 0.44, 0.898, -11.148, 175.042)" fill="#692cb7"/>
              <path id="Trazado_873519" data-name="Trazado 873519" d="M.841,23.61,91.583-.931,90.445,5.038-.3,29.579Z" transform="matrix(0.898, -0.44, 0.44, 0.898, -11.148, 158.305)" fill="#692cb7"/>
              <path id="Trazado_873520" data-name="Trazado 873520" d="M.841,23.61,91.583-.931,90.445,5.038-.3,29.579Z" transform="matrix(0.898, -0.44, 0.44, 0.898, -11.148, 141.568)" fill="#692cb7"/>
              <path id="Trazado_873521" data-name="Trazado 873521" d="M.841,23.61,91.583-.931,90.445,5.038-.3,29.579Z" transform="matrix(0.898, -0.44, 0.44, 0.898, -11.148, 124.831)" fill="#692cb7"/>
              <path id="Trazado_873522" data-name="Trazado 873522" d="M.841,23.61,91.583-.931,90.445,5.038-.3,29.579Z" transform="matrix(0.898, -0.44, 0.44, 0.898, -11.148, 108.094)" fill="#692cb7"/>
              <path id="Trazado_873523" data-name="Trazado 873523" d="M.841,23.61,91.583-.931,90.445,5.038-.3,29.579Z" transform="matrix(0.898, -0.44, 0.44, 0.898, -11.148, 91.357)" fill="#692cb7"/>
              <path id="Trazado_873524" data-name="Trazado 873524" d="M.841,23.61,91.583-.931,90.445,5.038-.3,29.579Z" transform="matrix(0.898, -0.44, 0.44, 0.898, -11.148, 74.62)" fill="#692cb7"/>
              <path id="Trazado_873525" data-name="Trazado 873525" d="M.841,23.61,91.583-.931,90.445,5.038-.3,29.579Z" transform="matrix(0.898, -0.44, 0.44, 0.898, -11.148, 57.883)" fill="#692cb7"/>
              <path id="Trazado_873526" data-name="Trazado 873526" d="M.841,23.61,91.583-.931,90.445,5.038-.3,29.579Z" transform="translate(-11.148 41.146) rotate(-26.114)" fill="#692cb7"/>
            </g>
          </g>
        </g>
      </g>
      <rect id="Rectángulo_401574" data-name="Rectángulo 401574" width="161" height="98" transform="translate(29 23.798)" fill="#efe8f7"/>
    </g>
    <g id="Enmascarar_grupo_1098720" data-name="Enmascarar grupo 1098720" transform="translate(-10 -3.525)" clip-path="url(#clip-path-3)">
      <g id="Artboard441" transform="translate(1290.051 442.202)">
        <g id="Grupo_1101953" data-name="Grupo 1101953" transform="translate(0 0)">
          <g id="Grupo_1101952" data-name="Grupo 1101952" transform="translate(1.11 1.051)">
            <g id="Grupo_1101942" data-name="Grupo 1101942">
              <g id="Grupo_1101941" data-name="Grupo 1101941">
                <circle id="Elipse_11563" data-name="Elipse 11563" cx="5.837" cy="5.837" r="5.837" fill="#8ac9fe"/>
                <path id="Trazado_913086" data-name="Trazado 913086" d="M7.869,4.589a5.918,5.918,0,0,1,.656-.036,5.837,5.837,0,1,1-.656,11.637,5.837,5.837,0,0,0,0-11.6Z" transform="translate(-2.688 -4.553)" fill="#60b7ff" fill-rule="evenodd"/>
              </g>
            </g>
            <g id="Grupo_1101944" data-name="Grupo 1101944" transform="translate(47.528)">
              <g id="Grupo_1101943" data-name="Grupo 1101943">
                <circle id="Elipse_11564" data-name="Elipse 11564" cx="5.837" cy="5.837" r="5.837" fill="#8ac9fe"/>
                <path id="Trazado_913087" data-name="Trazado 913087" d="M59.744,4.589a5.916,5.916,0,0,1,.656-.036,5.837,5.837,0,1,1-.656,11.637,5.837,5.837,0,0,0,0-11.6Z" transform="translate(-54.563 -4.553)" fill="#60b7ff" fill-rule="evenodd"/>
              </g>
            </g>
            <g id="Grupo_1101945" data-name="Grupo 1101945" transform="translate(12.469 5.62)">
              <path id="Trazado_913088" data-name="Trazado 913088" d="M36.306,13.517a14.56,14.56,0,0,1,4.269,1.769l2.774-1.231,3.269,3.269L45.388,20.1a14.568,14.568,0,0,1,1.769,4.269l2.831,1.09v4.624l-2.831,1.089a14.579,14.579,0,0,1-1.769,4.267l1.231,2.774L43.35,41.484l-2.774-1.233a14.568,14.568,0,0,1-4.269,1.772l-1.089,2.829H30.593L29.5,42.021a14.571,14.571,0,0,1-4.267-1.769l-2.774,1.233-3.271-3.271,1.233-2.772a14.614,14.614,0,0,1-1.771-4.269l-2.829-1.089V25.458l2.829-1.09A14.569,14.569,0,0,1,20.424,20.1l-1.233-2.774,3.271-3.269,2.772,1.231A14.607,14.607,0,0,1,29.5,13.517l1.09-2.831h4.624Z" transform="translate(-15.823 -10.687)" fill="#9facba" fill-rule="evenodd"/>
              <path id="Trazado_913089" data-name="Trazado 913089" d="M42.987,14.47l.932-.414,3.269,3.269L45.957,20.1a14.568,14.568,0,0,1,1.769,4.269l2.831,1.09v4.624l-2.831,1.089a14.579,14.579,0,0,1-1.769,4.267l1.231,2.774-3.269,3.271-.932-.414,2.857-2.857-1.233-2.774a14.572,14.572,0,0,0,1.769-4.267l2.831-1.089V25.458l-2.831-1.09A14.561,14.561,0,0,0,44.611,20.1l1.233-2.774Zm-20.37,0,.414-.414L25.8,15.287c-.2.109-.389.222-.579.341Zm14.259-.952a14.56,14.56,0,0,1,4.269,1.769l-.765.341a19.048,19.048,0,0,0-4.85-2.11L34.44,10.687h1.346ZM25.8,40.251l-2.774,1.233-.414-.414,2.607-1.158q.284.175.581.339Zm15.34,0a14.568,14.568,0,0,1-4.269,1.772l-1.089,2.829H34.44l1.089-2.829a19.1,19.1,0,0,0,4.852-2.11Z" transform="translate(-16.393 -10.687)" fill="#8d9ca8" fill-rule="evenodd"/>
              <path id="Trazado_913090" data-name="Trazado 913090" d="M33.736,20.6a8,8,0,1,1-7.995,8,8,8,0,0,1,7.995-8Z" transform="translate(-16.654 -11.518)" fill="#eceff1" fill-rule="evenodd"/>
              <path id="Trazado_913091" data-name="Trazado 913091" d="M33.736,20.6c.182,0,.362.006.543.019a8,8,0,0,0,0,15.954c-.18.011-.361.018-.543.018a8,8,0,0,1,0-15.991Z" transform="translate(-16.654 -11.518)" fill="#d1d1d6" fill-rule="evenodd"/>
            </g>
            <g id="Grupo_1101950" data-name="Grupo 1101950" transform="translate(34.928 20.681)">
              <g id="Grupo_1101949" data-name="Grupo 1101949">
                <path id="Trazado_913092" data-name="Trazado 913092" d="M66.946,32.329H41.184a.85.85,0,0,0-.848.848v31.4a.85.85,0,0,0,.848.85H66.946a.851.851,0,0,0,.85-.85v-31.4A.85.85,0,0,0,66.946,32.329Z" transform="translate(-40.336 -27.561)" fill="#eceff1" fill-rule="evenodd"/>
                <path id="Trazado_913093" data-name="Trazado 913093" d="M69.317,32.329h-.688v33.1h.688a.851.851,0,0,0,.85-.85v-31.4a.85.85,0,0,0-.85-.848Z" transform="translate(-42.707 -27.561)" fill="#d1d1d6" fill-rule="evenodd"/>
                <path id="Trazado_913094" data-name="Trazado 913094" d="M48.712,29.417H51.79a3,3,0,0,1,5.823,0h3.075a.8.8,0,0,1,.8.8V33.2a.8.8,0,0,1-.8.8H48.712a.8.8,0,0,1-.8-.8v-2.99A.8.8,0,0,1,48.712,29.417Z" transform="translate(-40.971 -27.125)" fill="#e3a76f" fill-rule="evenodd"/>
                <path id="Trazado_913095" data-name="Trazado 913095" d="M60.688,29.626a.8.8,0,0,1,.8.8v2.99a.8.8,0,0,1-.8.8H48.712a.8.8,0,0,1-.8-.8H59.893a.8.8,0,0,0,.8-.8Z" transform="translate(-40.971 -27.335)" fill="#c48958" fill-rule="evenodd"/>
                <g id="Grupo_1101946" data-name="Grupo 1101946" transform="translate(4.261 10.017)">
                  <path id="Trazado_913096" data-name="Trazado 913096" d="M45.6,38.058h4.7a.616.616,0,0,1,.614.614v4.7a.615.615,0,0,1-.614.614H45.6a.615.615,0,0,1-.614-.614v-4.7a.616.616,0,0,1,.614-.614Z" transform="translate(-44.987 -38.058)" fill="#8ac9fe" fill-rule="evenodd"/>
                  <path id="Trazado_913097" data-name="Trazado 913097" d="M49.7,38.058h.993a.616.616,0,0,1,.614.614v4.7a.615.615,0,0,1-.614.614H49.7a.616.616,0,0,0,.614-.614v-4.7a.618.618,0,0,0-.614-.614Z" transform="translate(-45.382 -38.058)" fill="#60b7ff" fill-rule="evenodd"/>
                </g>
                <g id="Grupo_1101947" data-name="Grupo 1101947" transform="translate(4.261 18.942)">
                  <path id="Trazado_913098" data-name="Trazado 913098" d="M45.6,47.8h4.7a.616.616,0,0,1,.614.614v4.7a.614.614,0,0,1-.614.612H45.6a.614.614,0,0,1-.614-.612v-4.7A.616.616,0,0,1,45.6,47.8Z" transform="translate(-44.987 -47.8)" fill="#ffe177" fill-rule="evenodd"/>
                  <path id="Trazado_913099" data-name="Trazado 913099" d="M49.7,47.8h.993a.616.616,0,0,1,.614.614v4.7a.614.614,0,0,1-.614.612H49.7a.616.616,0,0,0,.614-.612v-4.7A.618.618,0,0,0,49.7,47.8Z" transform="translate(-45.382 -47.8)" fill="#ffd064" fill-rule="evenodd"/>
                </g>
                <g id="Grupo_1101948" data-name="Grupo 1101948" transform="translate(4.261 27.468)">
                  <path id="Trazado_913100" data-name="Trazado 913100" d="M45.6,57.105h4.7a.616.616,0,0,1,.614.614v4.7a.614.614,0,0,1-.614.612H45.6a.614.614,0,0,1-.614-.612v-4.7A.616.616,0,0,1,45.6,57.105Z" transform="translate(-44.987 -57.105)" fill="#fe646f" fill-rule="evenodd"/>
                  <path id="Trazado_913101" data-name="Trazado 913101" d="M49.7,57.105h.993a.616.616,0,0,1,.614.614v4.7a.614.614,0,0,1-.614.612H49.7a.616.616,0,0,0,.614-.612v-4.7A.618.618,0,0,0,49.7,57.105Z" transform="translate(-45.382 -57.105)" fill="#fd4755" fill-rule="evenodd"/>
                </g>
              </g>
            </g>
            <g id="Grupo_1101951" data-name="Grupo 1101951" transform="translate(5.691 28.714)">
              <path id="Trazado_913102" data-name="Trazado 913102" d="M26.3,50.707l-3.347-.353V43.2a3.964,3.964,0,1,0-7.929,0v7.5l-3.347-.888V43.2a7.311,7.311,0,0,1,14.623,0Z" transform="translate(-8.698 -35.893)" fill="#d1d1d6" fill-rule="evenodd"/>
              <path id="Trazado_913103" data-name="Trazado 913103" d="M9.762,46.034h17.9A1.339,1.339,0,0,1,29,47.37V61.6a1.338,1.338,0,0,1-1.336,1.335H9.762A1.338,1.338,0,0,1,8.426,61.6V47.37A1.339,1.339,0,0,1,9.762,46.034Z" transform="translate(-8.426 -36.743)" fill="#ffd064" fill-rule="evenodd"/>
              <path id="Trazado_913104" data-name="Trazado 913104" d="M27.8,46.034h1.485a1.339,1.339,0,0,1,1.336,1.336V61.6a1.338,1.338,0,0,1-1.336,1.335H27.8A1.338,1.338,0,0,0,29.139,61.6V47.37A1.339,1.339,0,0,0,27.8,46.034Z" transform="translate(-10.049 -36.743)" fill="#ffc338" fill-rule="evenodd"/>
              <path id="Trazado_913105" data-name="Trazado 913105" d="M19.416,49.716a2.6,2.6,0,0,1,1.364,4.818V58.5a1.365,1.365,0,0,1-2.73,0v-3.97a2.6,2.6,0,0,1,1.366-4.818Z" transform="translate(-9.128 -37.051)" fill="#f5b829" fill-rule="evenodd"/>
            </g>
          </g>
          <path id="Trazado_913106" data-name="Trazado 913106" d="M28.955,45.231V57.97a2.331,2.331,0,0,1-2.33,2.33H9.438A2.334,2.334,0,0,1,7.1,57.97V44.308a2.338,2.338,0,0,1,2.333-2.33h.523v-1.9a8.1,8.1,0,0,1,6.744-7.96q-.128-.384-.237-.775l-2.327-.9a1.049,1.049,0,0,1-.672-.979V24.846a1.049,1.049,0,0,1,.672-.979l2.326-.9a15.693,15.693,0,0,1,1.475-3.556l-1.014-2.28a1.049,1.049,0,0,1,.217-1.168L20.413,12.7a1.049,1.049,0,0,1,1.168-.217l2.28,1.014a15.576,15.576,0,0,1,3.552-1.472l.9-2.331a1.049,1.049,0,0,1,.979-.671h4.622a1.049,1.049,0,0,1,.979.673l.895,2.33A15.569,15.569,0,0,1,39.34,13.5l2.28-1.014a1.049,1.049,0,0,1,1.168.217l3.268,3.268a1.049,1.049,0,0,1,.217,1.167l-1.01,2.28a15.545,15.545,0,0,1,1.473,3.557l2.325.895a1.048,1.048,0,0,1,.5.4,3.847,3.847,0,0,1,4.6,1.96h2.883a1.049,1.049,0,0,1,1.049,1.049v1.165H63.36a2.7,2.7,0,0,1,2.693,2.693V61.361a2.7,2.7,0,0,1-2.693,2.691h-25.3a2.7,2.7,0,0,1-2.693-2.691V43.387l-.472,1.227a1.049,1.049,0,0,1-.979.672H29.291a1.048,1.048,0,0,1-.336-.055Zm-16.9-3.254h1.118v-1.9a4.854,4.854,0,1,1,9.708,0v1.9H24v-1.9a5.97,5.97,0,1,0-11.941,0Zm3.216,0h5.511v-1.9a2.756,2.756,0,1,0-5.511,0Zm10.823,0h.321q-.161-.056-.321-.116Zm-7.187-9.922a8.1,8.1,0,0,1,7.172,7.533,13.439,13.439,0,0,0,2.36.8,1.049,1.049,0,0,1,.737.644l.83,2.158h3.181l.83-2.158a1.049,1.049,0,0,1,.737-.644q.3-.072.6-.159V35.459a9.114,9.114,0,1,1,5.351-8.3,9.172,9.172,0,0,1-.09,1.282h2.707V27.272a1.049,1.049,0,0,1,1.049-1.049h2.883a3.841,3.841,0,0,1,.368-.6v-.059l-2.158-.83A1.049,1.049,0,0,1,44.832,24a13.467,13.467,0,0,0-1.641-3.965,1.049,1.049,0,0,1-.066-.975l.937-2.116-2.249-2.249-2.116.941a1.049,1.049,0,0,1-.977-.065,13.489,13.489,0,0,0-3.961-1.641,1.049,1.049,0,0,1-.737-.644l-.831-2.162H30.011l-.835,2.163a1.049,1.049,0,0,1-.736.643,13.489,13.489,0,0,0-3.961,1.641,1.049,1.049,0,0,1-.977.065l-2.116-.941-2.248,2.248.941,2.116a1.049,1.049,0,0,1-.065.977A13.6,13.6,0,0,0,18.368,24a1.05,1.05,0,0,1-.643.734l-2.158.83v3.181l2.158.83a1.049,1.049,0,0,1,.643.734,13.779,13.779,0,0,0,.544,1.744Zm39.172-1.52v1.009a1.049,1.049,0,0,1-1.049,1.049H44.383a1.049,1.049,0,0,1-1.049-1.049V30.535H38.059a.6.6,0,0,0-.595.595V61.361a.6.6,0,0,0,.595.593h25.3a.6.6,0,0,0,.595-.593V31.13a.6.6,0,0,0-.595-.595ZM35.365,33.077V31.13a2.7,2.7,0,0,1,2.693-2.693H38.5a7.016,7.016,0,1,0-6.9,5.735A6.983,6.983,0,0,0,35.365,33.077Zm-25.928,11a.234.234,0,0,0-.235.232V57.97a.234.234,0,0,0,.235.232H26.625a.232.232,0,0,0,.232-.232V44.308a.232.232,0,0,0-.232-.232Zm8.594,1.139a3.551,3.551,0,0,1,2.36,6.2V54.7a2.36,2.36,0,0,1-4.72,0V51.414a3.549,3.549,0,0,1,2.36-6.2Zm0,2.1A1.451,1.451,0,0,0,17.271,50a1.049,1.049,0,0,1,.5.893V54.7a.262.262,0,0,0,.523,0V50.892a1.049,1.049,0,0,1,.5-.893,1.452,1.452,0,0,0-.76-2.686Zm27.4-18.992V30.5H55.986V28.321H53.424a1.049,1.049,0,0,1-1.02-.8,1.745,1.745,0,0,0-3.391,0,1.049,1.049,0,0,1-1.02.8Zm5.276-.157a.738.738,0,1,1,.739-.737A.738.738,0,0,1,50.708,28.164Zm.441,9.659a1.049,1.049,0,0,1,0-2.1h7.31a1.049,1.049,0,1,1,0,2.1Zm0,7.813a1.049,1.049,0,0,1,0-2.1h7.31a1.049,1.049,0,1,1,0,2.1Zm0,2.785a1.049,1.049,0,0,1,0-2.1H54.8a1.049,1.049,0,1,1,0,2.1Zm0-7.813a1.049,1.049,0,0,1,0-2.1H54.8a1.049,1.049,0,1,1,0,2.1Zm0,14.607a1.049,1.049,0,0,1,0-2.1h7.31a1.049,1.049,0,1,1,0,2.1Zm0,2.785a1.049,1.049,0,0,1,0-2.1H54.8a1.049,1.049,0,1,1,0,2.1Zm-8.39-23.456h3.1a2.077,2.077,0,0,1,2.073,2.073v3.1a2.08,2.08,0,0,1-2.073,2.073h-3.1a2.08,2.08,0,0,1-2.071-2.073v-3.1A2.077,2.077,0,0,1,42.759,34.545Zm.028,2.1v3.049h3.047V36.643Zm-.028,15.293h3.1a2.077,2.077,0,0,1,2.073,2.07v3.1a2.076,2.076,0,0,1-2.073,2.073h-3.1a2.077,2.077,0,0,1-2.071-2.073v-3.1A2.077,2.077,0,0,1,42.759,51.937Zm.028,2.1v3.047h3.047V54.035Zm-.028-10.794h3.1a2.076,2.076,0,0,1,2.073,2.073v3.1a2.077,2.077,0,0,1-2.073,2.07h-3.1a2.077,2.077,0,0,1-2.071-2.07v-3.1A2.077,2.077,0,0,1,42.759,43.241Zm.028,2.1v3.047h3.047V45.339ZM7.888,3.405A6.886,6.886,0,1,1,1,10.291,6.889,6.889,0,0,1,7.888,3.405Zm0,2.1a4.788,4.788,0,1,0,4.788,4.788A4.79,4.79,0,0,0,7.888,5.5ZM4.711,11.18A1.049,1.049,0,0,1,6.194,9.7l.714.713L9.619,7.949A1.049,1.049,0,1,1,11.028,9.5L7.577,12.633A1.049,1.049,0,0,1,6.131,12.6ZM55.416,3.405a6.886,6.886,0,1,1-6.886,6.886,6.889,6.889,0,0,1,6.886-6.886Zm0,2.1A4.788,4.788,0,1,0,60.2,10.291,4.79,4.79,0,0,0,55.416,5.5ZM52.239,11.18A1.049,1.049,0,0,1,53.722,9.7l.714.713,2.711-2.458A1.049,1.049,0,1,1,58.557,9.5l-3.451,3.129A1.049,1.049,0,0,1,53.66,12.6Z" transform="translate(-1.002 -3.405)" fill-rule="evenodd"/>
        </g>
      </g>
    </g>
  </g>
</svg>
