<svg xmlns="http://www.w3.org/2000/svg" width="64.1" height="59.8" viewBox="0 0 64.1 59.8">
  <g id="blogger" transform="translate(-2 -4.1)">
    <path id="Trazado_919209" data-name="Trazado 919209" d="M14.1,6.1H34.5V17.2a.945.945,0,0,0,1,1H46.6v6.2a1,1,0,1,0,2,0V17.2a.6.6,0,0,0-.1-.4c-.1-.1-.1-.2-.2-.3L36.2,4.4c-.1-.1-.2-.2-.3-.2a.6.6,0,0,0-.4-.1H14.1a.945.945,0,0,0-1,1,1,1,0,0,0,1,1ZM36.5,7.5l8.6,8.6H36.5Z" fill="#692cb7"/>
    <path id="Trazado_919210" data-name="Trazado 919210" d="M9.4,61.9H4V6.1H9.7a.945.945,0,0,0,1-1,.945.945,0,0,0-1-1H3a.945.945,0,0,0-1,1V62.9a.945.945,0,0,0,1,1H9.4a.945.945,0,0,0,1-1A1,1,0,0,0,9.4,61.9Z" fill="#692cb7"/>
    <path id="Trazado_919211" data-name="Trazado 919211" d="M47.6,48.5a.945.945,0,0,0-1,1V61.9H14.1a1,1,0,1,0,0,2H47.6a.945.945,0,0,0,1-1V49.5A1,1,0,0,0,47.6,48.5Z" fill="#692cb7"/>
    <path id="Trazado_919212" data-name="Trazado 919212" d="M40.5,24.6H10.1a1,1,0,0,0,0,2H40.5a1,1,0,0,0,0-2Z" fill="#692cb7"/>
    <path id="Trazado_919213" data-name="Trazado 919213" d="M10.1,31.4H20.8a1,1,0,0,0,0-2H10.1a1,1,0,0,0,0,2Z" fill="#692cb7"/>
    <path id="Trazado_919214" data-name="Trazado 919214" d="M41.5,30.4a.945.945,0,0,0-1-1h-15a1,1,0,0,0,0,2h15A1,1,0,0,0,41.5,30.4Z" fill="#692cb7"/>
    <path id="Trazado_919215" data-name="Trazado 919215" d="M10.1,36.2H30.9a1,1,0,1,0,0-2H10.1a1,1,0,1,0,0,2Z" fill="#692cb7"/>
    <path id="Trazado_919216" data-name="Trazado 919216" d="M64.6,19.7a4.589,4.589,0,0,0-6.6,0l-2.6,2.6h0L34.8,43c-.1.1-.2.2-.2.3l-4.3,9.4a1,1,0,0,0,.9,1.4.6.6,0,0,0,.4-.1L41,49.7c.1,0,.2-.1.3-.2L52.1,38.7a.99.99,0,0,0-1.4-1.4L40.6,47.4l-3.7-3.7L56.3,24.3,60,28l-5.7,5.7a.99.99,0,0,0,1.4,1.4l6.4-6.4h0l2.6-2.6a4.534,4.534,0,0,0,1.4-3.3,4.038,4.038,0,0,0-1.5-3.1ZM38.9,48.5,33.3,51l2.6-5.6ZM63.2,24.8l-1.8,1.8-3.7-3.7,1.8-1.8a2.657,2.657,0,0,1,3.7,0,2.688,2.688,0,0,1,.8,1.8,2.732,2.732,0,0,1-.8,1.9Z" fill="#692cb7"/>
  </g>
</svg>
