<svg xmlns="http://www.w3.org/2000/svg" xmlns:xlink="http://www.w3.org/1999/xlink" width="290.934" height="115" viewBox="0 0 290.934 115">
  <defs>
    <clipPath id="clip-path">
      <rect id="Rectángulo_401573" data-name="Rectángulo 401573" width="28.836" height="111" fill="#3ba935"/>
    </clipPath>
    <clipPath id="clip-path-2">
      <rect id="Rectángulo_401572" data-name="Rectángulo 401572" width="72.283" height="262.133" fill="#3ba935"/>
    </clipPath>
    <clipPath id="clip-path-3">
      <rect id="Rectángulo_403328" data-name="Rectángulo 403328" width="71" height="71" fill="#3ba935" stroke="#707070" stroke-width="1"/>
    </clipPath>
  </defs>
  <g id="Grupo_1102223" data-name="Grupo 1102223" transform="translate(-180.051 -2288.95)">
    <g id="Grupo_1101824" data-name="Grupo 1101824" transform="translate(180.051 2288.95)">
      <g id="Grupo_1099687" data-name="Grupo 1099687" transform="translate(0 0.333)" clip-path="url(#clip-path)">
        <g id="Grupo_1099686" data-name="Grupo 1099686" transform="translate(-6.669 -55.037)" opacity="0.45" style="mix-blend-mode: multiply;isolation: isolate">
          <g id="Grupo_1099685" data-name="Grupo 1099685">
            <g id="Grupo_1099684" data-name="Grupo 1099684" clip-path="url(#clip-path-2)">
              <path id="Trazado_873516" data-name="Trazado 873516" d="M1.075,23.185,91.151,0,90.077,5.841,0,29.026Z" transform="matrix(0.898, -0.44, 0.44, 0.898, -11.17, 203.412)" fill="#3ba935"/>
              <path id="Trazado_873517" data-name="Trazado 873517" d="M1.075,23.185,91.151,0,90.077,5.841,0,29.026Z" transform="matrix(0.898, -0.44, 0.44, 0.898, -11.17, 187.082)" fill="#3ba935"/>
              <path id="Trazado_873518" data-name="Trazado 873518" d="M1.075,23.185,91.151,0,90.077,5.841,0,29.026Z" transform="matrix(0.898, -0.44, 0.44, 0.898, -11.17, 170.753)" fill="#3ba935"/>
              <path id="Trazado_873519" data-name="Trazado 873519" d="M1.075,23.185,91.151,0,90.077,5.841,0,29.026Z" transform="matrix(0.898, -0.44, 0.44, 0.898, -11.17, 154.424)" fill="#3ba935"/>
              <path id="Trazado_873520" data-name="Trazado 873520" d="M1.075,23.185,91.151,0,90.077,5.841,0,29.026Z" transform="matrix(0.898, -0.44, 0.44, 0.898, -11.17, 138.095)" fill="#3ba935"/>
              <path id="Trazado_873521" data-name="Trazado 873521" d="M1.075,23.185,91.151,0,90.077,5.841,0,29.026Z" transform="matrix(0.898, -0.44, 0.44, 0.898, -11.17, 121.766)" fill="#3ba935"/>
              <path id="Trazado_873522" data-name="Trazado 873522" d="M1.075,23.185,91.151,0,90.077,5.841,0,29.026Z" transform="matrix(0.898, -0.44, 0.44, 0.898, -11.17, 105.437)" fill="#3ba935"/>
              <path id="Trazado_873523" data-name="Trazado 873523" d="M1.075,23.185,91.151,0,90.077,5.841,0,29.026Z" transform="matrix(0.898, -0.44, 0.44, 0.898, -11.17, 89.108)" fill="#3ba935"/>
              <path id="Trazado_873524" data-name="Trazado 873524" d="M1.075,23.185,91.151,0,90.077,5.841,0,29.026Z" transform="matrix(0.898, -0.44, 0.44, 0.898, -11.17, 72.779)" fill="#3ba935"/>
              <path id="Trazado_873525" data-name="Trazado 873525" d="M1.075,23.185,91.151,0,90.077,5.841,0,29.026Z" transform="matrix(0.898, -0.44, 0.44, 0.898, -11.17, 56.449)" fill="#3ba935"/>
              <path id="Trazado_873526" data-name="Trazado 873526" d="M1.075,23.185,91.151,0,90.077,5.841,0,29.026Z" transform="translate(-11.17 40.12) rotate(-26.114)" fill="#3ba935"/>
            </g>
          </g>
        </g>
      </g>
      <rect id="Rectángulo_401574" data-name="Rectángulo 401574" width="261.934" height="115" transform="translate(29)" fill="#ebf6ea"/>
    </g>
    <g id="Enmascarar_grupo_1098718" data-name="Enmascarar grupo 1098718" transform="translate(280.984 2310.95)" clip-path="url(#clip-path-3)">
      <g id="especificaciones" transform="translate(0 0)">
        <g id="Grupo_1101939" data-name="Grupo 1101939" transform="translate(1.006 1.006)">
          <g id="Grupo_1101936" data-name="Grupo 1101936" transform="translate(0 18.643)">
            <g id="Grupo_1101935" data-name="Grupo 1101935">
              <path id="Trazado_913060" data-name="Trazado 913060" d="M19.219,34.631v-4.95a1.763,1.763,0,0,0-1.759-1.759H13.184a1.763,1.763,0,0,0-1.759,1.759v1.935Z" transform="translate(-2.299 -20.943)" fill="#a9b0bb" fill-rule="evenodd"/>
              <path id="Trazado_913061" data-name="Trazado 913061" d="M6.5,20.943H17.166A2.057,2.057,0,0,1,19.219,23v.763a.881.881,0,0,1-.88.88H9.372A1.231,1.231,0,0,0,8.14,25.869v12.79L9.5,39.921,8.14,41.9v1.777a1.847,1.847,0,1,1-3.695,0V23A2.056,2.056,0,0,1,6.5,20.943Z" transform="translate(-2.299 -20.943)" fill="#a9b0bb" fill-rule="evenodd"/>
              <path id="Trazado_913062" data-name="Trazado 913062" d="M19.219,31.616V57.035a3.316,3.316,0,0,1-6.632,0V43.656L8.14,41.983V36.606H3.559V32.5a.881.881,0,0,1,.88-.88Z" transform="translate(-2.299 -20.943)" fill="#f76c82" fill-rule="evenodd"/>
              <path id="Trazado_913063" data-name="Trazado 913063" d="M3.179,39.351H9.57a.881.881,0,0,0,.88-.88V36.536a.881.881,0,0,0-.88-.88H3.179a.881.881,0,0,0-.88.88v1.935a.881.881,0,0,0,.88.88Z" transform="translate(-2.299 -20.943)" fill="#636c77" fill-rule="evenodd"/>
            </g>
          </g>
          <g id="Grupo_1101938" data-name="Grupo 1101938" transform="translate(21.402)">
            <path id="Trazado_913064" data-name="Trazado 913064" d="M68.99,10.006H26a2.3,2.3,0,0,0-2.3,2.3V68.99a2.3,2.3,0,0,0,2.3,2.3H68.99a2.3,2.3,0,0,0,2.3-2.3V12.3A2.3,2.3,0,0,0,68.99,10.006Z" transform="translate(-23.701 -2.3)" fill="#efc7a4" fill-rule="evenodd"/>
            <path id="Trazado_913065" data-name="Trazado 913065" d="M57.734,7.207H52.4a4.907,4.907,0,1,0-9.815,0H37.255a.72.72,0,0,0-.719.719v8.114H58.453V7.926A.72.72,0,0,0,57.734,7.207Z" transform="translate(-23.701 -2.3)" fill="#e4e8eb" fill-rule="evenodd"/>
            <path id="Trazado_913066" data-name="Trazado 913066" d="M28.3,14.6H66.692v52.09H28.3Z" transform="translate(-23.701 -2.3)" fill="#f4f6f8" fill-rule="evenodd"/>
            <g id="Grupo_1101937" data-name="Grupo 1101937" transform="translate(13.994 21.681)">
              <path id="Trazado_913067" data-name="Trazado 913067" d="M56.65,35.4a2.17,2.17,0,0,0-1.534,3.7.644.644,0,0,1,0,.91L53.731,41.4a.644.644,0,0,1-.91,0,2.17,2.17,0,0,0-3.7,1.534.644.644,0,0,1-.644.644h-1.96a.644.644,0,0,1-.644-.644,2.169,2.169,0,0,0-3.7-1.534.644.644,0,0,1-.91,0l-1.386-1.386a.644.644,0,0,1,0-.91,2.17,2.17,0,0,0-1.534-3.7.644.644,0,0,1-.644-.644V32.8a.644.644,0,0,1,.644-.644,2.17,2.17,0,0,0,1.534-3.7.644.644,0,0,1,0-.91l1.386-1.386a.644.644,0,0,1,.91,0,2.17,2.17,0,0,0,3.7-1.534.644.644,0,0,1,.644-.644h1.96a.644.644,0,0,1,.644.644,2.17,2.17,0,0,0,3.7,1.534.644.644,0,0,1,.91,0l1.386,1.386a.644.644,0,0,1,0,.91,2.17,2.17,0,0,0,1.534,3.7.644.644,0,0,1,.644.644v1.96a.644.644,0,0,1-.644.644Z" transform="translate(-37.695 -23.981)" fill="#fdcd56" fill-rule="evenodd"/>
              <circle id="Elipse_11559" data-name="Elipse 11559" cx="4.709" cy="4.709" r="4.709" transform="translate(5.091 5.091)" fill="#f4f6f8"/>
            </g>
          </g>
        </g>
        <path id="Trazado_913068" data-name="Trazado 913068" d="M14.847,56.921A1.056,1.056,0,1,1,15.9,57.977,1.056,1.056,0,0,1,14.847,56.921Zm3.366-33.289H9.372a2.24,2.24,0,0,0-2.238,2.238V30.61H5.452V23A1.048,1.048,0,0,1,6.5,21.949H17.166A1.048,1.048,0,0,1,18.213,23Zm0,8.991H4.566V34.65H10.45a1.007,1.007,0,0,1,1.006,1.006v3.695a1.007,1.007,0,0,1-1.006,1.006h-1.3v.93l3.795,1.428a1.006,1.006,0,0,1,.65.941V57.034a2.311,2.311,0,1,0,4.621,0Zm-5.782-3.695V30.61h5.782V28.928ZM6.293,44.519a.842.842,0,0,1-.842-.841V40.357H7.134v3.321a.841.841,0,0,1-.841.841ZM3.305,36.662H9.444v1.682H3.305ZM17.166,19.937H6.5A3.062,3.062,0,0,0,3.439,23v7.623a1,1,0,0,0-.885,1V34.65H2.3a1.006,1.006,0,0,0-1.005,1.006v3.695A1.006,1.006,0,0,0,2.3,40.357h1.14v3.321a2.854,2.854,0,0,0,5.707,0v-.241l2.434.917V57.034a4.322,4.322,0,1,0,8.645,0V27.922a1,1,0,0,0-1.005-1.006H11.425a1.006,1.006,0,0,0-1.006,1.006V30.61H9.146V25.869a.226.226,0,0,1,.226-.226h9.847a1,1,0,0,0,1.005-1.005V23a3.062,3.062,0,0,0-3.058-3.058ZM47.494,30.078a3.7,3.7,0,1,1-3.7,3.7,3.706,3.706,0,0,1,3.7-3.7Zm0,9.417a5.715,5.715,0,1,0-5.715-5.715A5.721,5.721,0,0,0,47.494,39.5ZM38.7,33.143v1.274a3.178,3.178,0,0,1,2.125,5.13l.9.9a3.177,3.177,0,0,1,5.129,2.125h1.275a3.178,3.178,0,0,1,5.129-2.125l.9-.9a3.179,3.179,0,0,1,2.125-5.13V33.143a3.179,3.179,0,0,1-2.125-5.13l-.9-.9a3.178,3.178,0,0,1-5.129-2.125H46.857a3.178,3.178,0,0,1-5.129,2.125l-.9.9a3.179,3.179,0,0,1-2.126,5.13Zm-.362,3.267a1.164,1.164,0,0,1,.822,1.985,1.652,1.652,0,0,0,0,2.333l1.385,1.386a1.653,1.653,0,0,0,2.334,0,1.163,1.163,0,0,1,1.985.822,1.651,1.651,0,0,0,1.648,1.65h1.961a1.651,1.651,0,0,0,1.649-1.65,1.164,1.164,0,0,1,1.985-.822,1.651,1.651,0,0,0,2.333,0l1.386-1.386a1.653,1.653,0,0,0,0-2.334,1.164,1.164,0,0,1,.822-1.985,1.652,1.652,0,0,0,1.65-1.65V32.8a1.652,1.652,0,0,0-1.65-1.65,1.164,1.164,0,0,1-.822-1.985,1.649,1.649,0,0,0,0-2.333l-1.386-1.386a1.651,1.651,0,0,0-2.333,0,1.164,1.164,0,0,1-1.985-.822,1.652,1.652,0,0,0-1.649-1.65H46.513a1.651,1.651,0,0,0-1.648,1.65,1.164,1.164,0,0,1-1.985.822,1.653,1.653,0,0,0-2.334,0l-1.385,1.386a1.649,1.649,0,0,0,0,2.333,1.164,1.164,0,0,1-.822,1.985,1.652,1.652,0,0,0-1.65,1.65v1.96a1.652,1.652,0,0,0,1.65,1.65Zm15.15,19.249a1.006,1.006,0,0,1-1.006,1.006H42.528a1.006,1.006,0,0,1,0-2.012h9.954A1.007,1.007,0,0,1,53.488,55.659ZM42.528,51.313H62.436a1.006,1.006,0,0,1,0,2.012H42.528a1.006,1.006,0,1,1,0-2.012Zm-6.867.575a2.1,2.1,0,1,1-2.1,2.1A2.1,2.1,0,0,1,35.661,51.888Zm0,6.216a4.114,4.114,0,1,0-4.113-4.115A4.119,4.119,0,0,0,35.661,58.1ZM46.2,7.208A1.294,1.294,0,1,1,47.494,8.5,1.294,1.294,0,0,1,46.2,7.208ZM70.281,68.99V12.3a1.293,1.293,0,0,0-1.292-1.292h-9.53V13.6h7.232A1.006,1.006,0,0,1,67.7,14.6V66.691A1,1,0,0,1,66.691,67.7H28.3a1.006,1.006,0,0,1-1.006-1.006V14.6A1.007,1.007,0,0,1,28.3,13.6H35.53V11.012H26A1.293,1.293,0,0,0,24.708,12.3V68.99A1.293,1.293,0,0,0,26,70.282h42.99a1.293,1.293,0,0,0,1.292-1.292ZM37.542,8.213V13.6h19.9V8.213H52.4A1,1,0,0,1,51.4,7.208a3.9,3.9,0,0,0-7.8,0,1.006,1.006,0,0,1-1.005,1.005Zm28.143,7.395H29.3V65.685H65.685ZM68.989,9h-9.53V7.208A1.007,1.007,0,0,0,58.453,6.2H53.322a5.915,5.915,0,0,0-11.656,0h-5.13A1.007,1.007,0,0,0,35.53,7.208V9H26a3.307,3.307,0,0,0-3.3,3.3V68.99a3.307,3.307,0,0,0,3.3,3.3h42.99a3.307,3.307,0,0,0,3.3-3.3V12.3A3.307,3.307,0,0,0,68.989,9Z" transform="translate(-1.294 -1.294)" fill-rule="evenodd"/>
      </g>
    </g>
  </g>
</svg>
