<svg xmlns="http://www.w3.org/2000/svg" xmlns:xlink="http://www.w3.org/1999/xlink" width="190" height="91.333" viewBox="0 0 190 91.333">
  <defs>
    <clipPath id="clip-path">
      <rect id="Rectángulo_401573" data-name="Rectángulo 401573" width="28.836" height="91.333" fill="none"/>
    </clipPath>
    <clipPath id="clip-path-2">
      <rect id="Rectángulo_401572" data-name="Rectángulo 401572" width="72.283" height="161.428" fill="none"/>
    </clipPath>
  </defs>
  <g id="Grupo_1102221" data-name="Grupo 1102221" transform="translate(-180 -960.999)">
    <g id="Grupo_1099688" data-name="Grupo 1099688" transform="translate(180 960.999)">
      <g id="Grupo_1099687" data-name="Grupo 1099687" clip-path="url(#clip-path)">
        <g id="Grupo_1099686" data-name="Grupo 1099686" transform="translate(-6.669 -33.893)" opacity="0.45" style="mix-blend-mode: multiply;isolation: isolate">
          <g id="Grupo_1099685" data-name="Grupo 1099685">
            <g id="Grupo_1099684" data-name="Grupo 1099684" clip-path="url(#clip-path-2)">
              <path id="Trazado_873516" data-name="Trazado 873516" d="M5.711,18.012l79.852-2.327-.108,3.868L5.6,21.88Z" transform="matrix(0.898, -0.44, 0.44, 0.898, -13.055, 124.136)" fill="#2d0464"/>
              <path id="Trazado_873517" data-name="Trazado 873517" d="M5.711,18.012l79.852-2.327-.108,3.868L5.6,21.88Z" transform="matrix(0.898, -0.44, 0.44, 0.898, -13.055, 114.08)" fill="#2d0464"/>
              <path id="Trazado_873518" data-name="Trazado 873518" d="M5.711,18.012l79.852-2.327-.108,3.868L5.6,21.88Z" transform="matrix(0.898, -0.44, 0.44, 0.898, -13.055, 104.024)" fill="#2d0464"/>
              <path id="Trazado_873519" data-name="Trazado 873519" d="M5.711,18.012l79.852-2.327-.108,3.868L5.6,21.88Z" transform="matrix(0.898, -0.44, 0.44, 0.898, -13.055, 93.968)" fill="#2d0464"/>
              <path id="Trazado_873520" data-name="Trazado 873520" d="M5.711,18.012l79.852-2.327-.108,3.868L5.6,21.88Z" transform="matrix(0.898, -0.44, 0.44, 0.898, -13.055, 83.912)" fill="#2d0464"/>
              <path id="Trazado_873521" data-name="Trazado 873521" d="M5.711,18.012l79.852-2.327-.108,3.868L5.6,21.88Z" transform="matrix(0.898, -0.44, 0.44, 0.898, -13.055, 73.856)" fill="#2d0464"/>
              <path id="Trazado_873522" data-name="Trazado 873522" d="M5.711,18.012l79.852-2.327-.108,3.868L5.6,21.88Z" transform="matrix(0.898, -0.44, 0.44, 0.898, -13.055, 63.8)" fill="#2d0464"/>
              <path id="Trazado_873523" data-name="Trazado 873523" d="M5.711,18.012l79.852-2.327-.108,3.868L5.6,21.88Z" transform="matrix(0.898, -0.44, 0.44, 0.898, -13.055, 53.744)" fill="#2d0464"/>
              <path id="Trazado_873524" data-name="Trazado 873524" d="M5.711,18.012l79.852-2.327-.108,3.868L5.6,21.88Z" transform="matrix(0.898, -0.44, 0.44, 0.898, -13.055, 43.689)" fill="#2d0464"/>
              <path id="Trazado_873525" data-name="Trazado 873525" d="M5.711,18.012l79.852-2.327-.108,3.868L5.6,21.88Z" transform="matrix(0.898, -0.44, 0.44, 0.898, -13.055, 33.633)" fill="#2d0464"/>
              <path id="Trazado_873526" data-name="Trazado 873526" d="M5.711,18.012l79.852-2.327-.108,3.868L5.6,21.88Z" transform="translate(-13.055 23.577) rotate(-26.114)" fill="#2d0464"/>
            </g>
          </g>
        </g>
      </g>
      <rect id="Rectángulo_401574" data-name="Rectángulo 401574" width="161" height="91" transform="translate(29)" fill="#efe8f7"/>
    </g>
    <g id="tecnico" transform="translate(260.667 974.583)">
      <rect id="Rectángulo_406100" data-name="Rectángulo 406100" width="42" height="9" transform="translate(6 54)" fill="#f2b89e"/>
      <path id="Trazado_915736" data-name="Trazado 915736" d="M39,54H49V48.239a12.2,12.2,0,0,0-1.606-6.05h0a12.2,12.2,0,0,0-5.679-5.114L37.8,35.786,32,34V30.661H22V34l-5.8,1.786-3.91,1.288a12.2,12.2,0,0,0-5.679,5.114h0A12.2,12.2,0,0,0,5,48.239V54H15v9H39Z" fill="#004a9e"/>
      <path id="Trazado_915737" data-name="Trazado 915737" d="M47.393,42.188h0a12.2,12.2,0,0,0-5.679-5.114L37.8,35.786,32,34V30.661H25V34l-5.8,1.786-3.91,1.288a12.2,12.2,0,0,0-5.679,5.114h0A12.2,12.2,0,0,0,8,48.239V54h7v9H39V54H49V48.239a12.2,12.2,0,0,0-1.606-6.05Z" fill="#0056c0"/>
      <path id="Trazado_915738" data-name="Trazado 915738" d="M27,39a18.031,18.031,0,0,0,5-5h0V30.661H22V34h0a18.031,18.031,0,0,0,5,5Z" fill="#d08c76"/>
      <path id="Trazado_915739" data-name="Trazado 915739" d="M14.094,15a6.98,6.98,0,0,0,.115,2.837l.6,2.409H39.188l.124-.493A23.043,23.043,0,0,0,39.974,15Z" fill="#383838"/>
      <path id="Trazado_915740" data-name="Trazado 915740" d="M17.094,15a6.98,6.98,0,0,0,.115,2.837l.6,2.409H39.188l.124-.493A23.043,23.043,0,0,0,39.974,15Z" fill="#4c4c4c"/>
      <path id="Trazado_915741" data-name="Trazado 915741" d="M17.109,20H16a3,3,0,0,0-3,3h0a3,3,0,0,0,3,3h1.833" fill="#d08c76"/>
      <path id="Trazado_915742" data-name="Trazado 915742" d="M30.664,13.891h0A5.3,5.3,0,0,1,33.606,13h0a1.935,1.935,0,0,1,1.835,1.323l.61,1.831A18.468,18.468,0,0,1,37,22h0A10,10,0,0,1,27,32h0A10,10,0,0,1,17,22h0a18.471,18.471,0,0,1,.95-5.848l.609-1.829A1.935,1.935,0,0,1,20.394,13h0a5.3,5.3,0,0,1,2.943.891h0A6.608,6.608,0,0,0,27,15h0a6.608,6.608,0,0,0,3.664-1.109Z" fill="#d08c76"/>
      <path id="Trazado_915743" data-name="Trazado 915743" d="M28,31.95A10,10,0,0,0,37,22h0a18.471,18.471,0,0,0-.95-5.848l-.609-1.829A1.935,1.935,0,0,0,33.606,13a5.3,5.3,0,0,0-2.943.891,6.607,6.607,0,0,1-7.327,0,5.277,5.277,0,0,0-1.68-.725,1.917,1.917,0,0,0-1.1,1.157l-.61,1.831A18.468,18.468,0,0,0,19,22a10,10,0,0,0,9,9.95Z" fill="#f2b89e"/>
      <path id="Trazado_915744" data-name="Trazado 915744" d="M14,15l1.859,1.859A3.9,3.9,0,0,0,18.614,18h0a3.837,3.837,0,0,0,.764-.076l1.68-.336A30.326,30.326,0,0,1,27,17h0a30.3,30.3,0,0,1,5.938.588l1.684.336a3.837,3.837,0,0,0,.764.076h0a3.9,3.9,0,0,0,2.755-1.141L40,15l-.784-5.1A9.323,9.323,0,0,0,30,2H24a9.325,9.325,0,0,0-9.216,7.906Z" fill="#a3b8db"/>
      <path id="Trazado_915745" data-name="Trazado 915745" d="M17.784,9.906,17.4,12.4a5.185,5.185,0,0,0,1.459,4.457,3.882,3.882,0,0,0,1.407.888l.792-.159a30.3,30.3,0,0,1,11.881,0l1.683.336a3.837,3.837,0,0,0,.764.076,3.9,3.9,0,0,0,2.755-1.141L40,15l-.784-5.1A9.323,9.323,0,0,0,30,2H27a9.323,9.323,0,0,0-9.216,7.907Z" fill="#c0cee8"/>
      <path id="Trazado_915746" data-name="Trazado 915746" d="M36.891,20H38a3,3,0,0,1,3,3h0a3,3,0,0,1-3,3H36.167" fill="#d08c76"/>
      <path id="Trazado_915747" data-name="Trazado 915747" d="M41,63l-1.286-7.714L36,51H15L13,63Z" fill="#c0cee8"/>
      <path id="Trazado_915748" data-name="Trazado 915748" d="M17.3,57.191,16.333,63H41l-1.286-7.714L37.733,53H22.249A5.017,5.017,0,0,0,17.3,57.191Z" fill="#d6dfef"/>
      <path id="Trazado_915749" data-name="Trazado 915749" d="M16,51,12,36l4-1,4,16" fill="#93add1"/>
      <path id="Trazado_915750" data-name="Trazado 915750" d="M31,13.034V8H23v5.034" fill="#0056c0"/>
      <rect id="Rectángulo_406101" data-name="Rectángulo 406101" width="2" height="12" transform="translate(26 39)" fill="#004a9e"/>
      <path id="Trazado_915751" data-name="Trazado 915751" d="M29.615,13h-5.23A27.967,27.967,0,0,0,14,15l1.858,1.859A3.9,3.9,0,0,0,18.614,18a3.837,3.837,0,0,0,.764-.076l1.68-.336a30.3,30.3,0,0,1,11.881,0l1.683.336a3.837,3.837,0,0,0,.764.076,3.9,3.9,0,0,0,2.755-1.141L40,15a27.968,27.968,0,0,0-10.385-2Z" fill="#d6dfef"/>
      <path id="Trazado_915752" data-name="Trazado 915752" d="M32,34h0V31.651a9.95,9.95,0,0,1-7.633,1A1.065,1.065,0,0,0,23,33.66h0a1.088,1.088,0,0,0,.192.622A18.06,18.06,0,0,0,27.5,38.63,18.025,18.025,0,0,0,32,34Z" fill="#f2b89e"/>
      <path id="Trazado_915753" data-name="Trazado 915753" d="M32,34h0a18.031,18.031,0,0,1-5,5h0l4,5,4.814-8.826" fill="#a3b8db"/>
      <path id="Trazado_915754" data-name="Trazado 915754" d="M22,34h0a18.031,18.031,0,0,0,5,5h0l-4,5-4.814-8.826" fill="#a3b8db"/>
      <path id="Trazado_915755" data-name="Trazado 915755" d="M38,51l4-15-4-1L34,51" fill="#93add1"/>
      <path id="Trazado_915756" data-name="Trazado 915756" d="M59,39a7,7,0,0,1-7,7,6.807,6.807,0,0,1-2.52-.48L33.83,61.17a2.828,2.828,0,0,1-4-4L45.48,41.52A6.807,6.807,0,0,1,45,39a7,7,0,0,1,7-7,6.871,6.871,0,0,1,1.77.23L50,36l1,4,4,1,3.77-3.77A6.871,6.871,0,0,1,59,39Z" fill="#595959"/>
      <path id="Trazado_915757" data-name="Trazado 915757" d="M55,41l-4-1L29.83,61.17a2.825,2.825,0,0,0,4,0L49.48,45.52A6.807,6.807,0,0,0,52,46a7,7,0,0,0,7-7,6.871,6.871,0,0,0-.23-1.77Z" fill="#4c4c4c"/>
      <path id="Trazado_915758" data-name="Trazado 915758" d="M59.029,36.265a.993.993,0,0,0-.966.258l-3.37,3.37-2.868-.717-.718-2.869,3.37-3.369a1,1,0,0,0-.448-1.673A7.811,7.811,0,0,0,52,31a8.011,8.011,0,0,0-7.816,6.308,13.136,13.136,0,0,0-1.292-.77l.074-.28a1,1,0,0,0-.723-1.228l-4-1a.989.989,0,0,0-1.107.5L33,33.262V31.208A11.08,11.08,0,0,0,36.786,27H38a3.991,3.991,0,0,0,2.333-7.235,24,24,0,0,0,.642-4.578.965.965,0,0,0,.013-.339l-.783-5.1A10.27,10.27,0,0,0,30,1H24A10.269,10.269,0,0,0,13.8,9.754l-.783,5.094a.992.992,0,0,0,.049.487,8.012,8.012,0,0,0-.061.8,8.035,8.035,0,0,0,.239,1.941l.423,1.69A3.99,3.99,0,0,0,16,27h1.214A11.08,11.08,0,0,0,21,31.208v2.054l-4.136,1.272a.988.988,0,0,0-1.107-.5l-4,1a1,1,0,0,0-.723,1.228l.075.281A13.171,13.171,0,0,0,4,48.239V54a1,1,0,0,0,1,1v8H7V55h6.32l-1.306,7.836,1.972.328L15.847,52H33.586l-4.463,4.463a3.828,3.828,0,1,0,5.414,5.414l4.511-4.511.966,5.8,1.972-.328-1.2-7.207L41.414,55H47v8h2V55a1,1,0,0,0,1-1V48.24a13.125,13.125,0,0,0-.1-1.534A7.8,7.8,0,0,0,52,47a8.009,8.009,0,0,0,8-8,7.852,7.852,0,0,0-.264-2.028,1,1,0,0,0-.707-.707ZM44.052,39.716a7.7,7.7,0,0,0,.278,1.54l-3.677,3.676,1.708-6.4a11.135,11.135,0,0,1,1.691,1.184Zm-5.324-3.5,2.044.511L37.83,47.755,35.586,50h-.3ZM28,41.851l2.219,2.774A1,1,0,0,0,31,45a.843.843,0,0,0,.087,0,1,1,0,0,0,.791-.517L36.3,36.37l.3.093L33.219,50H28ZM26,50H20.781L17.4,36.463l.3-.093,4.423,8.109a1,1,0,0,0,.791.517A.843.843,0,0,0,23,45a1,1,0,0,0,.781-.375L26,41.851Zm8.35-14.23L30.842,42.2l-2.4-3a18.922,18.922,0,0,0,3.944-4.037ZM16.566,16.151l-.749-.749A26.818,26.818,0,0,1,24.385,14h5.23a26.818,26.818,0,0,1,8.568,1.4l-.749.749a2.9,2.9,0,0,1-2.616.793L33.135,16.6a31.327,31.327,0,0,0-12.274,0l-1.677.337A2.9,2.9,0,0,1,16.566,16.151ZM30,12.009c-.129,0-.256-.009-.385-.009h-5.23c-.129,0-.256.007-.385.009V9h6ZM38,25h-.426A10.966,10.966,0,0,0,38,22c0-.333-.011-.667-.029-1H38a2,2,0,0,1,0,4Zm0-6h-.239q-.045-.293-.1-.585a4.848,4.848,0,0,0,1.05-.736q-.111.687-.266,1.366A3.854,3.854,0,0,0,38,19ZM24,3h6a8.28,8.28,0,0,1,8.227,7.058l.527,3.428A28.788,28.788,0,0,0,32,12.1V8a1,1,0,0,0-1-1H23a1,1,0,0,0-1,1v4.1a28.788,28.788,0,0,0-6.755,1.382l.527-3.427A8.279,8.279,0,0,1,24,3ZM15.18,17.594h0a4.873,4.873,0,0,0,1.157.838q-.053.285-.1.572H16a4.041,4.041,0,0,0-.457.046ZM16,25a2,2,0,0,1,0-4h.029c-.018.333-.029.667-.029,1a10.966,10.966,0,0,0,.426,3Zm2-3a17.451,17.451,0,0,1,.264-3.018,4.914,4.914,0,0,0,1.311-.077l1.679-.337a29.46,29.46,0,0,1,11.489,0l1.685.338a4.908,4.908,0,0,0,.958.094c.118,0,.23-.026.347-.034A17.539,17.539,0,0,1,36,22a9,9,0,1,1-18,0Zm9,11a10.927,10.927,0,0,0,4-.764v1.436a16.929,16.929,0,0,1-4,4.086,16.929,16.929,0,0,1-4-4.086V32.236A10.927,10.927,0,0,0,27,33Zm-5.387,2.166A18.922,18.922,0,0,0,25.557,39.2l-2.4,3L19.65,35.77Zm-6.341,1.047L18.719,50H16.768l-3.54-13.276ZM6,53V48.239a11.164,11.164,0,0,1,5.639-9.71l3.073,11.523a.99.99,0,0,0-.7.784L13.653,53Zm42-4.586V53H43.414ZM52,45a5.8,5.8,0,0,1-2.15-.409,1,1,0,0,0-1.077.221L33.123,60.463a1.829,1.829,0,1,1-2.586-2.586l15.65-15.65a1,1,0,0,0,.222-1.078A5.79,5.79,0,0,1,46,39a6.006,6.006,0,0,1,5.571-5.984l-2.278,2.277a1,1,0,0,0-.263.949l1,4a1,1,0,0,0,.727.728l4,1a.994.994,0,0,0,.95-.263l2.278-2.277A6.008,6.008,0,0,1,52,45Z"/>
    </g>
  </g>
</svg>
